<svg xmlns="http://www.w3.org/2000/svg" xml:space="preserve" x="20" y="20" width="250" height="250" style="shape-rendering:geometricPrecision; text-rendering:geometricPrecision; image-rendering:optimizeQuality; fill-rule:evenodd; clip-rule:evenodd"
viewBox="0 0 100 100">
 <defs>
  <style type="text/css">
   <![CDATA[
    .fil6 {fill:#009933}
    .fil3 {fill:#009BC9}
    .fil2 {fill:#A90000}
    .fil0 {fill:#EE2E24}
    .fil1 {fill:#FFDE00}
    .fil4 {fill:#009933;fill-rule:nonzero}
    .fil7 {fill:#EE2E24;fill-rule:nonzero}
    .fil5 {fill:#FFDE00;fill-rule:nonzero}
   ]]>
  </style>
 </defs>
 <g id="Слой_x0020_1">
  <metadata id="CorelCorpID_0Corel-Layer"/>
  <circle class="fil0" cx="50" cy="50" r="50"/>
  <circle class="fil1" cx="50" cy="50" r="49.4062"/>
  <path class="fil2" d="M60.7813 48.5938c0.5176,0 0.9375,0.4198 0.9375,0.9375l0 0.9374c0,0.5177 -0.4199,0.9375 -0.9375,0.9375l-0.9375 0 0 -2.8124 0.9375 0zm0 3.7499c1.0353,0 1.875,-0.8396 1.875,-1.875l0 -0.9374c0,-1.0354 -0.8397,-1.875 -1.875,-1.875l-1.8751 0 0 4.6874 1.8751 0zm-3.7501 -4.6874l0.9375 0 0 4.6874 -0.9375 0 0 -4.6874zm-1.875 0l0.9375 0 0 4.6874 -0.9375 0 -1.875 -2.9429 0 2.9429 -0.9375 0 0 -4.6874 0.9375 0 1.875 2.9429 0 -2.9429zm-14.0625 0.0001l2.8125 0 0 0.9375 -1.875 0 0 0.9374 1.875 0 0 0.9375 -1.875 0 0 0.9375 1.875 0 0 0.9375 -2.8125 0 0 -4.6874zm-3.75 -0.0002l0.9375 0 0 3.7501 1.875 0 0 0.9375 -2.8125 0 0 -4.6876zm9.844 3.7501l0.9373 0c0.7765,0 1.4062,-0.6298 1.4062,-1.4063 0,-0.7765 -0.6414,-1.4036 -1.4062,-1.4063l-0.9373 0 0 0.9375 0.9373 0c0.2588,0 0.4687,0.21 0.4687,0.4688 0,0.2588 -0.2099,0.4688 -0.4687,0.4688l-0.9373 0 0 0.9375zm0.9373 -4.6876c1.8119,0 3.2812,1.4694 3.2812,3.2813 0,1.8119 -1.4693,3.2813 -3.2812,3.2813 -1.8119,0 -3.2813,-1.4694 -3.2813,-3.2813 0,-1.8119 1.4694,-3.2813 3.2813,-3.2813zm0 0.9375c1.2942,0 2.3437,1.0496 2.3437,2.3438 0,1.2942 -1.0495,2.3438 -2.3437,2.3438 -1.2942,0 -2.3438,-1.0496 -2.3438,-2.3438 0,-1.2942 1.0496,-2.3438 2.3438,-2.3438z"/>
  <circle class="fil3" cx="50" cy="50" r="36.25"/>
  <path class="fil1" d="M28.6331 19.5743l-2.4034 2.1798c12.5257,11.0679 17.0842,28.9684 18.4828,48.9002l0.6018 0c-0.8432,-10.029 -0.5157,-34.1361 -16.6812,-51.08zm13.248 16.0583c0.486,1.6002 1.0698,3.7835 1.2688,5.3693 1.4707,3.0598 3.8813,5.9533 4.2026,24.5524l0.6018 0c-0.1368,-12.324 -0.4202,-23.5594 -6.0732,-29.9217zm7.7736 6.2674l0.6906 0 0 20.4286 -0.6906 0 0 -20.4286zm8.4642 -6.2674c-0.486,1.6002 -1.0698,3.7835 -1.2688,5.3693 -1.4707,3.0598 -3.8813,5.9533 -4.2026,24.5524l-0.6018 0c0.1368,-12.324 0.4202,-23.5594 6.0732,-29.9217zm13.248 -16.0583l2.4034 2.1798c-12.5257,11.0679 -17.0842,28.9684 -18.4828,48.9002l-0.6018 0c0.8432,-10.029 0.5157,-34.1361 16.6812,-51.08z"/>
  <path class="fil0" d="M50 13.2813c20.2758,0 36.7187,16.4429 36.7187,36.7187 0,20.2758 -16.4429,36.7187 -36.7187,36.7187 -20.2758,0 -36.7187,-16.4429 -36.7187,-36.7187 0,-20.2758 16.4429,-36.7187 36.7187,-36.7187zm0 0.4687c20.017,0 36.25,16.233 36.25,36.25 0,20.017 -16.233,36.25 -36.25,36.25 -20.017,0 -36.25,-16.233 -36.25,-36.25 0,-20.017 16.233,-36.25 36.25,-36.25z"/>
  <path class="fil1" d="M49.9999 61.4524c-1.3571,1.2797 -1.3045,2.8475 -0.6566,4.2937l-0.012 0.0097c-0.6234,-0.4462 -1.1951,-0.6259 -1.6899,-0.6275 -0.9322,-0.0032 -1.7579,0.9626 -1.7849,1.7005 -0.0243,0.665 0.0491,1.2869 0.6499,1.6727 0.4061,0.2606 0.9883,0.3345 1.4102,0.0128 -0.5599,-0.1849 -0.5619,-0.8239 -0.3902,-1.1163 0.1762,-0.3 0.469,-0.5155 0.8453,-0.503 0.6799,0.0226 1.0664,0.5887 1.0536,1.1397 -0.0184,0.7993 -1.1514,1.8443 -1.7462,2.177 0.4002,0.7575 0.9665,1.9732 1.2,2.9032l-0.3224 0.213c-6.2055,-7.7219 -12.5865,-5.4378 -17.609,-10.7983 0.6425,6.7593 6.9145,9.3184 10.7033,10.1887 -1.7718,1.0222 -2.1907,2.6801 -2.1419,4.1486 0.0694,2.0873 1.8185,3.6685 4.1125,3.6189 2.3885,-0.0518 4.1001,-2.3707 2.8613,-4.5476 -0.4706,0.9177 -0.9486,1.7447 -2.0278,1.6877 -1.0792,-0.0569 -1.4827,-1.0132 -1.4944,-1.8878 -0.014,-1.0567 0.7674,-1.823 1.7757,-2.0013 0.7109,-0.1257 1.4972,0.0481 2.1829,0.3784 1.2087,0.5822 2.1178,1.9534 2.0771,3.3874 -0.0408,1.4339 -0.952,3.0595 -2.9835,4.6405 1.2806,1.5818 2.6722,3.6273 3.987,6.5205 1.315,-2.8932 2.7065,-4.9387 3.9871,-6.5205 -2.0315,-1.581 -2.9427,-3.2066 -2.9834,-4.6405 -0.0408,-1.434 0.8683,-2.8052 2.077,-3.3874 0.6857,-0.3303 1.472,-0.5041 2.183,-0.3784 1.0082,0.1783 1.7897,0.9446 1.7756,2.0013 -0.0116,0.8746 -0.4152,1.8309 -1.4944,1.8878 -1.0792,0.057 -1.5572,-0.77 -2.0277,-1.6877 -1.2389,2.1769 0.4728,4.4958 2.8612,4.5476 2.294,0.0496 4.0431,-1.5316 4.1125,-3.6189 0.0488,-1.4685 -0.37,-3.1264 -2.1419,-4.1486 3.7888,-0.8703 10.0608,-3.4294 10.7033,-10.1887 -5.0224,5.3605 -11.4034,3.0764 -17.609,10.7983l-0.3224 -0.213c0.2336,-0.93 0.7998,-2.1457 1.2,-2.9032 -0.5948,-0.3327 -1.7277,-1.3777 -1.7462,-2.177 -0.0127,-0.551 0.3738,-1.1171 1.0537,-1.1397 0.3763,-0.0125 0.669,0.203 0.8452,0.503 0.1717,0.2924 0.1698,0.9314 -0.3901,1.1163 0.4218,0.3217 1.004,0.2478 1.4102,-0.0128 0.6008,-0.3858 0.6742,-1.0077 0.6498,-1.6727 -0.027,-0.7379 -0.8526,-1.7037 -1.7848,-1.7005 -0.4948,0.0016 -1.0665,0.1813 -1.69,0.6275l-0.012 -0.0097c0.6479,-1.4462 0.7005,-3.014 -0.6567,-4.2937z"/>
  <path class="fil4" d="M50.8558 68.0188c0,-0.4046 0.2701,-0.8249 0.7818,-0.8422 0.3238,-0.0105 0.5109,0.224 0.5936,0.3646 0.0594,0.1012 0.0891,0.2977 0.0271,0.4625 -0.0456,0.121 -0.1317,0.2009 -0.2631,0.2444l-0.5062 0.1673c0.4384,0.3344 0.8063,0.6473 1.4056,0.5861 0.2755,-0.0281 0.5388,-0.1266 0.751,-0.2627 0.731,-0.4694 0.804,-1.2338 0.7788,-1.9196 -0.0325,-0.8903 -0.9924,-1.9749 -2.0666,-1.9714 -0.3859,0.0013 -0.7812,0.1061 -1.1802,0.2921 0.1303,-0.4349 0.2024,-0.8567 0.2024,-1.2596 0,-0.9969 -0.3979,-1.8875 -1.187,-2.6316l-0.1929 -0.1819 -0.193 0.1819c-0.7892,0.7441 -1.187,1.6347 -1.187,2.6316 0,0.4029 0.0721,0.8247 0.2024,1.2596 -0.399,-0.186 -0.7943,-0.2908 -1.1801,-0.2921 -1.0741,-0.0035 -2.0343,1.0811 -2.0669,1.9714 -0.0251,0.6858 0.0479,1.4502 0.779,1.9196 0.2487,0.1596 0.5678,0.2673 0.8943,0.2707 0.532,0.0054 0.8686,-0.2937 1.2624,-0.5941 -0.2466,-0.0815 -0.6656,-0.1358 -0.7694,-0.4117 -0.0621,-0.1648 -0.0323,-0.3613 0.0273,-0.4628 0.0825,-0.1405 0.2695,-0.3748 0.5932,-0.3643 0.5118,0.0173 0.7821,0.4378 0.782,0.8422 -0.0152,0.6648 -1.0462,1.637 -1.6024,1.9481l-0.2398 0.134 0.1283 0.2429c0.3697,0.6993 0.807,1.6613 1.0615,2.4708 -3.3915,-4.0573 -6.7758,-5.2377 -10.0517,-6.3718 -2.6192,-0.9067 -5.0931,-1.763 -7.2872,-4.1048l-0.5631 -0.6012 0.0779 0.8202c0.6516,6.8557 6.9927,9.4118 10.2989,10.2828 -1.1442,0.8804 -1.7424,2.1822 -1.7424,3.8104 0,0.0749 0.0012,0.1506 0.0038,0.2267 0.0755,2.2708 1.9668,3.9434 4.3996,3.8909 1.324,-0.0289 2.5282,-0.7197 3.1425,-1.8031 0.5577,-0.9836 0.5421,-2.1371 -0.0429,-3.165l-0.2573 -0.4521 -0.2374 0.4629c-0.4759,0.9282 -0.881,1.5817 -1.7627,1.5354 -1.1202,-0.0592 -1.223,-1.248 -1.2278,-1.6108 -0.0115,-0.8638 0.6086,-1.5552 1.5434,-1.7206 0.6016,-0.1064 1.3162,0.0194 2.0118,0.3549 1.1656,0.5613 1.9543,1.8467 1.9181,3.1259 -0.0417,1.4645 -1.036,2.9951 -2.8751,4.4266l-0.2263 0.1761 0.1804 0.2228c1.5766,1.9474 2.8316,4 3.9497,6.4598l0.256 0.5635 0.256 -0.5635c1.1179,-2.4593 2.3728,-4.5122 3.9495,-6.4598l0.1805 -0.2228 -0.2263 -0.1761c-1.8392,-1.4315 -2.8334,-2.9621 -2.8749,-4.4266 -0.0364,-1.2789 0.7523,-2.5646 1.9178,-3.1259 0.6959,-0.3353 1.4104,-0.4613 2.0117,-0.3549 0.9347,0.1654 1.555,0.8568 1.5437,1.7206 -0.005,0.3628 -0.1077,1.5516 -1.228,1.6108 -0.8815,0.0463 -1.2865,-0.6072 -1.7628,-1.5354l-0.2373 -0.4629 -0.2573 0.4521c-0.585,1.0279 -0.6006,2.1816 -0.0429,3.1652 0.6146,1.0832 1.8186,1.774 3.1426,1.8029 2.4327,0.0525 4.324,-1.6201 4.3994,-3.8909 0.0026,-0.0764 0.0039,-0.1522 0.0039,-0.2271 0,-1.628 -0.5982,-2.9296 -1.7422,-3.81 3.306,-0.871 9.6471,-3.4271 10.2987,-10.2828l0.0779 -0.8202 -0.563 0.6012c-2.1941,2.3418 -4.6681,3.1981 -7.2872,4.1048 -3.2759,1.1341 -6.6603,2.3145 -10.052,6.372 0.2545,-0.8092 0.692,-1.7715 1.0618,-2.471l0.1283 -0.2429 -0.2399 -0.134c-0.5562,-0.3111 -1.5873,-1.2833 -1.6023,-1.9481zm-0.5624 0.0071c0.0197,0.8718 1.0033,1.8375 1.6622,2.2875 -0.4988,0.9767 -1.0261,2.0437 -1.156,3.1435l0.7025 0.2478 0.1604 -0.1998c3.3853,-4.2123 6.7893,-5.3908 10.0814,-6.5305 2.4504,-0.8483 4.7747,-1.6678 6.9019,-3.6567 -1.1044,6.3106 -7.5463,8.481 -10.3597,9.1271l-0.6973 0.1602 0.6196 0.3574c1.3311,0.7681 2.0049,2.006 2.0049,3.6812 0,0.0708 -0.0011,0.1423 -0.0035,0.2148 -0.065,1.9539 -1.7094,3.3926 -3.8254,3.3469 -1.1267,-0.0245 -2.1481,-0.6061 -2.6651,-1.5179 -0.2253,-0.3973 -0.3377,-0.8198 -0.3377,-1.248 0,-0.284 0.067,-0.5691 0.1658,-0.8525 0.3982,0.6888 0.9677,1.3757 2.0124,1.3205 1.2792,-0.0675 1.748,-1.2085 1.7606,-2.165 0.0151,-1.1316 -0.8106,-2.07 -2.008,-2.2817 -0.7166,-0.1268 -1.5526,0.0159 -2.3539,0.4018 -1.3287,0.6401 -2.2374,2.089 -2.2374,3.5495 0,0.0332 0.0005,0.0661 0.0013,0.0993 0.0449,1.5753 1.0448,3.1871 2.8789,4.6767 -1.3944,1.757 -2.5761,3.6785 -3.6012,5.8375 -1.0253,-2.1594 -2.207,-4.0809 -3.6014,-5.8375 1.8341,-1.4894 2.834,-3.1012 2.8789,-4.6767 0.0009,-0.0332 0.0013,-0.0661 0.0013,-0.0993 0,-1.4605 -0.9086,-2.9094 -2.2374,-3.5495 -0.8013,-0.3859 -1.6372,-0.5286 -2.354,-0.4018 -1.1973,0.2117 -2.0229,1.1501 -2.0078,2.2817 0.0127,0.9565 0.4814,2.0975 1.7606,2.165 1.0448,0.0552 1.6141,-0.6317 2.0124,-1.3205 0.0987,0.2834 0.1658,0.5685 0.1658,0.8525 0,0.4282 -0.1124,0.8507 -0.3376,1.248 -0.5172,0.9118 -1.5384,1.4934 -2.6653,1.5179 -2.1159,0.0457 -3.7604,-1.393 -3.8253,-3.3469 -0.0024,-0.0723 -0.0036,-0.1438 -0.0036,-0.2144 0,-1.6756 0.6738,-2.9135 2.005,-3.6816l0.6197 -0.3574 -0.6973 -0.1602c-2.8135,-0.6461 -9.2553,-2.8165 -10.3597,-9.1271 2.127,1.9889 4.4513,2.8084 6.9018,3.6567 3.292,1.1397 6.6962,2.3182 10.0814,6.5305l0.1605 0.1998 0.7025 -0.2478c-0.1304,-1.0998 -0.6572,-2.1668 -1.1562,-3.1435 0.659,-0.4498 1.6425,-1.4157 1.6623,-2.2875 0.0002,-0.6858 -0.4891,-1.3835 -1.3256,-1.4113 -0.449,-0.015 -0.8488,0.2188 -1.0971,0.6415 -0.0913,0.1555 -0.1383,0.3512 -0.1383,0.5473 0,0.1372 0.0229,0.2744 0.0696,0.3986 0.0336,0.0887 0.0962,0.1561 0.1514,0.2289 -0.2526,0.029 -0.5166,-0.0425 -0.7084,-0.1654 -0.4646,-0.2982 -0.5441,-0.7857 -0.5206,-1.4256 0.0206,-0.5665 0.7022,-1.4323 1.5029,-1.4297 0.7299,0.0025 1.3025,0.4174 1.8703,0.8156l0.2479 -0.2285c-0.2963,-0.682 -0.5775,-1.3548 -0.5775,-2.1155 0,-0.7523 0.2836,-1.42 0.8188,-2.0072 0.5352,0.5872 0.8186,1.2549 0.8186,2.0072 0,0.7618 -0.289,1.4251 -0.5644,2.1155l0.2203 0.2285c0.5786,-0.3894 1.1503,-0.8131 1.8852,-0.8156 0.8005,-0.0026 1.482,0.8632 1.5026,1.4297 0.0233,0.6399 -0.0561,1.1274 -0.5208,1.4256 -0.1917,0.1229 -0.4557,0.1944 -0.7082,0.1654 0.0551,-0.0728 0.1178,-0.14 0.1512,-0.2289 0.0469,-0.1241 0.0697,-0.2614 0.0697,-0.3986 0,-0.1963 -0.0469,-0.3918 -0.138,-0.5471 -0.2487,-0.4229 -0.6485,-0.6567 -1.0972,-0.6417 -0.8368,0.0278 -1.3259,0.7255 -1.3257,1.4113z"/>
  <path class="fil3" d="M50 74.1339c0.427,-1.2756 0.8943,-2.6256 1.4361,-3.6314 -0.501,-0.3004 -0.9747,-0.8176 -1.4361,-1.4334 -0.4614,0.6158 -0.9351,1.133 -1.4361,1.4334 0.5418,1.0058 1.0091,2.3558 1.4361,3.6314z"/>
  <path class="fil3" d="M50 86.7579c0.694,-1.3759 1.5383,-2.8853 2.6329,-4.1278 -0.911,-0.7762 -1.8221,-1.8693 -2.6329,-3.1795 -0.8108,1.3102 -1.7219,2.4033 -2.6329,3.1795 1.0946,1.2425 1.9389,2.7519 2.6329,4.1278z"/>
  <path class="fil5" d="M50.7336 81.1399c-0.135,0 -0.2755,0.0726 -0.4177,0.2158 -0.3137,0.3159 -0.4557,0.8126 -0.5698,1.2118l-0.0126 0.0441c-0.0253,0.0881 -0.0491,0.1854 -0.0739,0.278 -0.0825,-0.0277 -0.1695,-0.0533 -0.2682,-0.0698 0.0827,-0.2086 0.1325,-0.4108 0.1252,-0.6134 -0.0025,-0.0689 -0.0604,-0.123 -0.1295,-0.1203 -0.069,0.0023 -0.1229,0.0605 -0.1203,0.1293 0.0114,0.3172 -0.1617,0.6641 -0.372,1.0521 -0.0328,0.0607 -0.0104,0.1365 0.0504,0.1694 0.0607,0.033 0.1365,0.0106 0.1695,-0.0501 0.0609,-0.1124 0.119,-0.222 0.171,-0.3293 0.1164,0.0128 0.2153,0.0416 0.3097,0.0739 -0.1663,0.6587 -0.3135,1.3729 -0.4062,1.8914 -0.0012,0.0073 -0.0019,0.0148 -0.0019,0.0221 0,0.0595 0.0426,0.112 0.1031,0.123 0.0679,0.012 0.1328,-0.0331 0.145,-0.1012 0.0907,-0.5079 0.234,-1.2056 0.3963,-1.8511 0.1054,0.0405 0.2089,0.0765 0.3209,0.0857 0.549,0.045 0.842,-0.4632 0.9262,-0.9119 0.0659,-0.3507 0.0898,-0.9485 -0.1145,-1.1562 -0.059,-0.0599 -0.1407,-0.0931 -0.2298,-0.0933 -0.0002,0 -0.0004,0 -0.0009,0zm-0.7598 1.5407l0.0127 -0.0444c0.1063,-0.3716 0.2384,-0.8339 0.5069,-1.1044 0.1225,-0.1234 0.203,-0.1419 0.2402,-0.1419 0.0003,0 0.0003,0 0.0005,0 0.0293,0 0.0452,0.0117 0.0519,0.0185 0.0762,0.0775 0.1324,0.4804 0.0469,0.935 -0.0648,0.3466 -0.2766,0.7402 -0.66,0.7085 -0.0863,-0.0068 -0.1777,-0.0432 -0.2761,-0.0813 0.0258,-0.0969 0.0506,-0.1983 0.077,-0.29z"/>
  <path class="fil0" d="M50 1.875c26.5743,0 48.125,21.5507 48.125,48.125 0,14.667 -6.5671,27.8013 -16.9182,36.6289l-5.6514 -7.9229c6.5087,-5.7987 11.034,-13.7764 12.428,-22.7872 0.0249,-0.1621 0.0062,-0.2275 0.1865,-0.2817 0.1564,-0.0471 0.3249,-0.095 0.4644,-0.1577 0.0587,-0.0263 0.117,-0.0618 0.1733,-0.1152 0.0437,-0.0416 0.0587,-0.1183 0.0762,-0.2072 0.0314,-0.1611 0.0745,-0.3817 0.349,-0.4633 0.3078,-0.0916 0.5725,0.1212 0.9078,0.3906 0.1897,0.1524 0.4047,0.3253 0.6683,0.4793 0.6589,0.385 1.2602,0.5507 2.0758,0.5723 0.7047,0.0187 1.3197,-0.0879 2.0306,-0.669 0.2765,-0.2263 0.4812,-0.4651 0.7034,-0.7541 0.1934,-0.2517 0.4186,-0.4842 0.7538,-0.4795 0.2569,0.0035 0.4597,0.1228 0.5565,0.3269 0.0404,0.0852 0.0601,0.1797 0.0601,0.2769 0,0.0161 -0.0078,0.0325 -0.0088,0.0487 0.1095,-0.128 0.1745,-0.261 0.1786,-0.3926 0.0003,-0.0073 0.0004,-0.0144 0.0004,-0.0215 0,-0.2319 -0.1195,-0.4033 -0.2215,-0.5075 -0.1949,-0.1992 -0.4871,-0.3211 -0.7626,-0.3181 -0.5416,0.0057 -0.9905,0.2742 -1.4658,0.5583 -0.2356,0.1411 -0.4794,0.2869 -0.7348,0.3971 -0.565,0.2438 -1.2128,0.3473 -2.0387,0.3258 -1.2203,-0.0317 -1.9971,-0.5872 -2.4339,-1.0475 -0.4963,-0.523 -0.8079,-1.209 -0.7936,-1.7475 0.0249,-0.9464 0.3825,-1.1983 0.4233,-1.2239l0.0268 -0.017 1.5456 -0.1008 -0.1241 0.2056c-0.0022,0.0037 -0.2213,0.3749 -0.2412,1.1502 -0.0006,0.0185 -0.0008,0.0369 -0.0008,0.055 0,0.9717 0.6659,1.3619 0.8198,1.4392 0.055,-0.0138 0.3442,-0.0866 0.5901,-0.1484 -0.3134,-0.2414 -0.8268,-0.748 -0.8268,-1.4978 0,-0.0142 0.0002,-0.0284 0.0005,-0.0428 0.0253,-0.967 0.6523,-1.4835 1.7654,-1.4547 0.7584,0.0196 1.5645,0.5222 1.5448,1.2997 -0.0072,0.2844 -0.0974,0.5109 -0.268,0.673 -0.244,0.2317 -0.5669,0.2492 -0.6944,0.2457 -0.2235,-0.0058 -0.413,-0.1223 -0.5529,-0.2422 0.0262,0.1287 0.0774,0.2745 0.1882,0.4052 0.1972,0.2326 0.5242,0.3566 0.9716,0.3682 0.4761,0.0125 1.2081,-0.4371 1.2267,-1.1427 0.0082,-0.306 -0.041,-0.4735 -0.077,-0.596 -0.0544,-0.1854 -0.079,-0.3099 0.0964,-0.5198 0.2043,-0.2452 0.5067,-0.1408 0.7067,-0.0717l0.1682 0.047c0.1561,0.0038 0.6029,-0.4076 1.0569,-0.9634 -0.454,-0.5557 -0.9007,-0.9672 -1.0569,-0.9631l-0.1682 0.0468c-0.2,0.069 -0.5023,0.1735 -0.7067,-0.0715 -0.1753,-0.21 -0.1508,-0.3344 -0.0964,-0.5199 0.036,-0.1225 0.0852,-0.2901 0.077,-0.596 -0.0186,-0.7058 -0.7507,-1.1551 -1.2267,-1.1427 -0.4475,0.0116 -0.7744,0.1355 -0.9717,0.3682 -0.1107,0.1307 -0.1619,0.2765 -0.1881,0.4051 0.1399,-0.1199 0.3294,-0.2363 0.5528,-0.2422 0.1275,-0.0034 0.4503,0.0138 0.6943,0.2456 0.1708,0.162 0.261,0.3885 0.2682,0.6734 0.0197,0.7775 -0.7865,1.2799 -1.5448,1.2995 -1.1131,0.029 -1.74,-0.4876 -1.7654,-1.4547 -0.0003,-0.0143 -0.0005,-0.0287 -0.0005,-0.0428 0,-0.7498 0.5134,-1.2564 0.8268,-1.4978 -0.246,-0.0619 -0.5351,-0.1346 -0.5901,-0.1485 -0.1539,0.0774 -0.8198,0.4674 -0.8198,1.4394 0,0.0181 0.0002,0.0364 0.0008,0.0548 0.0199,0.7753 0.239,1.1467 0.2412,1.1504l0.1238 0.205 -0.2387 -0.0151 -1.3066 -0.0854 -0.0268 -0.0168c-0.0407,-0.0256 -0.3984,-0.2775 -0.4233,-1.2239 -0.0143,-0.5386 0.2973,-1.2247 0.7936,-1.7477 0.4368,-0.4604 1.2137,-1.0156 2.4339,-1.0474 0.8259,-0.0214 1.4739,0.0821 2.0387,0.326 0.2554,0.1102 0.4992,0.2559 0.7348,0.3969 0.4752,0.2842 0.9242,0.5527 1.4658,0.5584 0.2754,0.003 0.5676,-0.1189 0.7626,-0.318 0.102,-0.1042 0.2215,-0.2757 0.2215,-0.5074 0,-0.0071 -0.0001,-0.0143 -0.0004,-0.0215 -0.0043,-0.1345 -0.0688,-0.2673 -0.1791,-0.395 0.0012,0.0169 0.0093,0.034 0.0093,0.0509 0,0.0971 -0.0197,0.1915 -0.0602,0.2768 -0.0967,0.2042 -0.2995,0.3234 -0.5564,0.327 -0.3351,0.0046 -0.5604,-0.2278 -0.7539,-0.4796 -0.2223,-0.2891 -0.427,-0.5279 -0.7033,-0.7539 -0.7106,-0.5811 -1.3257,-0.6877 -2.0306,-0.6691 -0.8153,0.0215 -1.4167,0.1873 -2.0757,0.5723 -0.2637,0.154 -0.4786,0.3267 -0.6684,0.4791 -0.3352,0.2695 -0.6,0.4822 -0.9078,0.3908 -0.2745,-0.0816 -0.3176,-0.3023 -0.349,-0.4635 -0.0175,-0.0887 -0.0325,-0.1653 -0.0763,-0.2071 -0.0634,-0.06 -0.1292,-0.0975 -0.1955,-0.1248 -0.1299,-0.0535 -0.2705,-0.0955 -0.4086,-0.1375 -0.2102,-0.0639 -0.1951,-0.1247 -0.2248,-0.317 -2.8582,-18.4034 -18.7754,-32.4939 -37.9786,-32.4939 -19.2073,0 -35.1272,14.0965 -37.9804,32.5057 -0.0251,0.1627 -0.0028,0.2375 -0.1861,0.2935 -0.1501,0.0457 -0.3028,0.0904 -0.4455,0.1492 -0.174,0.0717 -0.2363,0.1511 -0.2718,0.3319 -0.0314,0.1612 -0.0745,0.3819 -0.349,0.4635 -0.3078,0.0914 -0.5726,-0.1213 -0.9078,-0.3908 -0.1898,-0.1524 -0.4047,-0.3251 -0.6684,-0.4791 -0.659,-0.385 -1.2604,-0.5508 -2.0757,-0.5723 -0.7049,-0.0186 -1.32,0.088 -2.0306,0.6691 -0.2763,0.226 -0.481,0.4648 -0.7033,0.7539 -0.1935,0.2518 -0.4188,0.4842 -0.7539,0.4796 -0.2569,-0.0036 -0.4597,-0.1228 -0.5564,-0.327 -0.0405,-0.0853 -0.0602,-0.1797 -0.0602,-0.2768 0,-0.0169 0.0081,-0.034 0.0093,-0.0509 -0.1103,0.1277 -0.1748,0.2605 -0.1791,0.395 -0.0003,0.0072 -0.0004,0.0144 -0.0004,0.0215 0,0.2317 0.1195,0.4032 0.2215,0.5074 0.195,0.1991 0.4872,0.321 0.7626,0.318 0.5416,-0.0057 0.9906,-0.2742 1.4658,-0.5584 0.2356,-0.141 0.4794,-0.2867 0.7348,-0.3969 0.5648,-0.2439 1.2128,-0.3474 2.0387,-0.326 1.2202,0.0318 1.9971,0.587 2.4339,1.0474 0.4963,0.523 0.8079,1.2091 0.7936,1.7477 -0.0249,0.9464 -0.3826,1.1983 -0.4233,1.2239l-0.0268 0.0168 -1.3066 0.0854 -0.2387 0.0151 0.1238 -0.205c0.0022,-0.0037 0.2213,-0.3751 0.2412,-1.1504 0.0006,-0.0184 0.0008,-0.0367 0.0008,-0.0548 0,-0.972 -0.6659,-1.362 -0.8198,-1.4394 -0.055,0.0139 -0.3441,0.0866 -0.5901,0.1485 0.3134,0.2414 0.8268,0.748 0.8268,1.4978 0,0.0141 -0.0002,0.0285 -0.0005,0.0428 -0.0254,0.9671 -0.6523,1.4837 -1.7654,1.4547 -0.7583,-0.0196 -1.5645,-0.522 -1.5448,-1.2995 0.0072,-0.2849 0.0974,-0.5114 0.2682,-0.6734 0.244,-0.2318 0.5668,-0.249 0.6943,-0.2456 0.2234,0.0059 0.4129,0.1223 0.5528,0.2422 -0.0262,-0.1286 -0.0774,-0.2744 -0.1881,-0.4051 -0.1973,-0.2327 -0.5242,-0.3566 -0.9717,-0.3682 -0.476,-0.0124 -1.2081,0.4369 -1.2267,1.1427 -0.0082,0.3059 0.041,0.4735 0.077,0.596 0.0544,0.1855 0.0789,0.3099 -0.0964,0.5199 -0.2044,0.245 -0.5067,0.1405 -0.7067,0.0715l-0.1682 -0.0468c-0.1562,-0.0041 -0.6029,0.4074 -1.0569,0.9631 0.454,0.5558 0.9008,0.9672 1.0569,0.9634l0.1682 -0.047c0.2,-0.0691 0.5024,-0.1735 0.7067,0.0717 0.1754,0.2099 0.1508,0.3344 0.0964,0.5198 -0.036,0.1225 -0.0852,0.29 -0.077,0.596 0.0186,0.7056 0.7506,1.1552 1.2267,1.1427 0.4474,-0.0116 0.7744,-0.1356 0.9716,-0.3682 0.1108,-0.1307 0.162,-0.2765 0.1882,-0.4052 -0.1399,0.1199 -0.3294,0.2364 -0.5529,0.2422 -0.1275,0.0035 -0.4504,-0.014 -0.6944,-0.2457 -0.1706,-0.1621 -0.2608,-0.3886 -0.268,-0.673 -0.0197,-0.7775 0.7864,-1.2801 1.5448,-1.2997 1.1131,-0.0288 1.7401,0.4877 1.7654,1.4547 0.0003,0.0144 0.0005,0.0286 0.0005,0.0428 0,0.7498 -0.5134,1.2564 -0.8268,1.4978 0.2459,0.0618 0.5351,0.1346 0.5901,0.1484 0.1539,-0.0773 0.8198,-0.4675 0.8198,-1.4392 0,-0.0181 -0.0002,-0.0365 -0.0008,-0.055 -0.0199,-0.7753 -0.239,-1.1465 -0.2412,-1.1502l-0.1241 -0.2056 1.5456 0.1008 0.0268 0.017c0.0408,0.0256 0.3984,0.2775 0.4233,1.2239 0.0143,0.5385 -0.2973,1.2245 -0.7936,1.7475 -0.4368,0.4603 -1.2136,1.0158 -2.4339,1.0475 -0.8259,0.0215 -1.4737,-0.082 -2.0387,-0.3258 -0.2554,-0.1102 -0.4992,-0.256 -0.7348,-0.3971 -0.4753,-0.2841 -0.9242,-0.5526 -1.4658,-0.5583 -0.2755,-0.003 -0.5677,0.1189 -0.7626,0.3181 -0.102,0.1042 -0.2215,0.2756 -0.2215,0.5075 0,0.0071 0.0001,0.0142 0.0004,0.0215 0.0041,0.1316 0.0691,0.2646 0.1786,0.3926 -0.001,-0.0162 -0.0088,-0.0326 -0.0088,-0.0487 0,-0.0972 0.0197,-0.1917 0.0601,-0.2769 0.0968,-0.2041 0.2996,-0.3234 0.5565,-0.3269 0.3352,-0.0047 0.5604,0.2278 0.7538,0.4795 0.2222,0.289 0.4269,0.5278 0.7034,0.7541 0.7109,0.5811 1.3259,0.6877 2.0306,0.669 0.8156,-0.0216 1.4169,-0.1873 2.0758,-0.5723 0.2636,-0.154 0.4786,-0.3269 0.6683,-0.4793 0.3353,-0.2694 0.6,-0.4822 0.9078,-0.3906 0.2745,0.0816 0.3176,0.3022 0.349,0.4633 0.0298,0.152 0.0644,0.2191 0.1981,0.296 0.1475,0.0848 0.3384,0.1356 0.5074,0.1834 0.1749,0.0493 0.1656,0.0912 0.1902,0.2524 1.3886,9.0232 5.9165,17.0123 12.4327,22.8172l-5.6514 7.9229c-10.3511,-8.8276 -16.9182,-21.9619 -16.9182,-36.6289 0,-26.5743 21.5507,-48.125 48.125,-48.125zm25.1319 77.2059l5.6435 7.912c-0.1442,0.1205 -0.2891,0.2402 -0.435,0.3589l-5.6395 -7.9064c0.1441,-0.1211 0.2887,-0.2415 0.431,-0.3645zm-0.8653 0.7244l5.6345 7.8992c-0.1469,0.1168 -0.2947,0.2326 -0.443,0.3478l-5.6304 -7.8936c0.1473,-0.1166 0.2934,-0.2348 0.4389,-0.3534zm-0.8838 0.6983l5.6288 7.8913c-0.3513,0.2664 -0.7062,0.5281 -1.0653,0.7847l-5.6256 -7.8869c0.3591,-0.2566 0.7124,-0.5206 1.0621,-0.7891zm-45.7035 0.7891l-5.6256 7.8869c-0.3591,-0.2566 -0.7141,-0.5183 -1.0653,-0.7847l5.6288 -7.8913c0.3497,0.2685 0.703,0.5325 1.0621,0.7891zm-1.507 -1.134l-5.6304 7.8936c-0.1483,-0.1152 -0.2961,-0.231 -0.443,-0.3478l5.6345 -7.8992c0.1455,0.1186 0.2916,0.2368 0.4389,0.3534zm-0.8732 -0.7133l-5.6395 7.9064c-0.1459,-0.1187 -0.2908,-0.2384 -0.435,-0.3589l5.6435 -7.912c0.1423,0.123 0.2869,0.2435 0.431,0.3645zm26.9947 12.4295l-0.4478 1.6819 1.1228 -0.0647 -0.6449 -1.6186 -0.0301 0.0014zm-20.2631 -2.0604l0.1904 -1.7326 -0.0279 -0.0127 -1.1844 1.2751 1.0219 0.4702zm34.9166 -1.4601l0.1741 1.731 1.0279 -0.4568 -1.1748 -1.2868 -0.0272 0.0126zm-33.4414 4.7566l-1.9346 -0.89 0.1474 -1.187 -1.4404 -0.6628 -0.7987 0.8876 -1.8381 -0.8458 3.8894 -4.0281 2.4758 1.1393 -0.5008 5.5868zm7.1743 -1.8863c-0.253,-0.1878 -0.5776,-0.3722 -0.9703,-0.4813 -0.8284,-0.2306 -1.5253,0.163 -1.7297,0.897 -0.1315,0.4725 -0.1771,1.3685 1.0438,1.7082 0.1894,0.0525 0.4882,0.1047 1.0581,0.0832l-0.3762 1.3519c-0.6336,-0.0038 -1.1106,-0.0894 -1.4814,-0.1927 -1.9701,-0.5484 -2.7336,-1.9432 -2.3068,-3.4772 0.3645,-1.3086 1.554,-2.4031 3.8218,-1.772 0.5816,0.1622 0.9845,0.3758 1.205,0.4843l0.11 0.0539 -0.3743 1.3447zm7.5325 1.0839l-1.7734 -0.1845 -0.3859 3.7035 -2.0133 -0.2098 0.386 -3.7039 -1.7729 -0.1849 0.162 -1.5549 5.5597 0.5797 -0.1622 1.5548zm5.4803 3.5234l-0.4269 -1.1168 -1.5825 0.0909 -0.2887 1.1583 -2.0195 0.1158 1.5427 -5.381 2.7204 -0.1562 2.1796 5.1668 -2.1251 0.1222zm7.7671 -1.3169l-0.4589 -1.8932 -1.3136 0.3183 0.459 1.8932 -1.9667 0.4769 -1.2453 -5.1367 1.9662 -0.4765 0.4306 1.7758 1.3135 -0.3187 -0.4306 -1.7758 1.9665 -0.4769 1.2459 5.1368 -1.9666 0.4768zm8.1925 -2.953l-0.7938 -0.8941 -1.4482 0.6434 0.1382 1.1855 -1.8485 0.821 -0.455 -5.5787 2.4898 -1.1061 3.8622 4.0652 -1.9447 0.8638z"/>
  <g id="_250593560">
   <circle id="_255379976" class="fil6" cx="49.9999" cy="21.1241" r="15.1249"/>
   <circle id="_255380552" class="fil1" cx="49.9999" cy="21.1241" r="14.5624"/>
   <circle id="_255381128" class="fil0" cx="49.9999" cy="21.1241" r="12.4062"/>
   <circle id="_250594904" class="fil6" cx="49.9999" cy="21.1241" r="12.2187"/>
   <circle id="_250594088" class="fil0" cx="50" cy="21.1241" r="11.6562"/>
   <circle id="_250598672" class="fil1" cx="50" cy="21.1241" r="11.4687"/>
   <circle id="_250598144" class="fil0" cx="50" cy="21.1241" r="10.5"/>
   <circle id="_250597640" class="fil3" cx="50" cy="21.1241" r="10.3125"/>
   <path id="_250595384" class="fil1" d="M58.4688 15.5903l-0.7801 -0.78 -0.7483 0.7483 -0.0283 0.4027 -3.3149 3.3149 -0.4027 0.0283 -0.7483 0.7483 0.78 0.7801 0.7483 -0.7483 0.0283 -0.4028 3.3149 -3.3149 0.4028 -0.0283 0.7483 -0.7483zm-1.0942 -1.0675l-0.78 -0.78 -0.7483 0.7483 -0.0283 0.4027 -3.315 3.3149 -0.4027 0.0284 -0.7483 0.7483 0.78 0.78 0.7483 -0.7483 0.0284 -0.4027 3.3149 -3.315 0.4027 -0.0283 0.7483 -0.7483zm-1.0808 -1.0808l-0.78 -0.78 -0.7483 0.7483 -0.0284 0.4027 -3.3149 3.3149 -0.4027 0.0284 -0.7483 0.7483 0.78 0.78 0.7483 -0.7483 0.0283 -0.4028 3.315 -3.3149 0.4027 -0.0283 0.7483 -0.7483zm-11.8343 16.1576l-0.78 -0.7801 0.7482 -0.7483 0.4028 -0.0283 3.3149 -3.3149 0.0283 -0.4027 0.7483 -0.7483 0.7801 0.78 -0.7483 0.7483 -0.4028 0.0283 -3.3149 3.3149 -0.0283 0.4028 -0.7483 0.7483zm-1.0675 -1.0942l-0.78 -0.78 0.7483 -0.7483 0.4027 -0.0283 3.3149 -3.315 0.0284 -0.4027 0.7483 -0.7483 0.78 0.78 -0.7483 0.7483 -0.4027 0.0284 -3.315 3.3149 -0.0283 0.4027 -0.7483 0.7483zm-1.0808 -1.0808l-0.78 -0.78 0.7483 -0.7483 0.4027 -0.0284 3.3149 -3.3149 0.0284 -0.4027 0.7483 -0.7483 0.78 0.78 -0.7483 0.7483 -0.4028 0.0283 -3.3149 3.315 -0.0283 0.4027 -0.7483 0.7483zm16.1576 -0.7667l-0.7801 0.78 -0.7483 -0.7482 -0.0283 -0.4028 -3.3149 -3.3149 -0.4027 -0.0283 -0.7483 -0.7483 0.78 -0.7801 0.7483 0.7483 0.0283 0.4028 3.3149 3.3149 0.4028 0.0283 0.7483 0.7483zm-1.0942 1.0675l-0.78 0.78 -0.7483 -0.7483 -0.0283 -0.4027 -3.315 -3.3149 -0.4027 -0.0284 -0.7483 -0.7483 0.78 -0.78 0.7483 0.7483 0.0284 0.4027 3.3149 3.315 0.4027 0.0283 0.7483 0.7483zm-1.0808 1.0808l-0.78 0.78 -0.7483 -0.7483 -0.0284 -0.4027 -3.3149 -3.3149 -0.4027 -0.0284 -0.7483 -0.7483 0.78 -0.78 0.7483 0.7483 0.0283 0.4028 3.315 3.3149 0.4027 0.0283 0.7483 0.7483zm-11.8343 -16.1576l-0.78 0.7801 0.7482 0.7483 0.4028 0.0283 3.3149 3.3149 0.0283 0.4027 0.7483 0.7483 0.7801 -0.78 -0.7483 -0.7483 -0.4028 -0.0283 -3.3149 -3.3149 -0.0283 -0.4028 -0.7483 -0.7483zm-1.0675 1.0942l-0.78 0.78 0.7483 0.7483 0.4027 0.0283 3.3149 3.315 0.0284 0.4027 0.7483 0.7483 0.78 -0.78 -0.7483 -0.7483 -0.4027 -0.0284 -3.315 -3.3149 -0.0283 -0.4027 -0.7483 -0.7483zm-1.0808 1.0808l-0.78 0.78 0.7483 0.7483 0.4027 0.0284 3.3149 3.3149 0.0284 0.4027 0.7483 0.7483 0.78 -0.78 -0.7483 -0.7483 -0.4028 -0.0283 -3.3149 -3.315 -0.0283 -0.4027 -0.7483 -0.7483zm7.6821 7.6821l0.78 0.78 -0.78 0.7801 -0.78 -0.7801 0.78 -0.78zm-1.0808 -1.0808l0.78 0.78 -0.78 0.78 -0.78 -0.78 0.78 -0.78zm-1.0808 -1.0808l0.78 0.78 -0.78 0.78 -0.7801 -0.78 0.7801 -0.78zm1.0808 -1.0808l0.78 0.78 -0.78 0.78 -0.78 -0.78 0.78 -0.78zm1.0808 1.0808l0.78 0.78 -0.78 0.78 -0.78 -0.78 0.78 -0.78zm1.0808 1.0808l0.78 0.78 -0.78 0.78 -0.78 -0.78 0.78 -0.78zm1.0808 -1.0808l0.7801 0.78 -0.7801 0.78 -0.78 -0.78 0.78 -0.78zm-1.0808 -1.0808l0.78 0.78 -0.78 0.78 -0.78 -0.78 0.78 -0.78zm-1.0808 -1.0809l0.78 0.7801 -0.78 0.78 -0.78 -0.78 0.78 -0.7801z"/>
   <path id="_250593320" class="fil7" d="M49.9994 9.6666c-0.0325,0.0002 -0.0626,0.0173 -0.0795,0.045 0,0 -0.2974,0.4887 -0.4021,0.6606 -0.1191,-0.1632 -0.4617,-0.6332 -0.4617,-0.6332 -0.0195,-0.0265 -0.0514,-0.0411 -0.0842,-0.0381 -0.0328,0.0029 -0.0616,0.0229 -0.076,0.0524 0,0 -0.2523,0.5211 -0.3407,0.7036 -0.1338,-0.1526 -0.516,-0.5886 -0.516,-0.5886 -0.0217,-0.0247 -0.0548,-0.0362 -0.0871,-0.0304 -0.0325,0.0059 -0.0595,0.0283 -0.0711,0.0591 0,0 -0.2047,0.5416 -0.2763,0.7314 -0.147,-0.1399 -0.5667,-0.5399 -0.5667,-0.5399 -0.0239,-0.0227 -0.0579,-0.0312 -0.0897,-0.0224 -0.0316,0.0087 -0.0565,0.0335 -0.0653,0.0652 0,0 -0.1554,0.5583 -0.2099,0.7537 -0.1587,-0.1262 -0.6124,-0.4867 -0.6124,-0.4867 -0.0259,-0.0204 -0.0604,-0.0259 -0.0913,-0.0143 -0.0308,0.0115 -0.0533,0.0385 -0.0593,0.0708 0,0 -0.1047,0.5704 -0.1413,0.7699 -0.1694,-0.1114 -0.6537,-0.4294 -0.6537,-0.4294 -0.0275,-0.0181 -0.0625,-0.0203 -0.0922,-0.006 -0.0297,0.0142 -0.0496,0.043 -0.0526,0.0757 0,0 -0.053,0.5774 -0.0715,0.7794 -0.1788,-0.0957 -0.6893,-0.3689 -0.6893,-0.3689 -0.0291,-0.0155 -0.0642,-0.0147 -0.0924,0.0022 -0.0282,0.0168 -0.0455,0.0474 -0.0457,0.0802 0,0 -0.001,0.5799 -0.0013,0.7828 -0.1867,-0.0794 -0.7195,-0.3056 -0.7195,-0.3056 -0.0304,-0.0129 -0.0653,-0.0089 -0.0919,0.0104 -0.0244,0.0177 -0.0386,0.046 -0.0386,0.0758 0,0.0027 0.0001,0.0055 0.0004,0.0083 0,0 0.0509,0.5772 0.0688,0.7793 -0.193,-0.0622 -0.7442,-0.2398 -0.7442,-0.2398 -0.0314,-0.0101 -0.0657,-0.0031 -0.0905,0.0186 -0.0205,0.018 -0.032,0.0438 -0.032,0.0706 0,0.0055 0.0005,0.0111 0.0015,0.0166 0,0 0.1023,0.5702 0.1382,0.7699 -0.1979,-0.0448 -0.763,-0.1725 -0.763,-0.1725 -0.0321,-0.0073 -0.0652,0.0031 -0.0884,0.0266 -0.0169,0.0176 -0.026,0.041 -0.026,0.0648 0,0.0083 0.001,0.0166 0.0033,0.0248 0,0 0.153,0.5585 0.2065,0.7541 -0.201,-0.0268 -0.7755,-0.1033 -0.7755,-0.1033 -0.0326,-0.0045 -0.0651,0.0087 -0.0856,0.0344 -0.0135,0.0169 -0.0205,0.0376 -0.0205,0.0585 0,0.011 0.0019,0.022 0.0059,0.0327 0,0 0.2022,0.5424 0.273,0.7324 -0.2027,-0.0087 -0.7817,-0.0338 -0.7817,-0.0338 -0.0329,-0.0014 -0.0642,0.0145 -0.0824,0.042 -0.0102,0.0156 -0.0155,0.0336 -0.0155,0.0517 0,0.0138 0.003,0.0276 0.0092,0.0405 0,0 0.25,0.5223 0.3376,0.7052 -0.2027,0.0095 -0.7818,0.0364 -0.7818,0.0364 -0.033,0.0015 -0.0627,0.0202 -0.0783,0.0492 -0.0074,0.0139 -0.0112,0.0292 -0.0112,0.0445 0,0.0165 0.0045,0.0332 0.0132,0.0479 0,0 0.2959,0.4979 0.3995,0.6723 -0.201,0.0276 -0.7753,0.1063 -0.7753,0.1063 -0.0326,0.0045 -0.0605,0.0257 -0.0735,0.0561 -0.0051,0.0118 -0.0076,0.0243 -0.0076,0.0368 0,0.0194 0.0061,0.0386 0.0179,0.0549 0,0 0.3396,0.4696 0.4585,0.634 -0.1977,0.0455 -0.7625,0.1755 -0.7625,0.1755 -0.0321,0.0074 -0.058,0.0311 -0.0682,0.0624 -0.0031,0.0095 -0.0046,0.0193 -0.0046,0.029 0,0.0223 0.008,0.0442 0.0231,0.0616 0,0 0.3804,0.437 0.5136,0.59 -0.1927,0.063 -0.7416,0.2424 -0.7416,0.2424 -0.0314,0.0102 -0.055,0.0361 -0.0623,0.0683 -0.0016,0.007 -0.0024,0.0139 -0.0024,0.0208 0,0.0254 0.0103,0.0499 0.029,0.0677 0,0 0.4182,0.4 0.5651,0.5405 -0.1869,0.08 -0.7189,0.308 -0.7189,0.308 -0.0303,0.0129 -0.0516,0.0408 -0.056,0.0734 -0.0005,0.0043 -0.0009,0.0085 -0.0009,0.0128 0,0.0281 0.0128,0.0551 0.0351,0.073 0,0 0.4518,0.3623 0.6101,0.4891 -0.1785,0.0965 -0.689,0.3722 -0.689,0.3722 -0.029,0.0156 -0.0476,0.0453 -0.0491,0.0782 -0.0001,0.0015 -0.0001,0.0029 -0.0001,0.0043 0,0.0313 0.0157,0.0607 0.0419,0.078 0,0 0.4824,0.3204 0.6513,0.4326 -0.1691,0.112 -0.6523,0.4319 -0.6523,0.4319 -0.0263,0.0175 -0.042,0.0468 -0.042,0.0782 0,0.0014 0,0.0028 0.0002,0.0041 0.0013,0.0329 0.02,0.0627 0.0489,0.0784 0,0 0.5098,0.2762 0.6882,0.3729 -0.1585,0.1266 -0.6106,0.4881 -0.6106,0.4881 -0.0225,0.0179 -0.0353,0.0449 -0.0353,0.0732 0,0.0041 0.0004,0.0083 0.0009,0.0125 0.0044,0.0326 0.0255,0.0606 0.0557,0.0736 0,0 0.5327,0.2296 0.7189,0.3099 -0.1463,0.1403 -0.5644,0.5411 -0.5644,0.5411 -0.0186,0.018 -0.0288,0.0424 -0.0288,0.0677 0,0.0069 0.0008,0.0139 0.0024,0.0208 0.0073,0.0322 0.0309,0.058 0.0622,0.0683 0,0 0.5511,0.1805 0.7439,0.2436 -0.133,0.1529 -0.5131,0.5895 -0.5131,0.5895 -0.0151,0.0174 -0.023,0.0393 -0.023,0.0616 0,0.0097 0.0015,0.0195 0.0046,0.029 0.0101,0.0313 0.036,0.055 0.068,0.0624 0,0 0.565,0.1303 0.7627,0.1758 -0.119,0.1643 -0.4582,0.6331 -0.4582,0.6331 -0.0119,0.0163 -0.0179,0.0357 -0.0179,0.055 0,0.0125 0.0025,0.025 0.0075,0.0369 0.013,0.0303 0.0409,0.0516 0.0735,0.0561 0,0 0.5741,0.079 0.7751,0.1067 -0.1036,0.1743 -0.3997,0.6718 -0.3997,0.6718 -0.0089,0.0148 -0.0132,0.0314 -0.0132,0.048 0,0.0153 0.0037,0.0305 0.0112,0.0444 0.0156,0.029 0.0453,0.0476 0.0781,0.0493 0,0 0.5789,0.0272 0.7816,0.0368 -0.0877,0.1829 -0.3384,0.7057 -0.3384,0.7057 -0.0062,0.0128 -0.0092,0.0267 -0.0092,0.0405 0,0.018 0.0053,0.036 0.0155,0.0516 0.0182,0.0275 0.0494,0.0434 0.0822,0.042 0,0 0.5785,-0.0249 0.781,-0.0336 -0.0707,0.19 -0.273,0.7328 -0.273,0.7328 -0.004,0.0106 -0.006,0.0217 -0.006,0.0327 0,0.0208 0.007,0.0415 0.0205,0.0585 0.0205,0.0257 0.053,0.0387 0.0856,0.0344 0,0 0.5738,-0.0758 0.7748,-0.1024 -0.0537,0.1955 -0.2072,0.7538 -0.2072,0.7538 -0.0023,0.0082 -0.0034,0.0166 -0.0034,0.0249 0,0.0238 0.0091,0.0471 0.026,0.0647 0.0227,0.0238 0.0563,0.034 0.0884,0.0268 0,0 0.565,-0.1271 0.7628,-0.1717 -0.036,0.1996 -0.1388,0.7703 -0.1388,0.7703 -0.001,0.0055 -0.0015,0.0111 -0.0015,0.0166 0,0.0268 0.0115,0.0525 0.032,0.0705 0.0248,0.0218 0.0591,0.0288 0.0905,0.0188 0,0 0.5514,-0.1775 0.7443,-0.2395 -0.0177,0.202 -0.0687,0.7796 -0.0687,0.7796 -0.0003,0.0027 -0.0004,0.0055 -0.0004,0.0082 0,0.0298 0.0143,0.0582 0.0387,0.0758 0.0266,0.0194 0.0613,0.0234 0.0917,0.0106 0,0 0.5335,-0.2263 0.7201,-0.3056 0.0004,0.2029 0.0014,0.7823 0.0014,0.7823 0.0001,0.0329 0.0175,0.0634 0.0457,0.0803 0.0283,0.0168 0.0634,0.0177 0.0923,0.0022 0,0 0.5112,-0.2739 0.6899,-0.3696 0.0188,0.2017 0.0721,0.7779 0.0721,0.7779 0.003,0.0329 0.0231,0.0616 0.0528,0.0759 0.0296,0.0142 0.0646,0.012 0.0921,-0.0061 0,0 0.4845,-0.3187 0.6542,-0.4302 0.0366,0.1997 0.1409,0.7701 0.1409,0.7701 0.006,0.0324 0.0285,0.0593 0.0594,0.0708 0.0308,0.0116 0.0654,0.0063 0.0911,-0.0143 0,0 0.4539,-0.3603 0.6129,-0.4865 0.0542,0.1956 0.2093,0.7546 0.2093,0.7546 0.0088,0.0317 0.0336,0.0565 0.0654,0.0652 0.0318,0.0088 0.0658,0.0002 0.0896,-0.0224 0,0 0.419,-0.399 0.5657,-0.5387 0.0718,0.1897 0.2773,0.7323 0.2773,0.7323 0.0117,0.0307 0.0386,0.0532 0.071,0.0591 0.0324,0.0058 0.0654,-0.0057 0.0872,-0.0305 0,0 0.3818,-0.4352 0.5156,-0.5879 0.0882,0.1828 0.3403,0.7041 0.3403,0.7041 0.0143,0.0296 0.0431,0.0496 0.076,0.0525 0.0327,0.003 0.0647,-0.0114 0.0841,-0.038 0,0 0.3419,-0.4683 0.4615,-0.6321 0.1043,0.1739 0.4025,0.6707 0.4025,0.6707 0.017,0.0282 0.0474,0.0455 0.0803,0.0455l0 0c0.033,0 0.0635,-0.0172 0.0804,-0.0455 0,0 0.2986,-0.4969 0.4031,-0.6707 0.1195,0.1638 0.4603,0.631 0.4603,0.631 0.0194,0.0266 0.0515,0.0412 0.0842,0.0382 0.0327,-0.003 0.0615,-0.0229 0.076,-0.0525 0,0 0.2528,-0.5216 0.3413,-0.7041 0.1337,0.1524 0.5157,0.5878 0.5157,0.5878 0.0217,0.0247 0.0547,0.0362 0.0872,0.0304 0.0323,-0.0059 0.0592,-0.0283 0.0708,-0.0592 0,0 0.2045,-0.5421 0.2763,-0.7319 0.1468,0.1399 0.5658,0.5388 0.5658,0.5388 0.0237,0.0228 0.0578,0.0313 0.0896,0.0225 0.0317,-0.0088 0.0564,-0.0335 0.0652,-0.0652 0,0 0.1557,-0.5581 0.21,-0.7532 0.1589,0.1258 0.6134,0.4858 0.6134,0.4858 0.0256,0.0203 0.0603,0.0258 0.0911,0.0142 0.0308,-0.0116 0.0534,-0.0384 0.0592,-0.0708 0,0 0.1044,-0.5693 0.1411,-0.7686 0.1696,0.1114 0.6569,0.431 0.6569,0.431 0.0276,0.0182 0.0624,0.0204 0.0921,0.0061 0.0297,-0.0143 0.0498,-0.0431 0.0528,-0.0758 0,0 0.053,-0.5777 0.0715,-0.7797 0.1787,0.0955 0.6885,0.3679 0.6885,0.3679 0.0291,0.0155 0.0642,0.0147 0.0924,-0.0023 0.0283,-0.0169 0.0455,-0.0474 0.0455,-0.0804 0,0 0,-0.5775 0,-0.78 0.1868,0.0789 0.722,0.3043 0.722,0.3043 0.0303,0.0128 0.065,0.0088 0.0915,-0.0106 0.0243,-0.0177 0.0385,-0.046 0.0385,-0.0758 0,-0.0027 0,-0.0055 -0.0002,-0.0082 0,0 -0.0508,-0.577 -0.0687,-0.7791 0.1931,0.0623 0.745,0.2406 0.745,0.2406 0.0314,0.0102 0.0657,0.003 0.0906,-0.0186 0.0205,-0.018 0.0319,-0.0438 0.0319,-0.0706 0,-0.0055 -0.0005,-0.0111 -0.0015,-0.0167 0,0 -0.1003,-0.5564 -0.1376,-0.763 0.2086,0.0578 0.8249,0.2286 0.8249,0.2286 0.0331,0.0092 0.0689,-0.0005 0.0928,-0.0255 0.0168,-0.0178 0.0258,-0.041 0.0258,-0.0649 0,-0.0096 -0.0015,-0.0195 -0.0045,-0.029 0,0 -0.1983,-0.6081 -0.2653,-0.8137 0.2078,0.0277 0.7679,0.1026 0.7679,0.1026 0.0327,0.0044 0.0652,-0.0087 0.0857,-0.0345 0.0135,-0.0169 0.0204,-0.0375 0.0204,-0.0584 0,-0.011 -0.0019,-0.0221 -0.0058,-0.0328 0,0 -0.2022,-0.5421 -0.273,-0.7323 0.203,0.009 0.7837,0.035 0.7837,0.035 0.033,0.0015 0.0642,-0.0145 0.0823,-0.042 0.0103,-0.0157 0.0155,-0.0337 0.0155,-0.0517 0,-0.0139 -0.003,-0.0277 -0.0093,-0.0406 0,0 -0.2519,-0.5247 -0.34,-0.7079 0.2029,-0.0095 0.7819,-0.0369 0.7819,-0.0369 0.0327,-0.0016 0.0624,-0.0203 0.0781,-0.0493 0.0074,-0.0139 0.011,-0.0291 0.011,-0.0444 0,-0.0166 -0.0043,-0.0332 -0.0131,-0.048 0,0 -0.2965,-0.4972 -0.4003,-0.6714 0.2009,-0.0278 0.7745,-0.1073 0.7745,-0.1073 0.0325,-0.0045 0.0603,-0.0258 0.0732,-0.056 0.0052,-0.0119 0.0076,-0.0244 0.0076,-0.0369 0,-0.0194 -0.0061,-0.0388 -0.0177,-0.055 0,0 -0.3398,-0.4694 -0.4587,-0.6337 0.1975,-0.0456 0.762,-0.1763 0.762,-0.1763 0.0322,-0.0073 0.058,-0.031 0.0681,-0.0623 0.003,-0.0094 0.0045,-0.0192 0.0045,-0.0289 0,-0.0223 -0.0079,-0.0443 -0.0228,-0.0615 0,0 -0.3798,-0.4368 -0.5129,-0.5898 0.1927,-0.063 0.7428,-0.2431 0.7428,-0.2431 0.0313,-0.0104 0.0548,-0.0362 0.0621,-0.0683 0.0017,-0.007 0.0024,-0.014 0.0024,-0.0209 0,-0.0252 -0.0102,-0.0497 -0.0287,-0.0676 0,0 -0.4175,-0.4008 -0.5639,-0.5413 0.1864,-0.0801 0.7196,-0.309 0.7196,-0.309 0.0301,-0.013 0.0515,-0.0409 0.0557,-0.0735 0.0007,-0.0043 0.0009,-0.0084 0.0009,-0.0126 0,-0.0282 -0.0127,-0.0553 -0.0351,-0.0732 0,0 -0.452,-0.3618 -0.6104,-0.4885 0.1787,-0.0965 0.6886,-0.3718 0.6886,-0.3718 0.0288,-0.0157 0.0476,-0.0453 0.0491,-0.0782 0,-0.0015 0,-0.0029 0,-0.0043 0,-0.0313 -0.0155,-0.0607 -0.0418,-0.078 0,0 -0.4832,-0.3209 -0.652,-0.4331 0.169,-0.1121 0.6527,-0.4326 0.6527,-0.4326 0.0262,-0.0174 0.0417,-0.0468 0.0417,-0.0781 0,-0.0014 0,-0.0028 0,-0.0042 -0.0015,-0.033 -0.02,-0.0627 -0.0491,-0.0783 0,0 -0.509,-0.2749 -0.6873,-0.3714 0.1583,-0.1268 0.6107,-0.4893 0.6107,-0.4893 0.0223,-0.018 0.0351,-0.045 0.0351,-0.0732 0,-0.0042 -0.0003,-0.0084 -0.0009,-0.0126 -0.0043,-0.0326 -0.0256,-0.0605 -0.0557,-0.0735 0,0 -0.5309,-0.228 -0.7182,-0.3085 0.1475,-0.1399 0.5629,-0.5334 0.5629,-0.5334 0.0189,-0.0178 0.0293,-0.0426 0.0293,-0.068 0,-0.0068 -0.0007,-0.0138 -0.0024,-0.0208 -0.0073,-0.0323 -0.0312,-0.0583 -0.0626,-0.0684 0,0 -0.547,-0.1751 -0.741,-0.2372 0.1342,-0.1536 0.5136,-0.5884 0.5136,-0.5884 0.015,-0.0173 0.023,-0.0392 0.023,-0.0617 0,-0.0096 -0.0015,-0.0193 -0.0045,-0.0288 -0.0101,-0.0313 -0.036,-0.055 -0.0678,-0.0624 0,0 -0.564,-0.1311 -0.7612,-0.177 0.1191,-0.1642 0.4595,-0.6337 0.4595,-0.6337 0.0119,-0.0162 0.0179,-0.0356 0.0179,-0.055 0,-0.0125 -0.0024,-0.025 -0.0074,-0.0367 -0.0129,-0.0304 -0.0408,-0.0517 -0.0734,-0.0562 0,0 -0.5731,-0.0793 -0.7741,-0.1072 0.104,-0.1743 0.4014,-0.6721 0.4014,-0.6721 0.0088,-0.0148 0.0131,-0.0314 0.0131,-0.0481 0,-0.0152 -0.0036,-0.0304 -0.011,-0.0443 -0.0155,-0.029 -0.0451,-0.0478 -0.0781,-0.0493 0,0 -0.5794,-0.0283 -0.782,-0.0382 0.0878,-0.1828 0.3389,-0.7056 0.3389,-0.7056 0.0062,-0.0128 0.0092,-0.0267 0.0092,-0.0405 0,-0.0182 -0.0051,-0.036 -0.0153,-0.0516 -0.0183,-0.0276 -0.0495,-0.0435 -0.0822,-0.0421 0,0 -0.579,0.0244 -0.7818,0.033 0.0712,-0.1901 0.2745,-0.7325 0.2745,-0.7325 0.0039,-0.0107 0.0058,-0.0218 0.0058,-0.0329 0,-0.0209 -0.0069,-0.0416 -0.0202,-0.0584 -0.0207,-0.0258 -0.0532,-0.0389 -0.0857,-0.0345 0,0 -0.5751,0.0762 -0.7764,0.1028 0.0538,-0.1957 0.2075,-0.7538 0.2075,-0.7538 0.0022,-0.0082 0.0032,-0.0166 0.0032,-0.0249 0,-0.0238 -0.009,-0.0471 -0.0258,-0.0647 -0.0228,-0.0238 -0.0562,-0.0341 -0.0885,-0.0268 0,0 -0.5656,0.1274 -0.7635,0.172 0.0359,-0.1997 0.1391,-0.7695 0.1391,-0.7695 0.001,-0.0056 0.0015,-0.0111 0.0015,-0.0167 0,-0.0267 -0.0114,-0.0526 -0.0318,-0.0705 -0.0249,-0.0217 -0.0593,-0.0289 -0.0905,-0.0188 0,0 -0.5521,0.1774 -0.7452,0.2394 0.0178,-0.2019 0.0693,-0.7783 0.0693,-0.7783 0.0002,-0.0028 0.0002,-0.0055 0.0002,-0.0083 0,-0.0298 -0.0142,-0.058 -0.0385,-0.0758 -0.0265,-0.0194 -0.0614,-0.0233 -0.0917,-0.0105 0,0 -0.5336,0.2259 -0.7205,0.305 0,-0.2029 -0.0002,-0.7825 -0.0002,-0.7825 0,-0.033 -0.0173,-0.0634 -0.0454,-0.0805 -0.0282,-0.0168 -0.0634,-0.0177 -0.0924,-0.0022 0,0 -0.511,0.2727 -0.6901,0.3682 -0.0181,-0.202 -0.0702,-0.7788 -0.0702,-0.7788 -0.003,-0.0328 -0.023,-0.0617 -0.0525,-0.076 -0.0298,-0.0143 -0.0647,-0.0121 -0.0922,0.0059 0,0 -0.4847,0.3172 -0.6543,0.4282 -0.0365,-0.1996 -0.1402,-0.7701 -0.1402,-0.7701 -0.0058,-0.0324 -0.0282,-0.0593 -0.059,-0.071 -0.031,-0.0116 -0.0657,-0.0062 -0.0913,0.0142 0,0 -0.4539,0.3595 -0.6128,0.4855 -0.054,-0.1956 -0.2084,-0.7547 -0.2084,-0.7547 -0.0089,-0.0318 -0.0336,-0.0565 -0.0653,-0.0653 -0.0318,-0.0089 -0.0661,-0.0002 -0.0898,0.0222 0,0 -0.4203,0.3993 -0.5675,0.5389 -0.0714,-0.19 -0.2754,-0.7329 -0.2754,-0.7329 -0.0116,-0.0307 -0.0386,-0.0532 -0.0711,-0.0592 -0.0323,-0.0059 -0.0655,0.0056 -0.0872,0.0304 0,0 -0.3827,0.4348 -0.5165,0.5871 -0.0881,-0.1827 -0.34,-0.7046 -0.34,-0.7046 -0.0143,-0.0297 -0.0431,-0.0496 -0.076,-0.0526 -0.0328,-0.003 -0.0647,0.0114 -0.0842,0.038 0,0 -0.3454,0.4728 -0.4634,0.6342 -0.1062,-0.1689 -0.4161,-0.6618 -0.4161,-0.6618 -0.0172,-0.0274 -0.0476,-0.044 -0.08,-0.0438zm-0.4707 0.9679c0.0314,-0.0012 0.0599,-0.0182 0.0762,-0.0448 0,0 0.2867,-0.471 0.3964,-0.6512 0.1125,0.179 0.409,0.6505 0.409,0.6505 0.0165,0.0263 0.0451,0.0427 0.0761,0.0437 0.031,0.0011 0.0605,-0.0132 0.079,-0.0383 0,0 0.3254,-0.4454 0.4527,-0.6196 0.0938,0.1944 0.3335,0.6912 0.3335,0.6912 0.0136,0.0283 0.0405,0.0479 0.0717,0.0522 0.0312,0.0042 0.0622,-0.0074 0.0831,-0.031 0,0 0.3644,-0.4142 0.5069,-0.5761 0.0758,0.202 0.2702,0.7191 0.2702,0.7191 0.0112,0.0294 0.0362,0.0512 0.0668,0.0583 0.0308,0.007 0.0633,-0.0015 0.0856,-0.0233 0,0 0.4003,-0.38 0.5567,-0.5287 0.0574,0.208 0.2045,0.7405 0.2045,0.7405 0.0084,0.0303 0.0314,0.0544 0.0613,0.0642 0.03,0.0098 0.0625,0.0039 0.0873,-0.0156 0,0 0.4321,-0.3424 0.6011,-0.4763 0.0388,0.2123 0.1376,0.7554 0.1376,0.7554 0.0056,0.0308 0.0263,0.0569 0.0552,0.0693 0.0288,0.0123 0.062,0.0095 0.0882,-0.0077 0,0 0.4616,-0.302 0.6421,-0.42 0.0194,0.2147 0.0689,0.7642 0.0689,0.7642 0.0028,0.0313 0.0213,0.0591 0.0489,0.0741 0.0277,0.0149 0.0609,0.0151 0.0887,0.0002 0,0 0.4866,-0.2596 0.677,-0.3612 0,0.2157 0.0002,0.7677 0.0002,0.7677 0,0.0315 0.0157,0.0609 0.042,0.0782 0.026,0.0173 0.0592,0.0205 0.0882,0.0082 0,0 0.5084,-0.2154 0.707,-0.2994 -0.0192,0.2147 -0.0681,0.7636 -0.0681,0.7636 -0.0003,0.0028 -0.0003,0.0055 -0.0003,0.0083 0,0.0283 0.0128,0.0553 0.0352,0.0732 0.0245,0.0196 0.0572,0.0256 0.0872,0.016 0,0 0.5256,-0.1688 0.731,-0.2347 -0.0384,0.2121 -0.1365,0.755 -0.1365,0.755 -0.0011,0.0055 -0.0015,0.0111 -0.0015,0.0166 0,0.0254 0.0101,0.0499 0.0288,0.0677 0.0226,0.0218 0.0547,0.0307 0.0855,0.0238 0,0 0.5387,-0.1213 0.7493,-0.1688 -0.0573,0.208 -0.2037,0.7397 -0.2037,0.7397 -0.0021,0.0081 -0.0032,0.0165 -0.0032,0.0248 0,0.0224 0.0079,0.0443 0.023,0.0616 0.0207,0.0237 0.0517,0.0356 0.0829,0.0313 0,0 0.5478,-0.0726 0.7618,-0.1009 -0.0758,0.2022 -0.2693,0.7188 -0.2693,0.7188 -0.0039,0.0107 -0.0058,0.0217 -0.0058,0.0328 0,0.0195 0.006,0.0388 0.0176,0.0551 0.0185,0.0255 0.0484,0.0399 0.0799,0.0386 0,0 0.5514,-0.0233 0.767,-0.0324 -0.0935,0.1945 -0.3325,0.6921 -0.3325,0.6921 -0.0063,0.0128 -0.0093,0.0267 -0.0093,0.0406 0,0.0167 0.0043,0.0332 0.0131,0.048 0.0162,0.0269 0.0447,0.0442 0.076,0.0457 0,0 0.5519,0.0269 0.7672,0.0374 -0.1104,0.1852 -0.3938,0.6596 -0.3938,0.6596 -0.0088,0.0147 -0.0131,0.0313 -0.0131,0.048 0,0.0139 0.003,0.0277 0.0091,0.0405 0.0137,0.0284 0.0406,0.0481 0.0716,0.0524 0,0 0.5459,0.0756 0.7595,0.1051 -0.1266,0.1747 -0.4507,0.6216 -0.4507,0.6216 -0.0118,0.0163 -0.0179,0.0355 -0.0179,0.055 0,0.0111 0.002,0.0222 0.0058,0.0328 0.011,0.0294 0.036,0.0514 0.0666,0.0585 0,0 0.537,0.1249 0.7467,0.1736 -0.1416,0.1625 -0.5045,0.5783 -0.5045,0.5783 -0.015,0.0173 -0.023,0.0393 -0.023,0.0617 0,0.0084 0.001,0.0169 0.0034,0.0252 0.0085,0.0303 0.0317,0.0545 0.0616,0.064 0,0 0.5187,0.166 0.7256,0.2323 -0.1576,0.1493 -0.5512,0.5223 -0.5512,0.5223 -0.0189,0.0179 -0.0293,0.0426 -0.0293,0.0681 0,0.0055 0.0004,0.011 0.0013,0.0164 0.0056,0.031 0.0265,0.0573 0.0554,0.0697 0,0 0.5072,0.2179 0.7056,0.303 -0.1684,0.1348 -0.5993,0.4801 -0.5993,0.4801 -0.0224,0.0179 -0.0351,0.0449 -0.0351,0.0732 0,0.0028 0,0.0056 0.0002,0.0084 0.0028,0.0313 0.0213,0.0591 0.0489,0.0741 0,0 0.4845,0.2618 0.6742,0.3643 -0.1798,0.1191 -0.6401,0.4243 -0.6401,0.4243 -0.0261,0.0173 -0.0418,0.0467 -0.0418,0.0781l0 0c0,0.0315 0.0157,0.0607 0.0418,0.0781 0,0 0.4598,0.3055 0.6397,0.4248 -0.1897,0.1025 -0.6757,0.3648 -0.6757,0.3648 -0.0276,0.015 -0.0461,0.0428 -0.0489,0.0742 -0.0002,0.0027 -0.0002,0.0055 -0.0002,0.0083 0,0.0283 0.0127,0.0553 0.0351,0.0732 0,0 0.4304,0.3445 0.5988,0.4793 -0.1983,0.0852 -0.7058,0.3031 -0.7058,0.3031 -0.0288,0.0124 -0.0495,0.0384 -0.0552,0.0693 -0.001,0.0056 -0.0015,0.0112 -0.0015,0.0168 0,0.0253 0.0102,0.0498 0.0287,0.0676 0,0 0.3977,0.3819 0.5532,0.5312 -0.2049,0.0671 -0.7287,0.2386 -0.7287,0.2386 -0.0297,0.0098 -0.0527,0.0339 -0.0612,0.0642 -0.0021,0.0082 -0.0032,0.0167 -0.0032,0.0249 0,0.0223 0.008,0.0443 0.0229,0.0615 0,0 0.3619,0.4161 0.5032,0.5787 -0.21,0.0485 -0.7479,0.1729 -0.7479,0.1729 -0.0305,0.007 -0.0557,0.0289 -0.0667,0.0584 -0.0039,0.0107 -0.0058,0.0218 -0.0058,0.0329 0,0.0195 0.006,0.0387 0.0177,0.055 0,0 0.3235,0.4471 0.45,0.6217 -0.2134,0.0296 -0.7599,0.1053 -0.7599,0.1053 -0.031,0.0044 -0.0579,0.024 -0.0715,0.0523 -0.0063,0.0128 -0.0093,0.0268 -0.0093,0.0406 0,0.0167 0.0044,0.0333 0.0132,0.048 0,0 0.282,0.4734 0.3925,0.6587 -0.2155,0.0101 -0.767,0.0361 -0.767,0.0361 -0.0312,0.0016 -0.0598,0.0187 -0.076,0.0457 -0.0088,0.0148 -0.0131,0.0313 -0.0131,0.048 0,0.0139 0.003,0.0278 0.0093,0.0406 0,0 0.2396,0.4991 0.3333,0.6942 -0.216,-0.0097 -0.7687,-0.0343 -0.7687,-0.0343 -0.0315,-0.0014 -0.0614,0.013 -0.0799,0.0384 -0.0118,0.0164 -0.0179,0.0356 -0.0179,0.0553 0,0.011 0.002,0.0221 0.0058,0.0326 0,0 0.1927,0.5168 0.2681,0.7189 -0.2138,-0.0285 -0.7609,-0.1016 -0.7609,-0.1016 -0.0321,-0.0043 -0.064,0.0082 -0.0847,0.0329 -0.0141,0.0172 -0.0215,0.0383 -0.0215,0.06 0,0.0098 0.0015,0.0196 0.0045,0.029 0,0 0.1835,0.5627 0.2576,0.7894 -0.23,-0.0637 -0.8004,-0.2217 -0.8004,-0.2217 -0.031,-0.0087 -0.0642,-0.0009 -0.088,0.021 -0.0198,0.0179 -0.0306,0.0431 -0.0306,0.0693 0,0.0055 0.0004,0.011 0.0015,0.0167 0,0 0.0979,0.5433 0.1363,0.7558 -0.2056,-0.0664 -0.7308,-0.2361 -0.7308,-0.2361 -0.0299,-0.0096 -0.0626,-0.0036 -0.0872,0.0159 -0.0226,0.0179 -0.0353,0.0449 -0.0353,0.0734 0,0.0026 0,0.0055 0.0002,0.0081 0,0 0.0484,0.5506 0.0674,0.7651 -0.1985,-0.0837 -0.7086,-0.2987 -0.7086,-0.2987 -0.0289,-0.0122 -0.062,-0.009 -0.0883,0.0082 -0.0261,0.0174 -0.0418,0.0468 -0.0418,0.0782 0,0 0,0.5492 0,0.7649 -0.1903,-0.1017 -0.6754,-0.3608 -0.6754,-0.3608 -0.0278,-0.0149 -0.0609,-0.0147 -0.0887,0.0001 -0.0276,0.015 -0.0459,0.0428 -0.0489,0.074 0,0 -0.0504,0.5501 -0.07,0.7648 -0.1806,-0.1184 -0.6446,-0.4229 -0.6446,-0.4229 -0.0263,-0.0172 -0.0595,-0.0201 -0.0884,-0.0079 -0.0288,0.0124 -0.0496,0.0385 -0.0553,0.0694 0,0 -0.0995,0.5423 -0.1384,0.7541 -0.1688,-0.1338 -0.6016,-0.4766 -0.6016,-0.4766 -0.0245,-0.0194 -0.0573,-0.0252 -0.0872,-0.0155 -0.0297,0.0096 -0.0528,0.0336 -0.0611,0.0639 0,0 -0.1482,0.5312 -0.2061,0.7389 -0.1561,-0.1487 -0.5553,-0.5289 -0.5553,-0.5289 -0.0226,-0.0216 -0.055,-0.0304 -0.0855,-0.0234 -0.0306,0.007 -0.0558,0.0288 -0.0668,0.0583 0,0 -0.1948,0.5162 -0.2708,0.7181 -0.1424,-0.1621 -0.506,-0.5765 -0.506,-0.5765 -0.0207,-0.0237 -0.0519,-0.0353 -0.0829,-0.0311 -0.0313,0.0042 -0.0581,0.0238 -0.072,0.052 0,0 -0.2406,0.4967 -0.3348,0.6907 -0.1268,-0.1741 -0.4515,-0.619 -0.4515,-0.619 -0.0185,-0.0254 -0.0487,-0.0399 -0.0798,-0.0385 -0.0315,0.0015 -0.0602,0.0185 -0.0763,0.0453 0,0 -0.2844,0.4733 -0.3956,0.6582 -0.1108,-0.1849 -0.3947,-0.658 -0.3947,-0.658 -0.0163,-0.027 -0.0448,-0.044 -0.0763,-0.0455 -0.0313,-0.0014 -0.0613,0.0131 -0.0798,0.0383 0,0 -0.3256,0.4458 -0.4529,0.6202 -0.0937,-0.1942 -0.3338,-0.6909 -0.3338,-0.6909 -0.0137,-0.0283 -0.0407,-0.0479 -0.0718,-0.0521 -0.0311,-0.0042 -0.0624,0.0075 -0.0831,0.0311 0,0 -0.3639,0.4149 -0.506,0.577 -0.0764,-0.2016 -0.2721,-0.7185 -0.2721,-0.7185 -0.0111,-0.0293 -0.0362,-0.0512 -0.0668,-0.0582 -0.0306,-0.007 -0.0629,0.0019 -0.0854,0.0235 0,0 -0.3987,0.3796 -0.5549,0.5282 -0.0577,-0.2079 -0.2054,-0.7402 -0.2054,-0.7402 -0.0084,-0.0303 -0.0315,-0.0544 -0.0613,-0.0641 -0.0299,-0.0097 -0.0625,-0.0038 -0.0873,0.0158 0,0 -0.4322,0.3431 -0.6012,0.4774 -0.0389,-0.2124 -0.1383,-0.7557 -0.1383,-0.7557 -0.0057,-0.0309 -0.0265,-0.057 -0.0554,-0.0693 -0.0289,-0.0124 -0.062,-0.0094 -0.0883,0.0078 0,0 -0.4619,0.3037 -0.6421,0.4222 -0.0198,-0.2146 -0.0707,-0.7633 -0.0707,-0.7633 -0.0029,-0.0313 -0.0213,-0.0591 -0.049,-0.0739 -0.0277,-0.0149 -0.0609,-0.0149 -0.0886,-0.0002 0,0 -0.4865,0.2607 -0.6768,0.3627 -0.0003,-0.2158 -0.0012,-0.7673 -0.0012,-0.7673 -0.0001,-0.0314 -0.0159,-0.0607 -0.0421,-0.078 -0.0262,-0.0173 -0.0594,-0.0204 -0.0883,-0.0082 0,0 -0.5082,0.2156 -0.7066,0.2998 0.019,-0.2148 0.0674,-0.7648 0.0674,-0.7648 0.0003,-0.0028 0.0005,-0.0057 0.0005,-0.0083 0,-0.0284 -0.013,-0.0554 -0.0354,-0.0734 -0.0245,-0.0195 -0.0573,-0.0255 -0.0872,-0.0159 0,0 -0.5249,0.1689 -0.7303,0.2349 0.0383,-0.2123 0.1362,-0.7558 0.1362,-0.7558 0.001,-0.0054 0.0016,-0.011 0.0016,-0.0165 0,-0.0253 -0.0104,-0.0498 -0.029,-0.0677 -0.0226,-0.0218 -0.0547,-0.0307 -0.0854,-0.0238 0,0 -0.5379,0.1211 -0.7483,0.1685 0.0571,-0.2079 0.2034,-0.7395 0.2034,-0.7395 0.0022,-0.0082 0.0033,-0.0167 0.0033,-0.0249 0,-0.0224 -0.0081,-0.0444 -0.0231,-0.0616 -0.0206,-0.0237 -0.0518,-0.0355 -0.083,-0.0313 0,0 -0.5468,0.0722 -0.7603,0.1004 0.0751,-0.2018 0.2679,-0.7191 0.2679,-0.7191 0.004,-0.0107 0.0059,-0.0218 0.0059,-0.0328 0,-0.0195 -0.0061,-0.0389 -0.018,-0.0551 -0.0183,-0.0254 -0.0484,-0.0399 -0.0797,-0.0386 0,0 -0.5506,0.0237 -0.7661,0.0331 0.0932,-0.1946 0.3319,-0.6923 0.3319,-0.6923 0.0061,-0.0128 0.0092,-0.0266 0.0092,-0.0405 0,-0.0167 -0.0043,-0.0333 -0.0132,-0.048 -0.0161,-0.0271 -0.0447,-0.0442 -0.0761,-0.0457 0,0 -0.5514,-0.0259 -0.7668,-0.0362 0.1102,-0.1852 0.3921,-0.6592 0.3921,-0.6592 0.0089,-0.0146 0.0133,-0.0313 0.0133,-0.0479 0,-0.0138 -0.0031,-0.0278 -0.0093,-0.0406 -0.0136,-0.0284 -0.0406,-0.048 -0.0717,-0.0523 0,0 -0.5468,-0.0752 -0.7605,-0.1046 0.1264,-0.1746 0.4495,-0.6211 0.4495,-0.6211 0.0117,-0.0163 0.0179,-0.0355 0.0179,-0.055 0,-0.0111 -0.002,-0.0223 -0.006,-0.033 -0.011,-0.0294 -0.0362,-0.0513 -0.0667,-0.0584 0,0 -0.5381,-0.124 -0.7482,-0.1726 0.1416,-0.1625 0.5034,-0.5784 0.5034,-0.5784 0.015,-0.0173 0.023,-0.0391 0.023,-0.0615 0,-0.0083 -0.001,-0.0167 -0.0034,-0.025 -0.0083,-0.0303 -0.0314,-0.0544 -0.0612,-0.0641 0,0 -0.5247,-0.1718 -0.7298,-0.239 0.1557,-0.1492 0.5536,-0.5307 0.5536,-0.5307 0.0186,-0.0179 0.0288,-0.0425 0.0288,-0.0677 0,-0.0055 -0.0005,-0.0111 -0.0015,-0.0167 -0.0056,-0.0309 -0.0262,-0.057 -0.0551,-0.0694 0,0 -0.5072,-0.2186 -0.7052,-0.304 0.1684,-0.1347 0.5991,-0.479 0.5991,-0.479 0.0222,-0.0179 0.0352,-0.0449 0.0352,-0.0732 0,-0.0028 -0.0002,-0.0055 -0.0005,-0.0083 -0.0028,-0.0313 -0.021,-0.059 -0.0487,-0.0742 0,0 -0.4855,-0.2631 -0.6751,-0.3659 0.1798,-0.1189 0.6401,-0.4238 0.6401,-0.4238 0.0261,-0.0173 0.042,-0.0465 0.042,-0.078 0,-0.0001 0,-0.0001 0,-0.0001 0,-0.0314 -0.0158,-0.0607 -0.0419,-0.078 0,0 -0.4595,-0.3052 -0.6391,-0.4244 0.1898,-0.1025 0.676,-0.3652 0.676,-0.3652 0.0277,-0.015 0.046,-0.0428 0.0488,-0.0741 0.0003,-0.0028 0.0004,-0.0056 0.0004,-0.0084 0,-0.0283 -0.0128,-0.0552 -0.0351,-0.0731 0,0 -0.4301,-0.3448 -0.5985,-0.4797 0.1984,-0.0851 0.7058,-0.3024 0.7058,-0.3024 0.0289,-0.0124 0.0497,-0.0384 0.0553,-0.0695 0.001,-0.0054 0.0015,-0.0111 0.0015,-0.0167 0,-0.0252 -0.0103,-0.0499 -0.029,-0.0677 0,0 -0.3983,-0.3808 -0.5544,-0.5302 0.2052,-0.0671 0.7272,-0.2376 0.7272,-0.2376 0.0299,-0.0098 0.053,-0.0339 0.0613,-0.0642 0.0024,-0.0082 0.0034,-0.0167 0.0034,-0.025 0,-0.0223 -0.008,-0.0442 -0.023,-0.0615 0,0 -0.3624,-0.4162 -0.504,-0.579 0.2102,-0.0483 0.7479,-0.1722 0.7479,-0.1722 0.0307,-0.0071 0.0558,-0.029 0.0668,-0.0584 0.0041,-0.0107 0.006,-0.0219 0.006,-0.0329 0,-0.0195 -0.006,-0.0388 -0.0177,-0.055 0,0 -0.3235,-0.4472 -0.4498,-0.6219 0.2136,-0.0294 0.7606,-0.1043 0.7606,-0.1043 0.0312,-0.0043 0.0581,-0.024 0.0717,-0.0523 0.0062,-0.0128 0.0093,-0.0268 0.0093,-0.0407 0,-0.0165 -0.0044,-0.0331 -0.0131,-0.0478 0,0 -0.2819,-0.4743 -0.392,-0.6597 0.2155,-0.01 0.767,-0.0356 0.767,-0.0356 0.0314,-0.0015 0.06,-0.0185 0.0761,-0.0455 0.0088,-0.0148 0.0134,-0.0315 0.0134,-0.0482 0,-0.0138 -0.0032,-0.0277 -0.0092,-0.0405 0,0 -0.2382,-0.4975 -0.3312,-0.6919 0.2155,0.0092 0.767,0.0332 0.767,0.0332 0.0314,0.0014 0.0615,-0.0131 0.0799,-0.0386 0.0118,-0.0162 0.018,-0.0356 0.018,-0.0551 0,-0.0109 -0.002,-0.0221 -0.006,-0.0327 0,0 -0.1925,-0.5167 -0.2678,-0.7186 0.2137,0.0285 0.7608,0.1014 0.7608,0.1014 0.0311,0.0041 0.0623,-0.0075 0.083,-0.0312 0.0151,-0.0174 0.0231,-0.0393 0.0231,-0.0617 0,-0.0083 -0.001,-0.0166 -0.0033,-0.0248 0,0 -0.1457,-0.532 -0.2026,-0.74 0.2104,0.0477 0.7486,0.1693 0.7486,0.1693 0.0307,0.007 0.063,-0.0017 0.0855,-0.0237 0.0186,-0.0178 0.0289,-0.0423 0.0289,-0.0677 0,-0.0055 -0.0006,-0.0111 -0.0015,-0.0166 0,0 -0.0976,-0.5431 -0.1357,-0.7553 0.2053,0.0661 0.7303,0.2353 0.7303,0.2353 0.0299,0.0096 0.0628,0.0037 0.0872,-0.0159 0.0224,-0.0179 0.0353,-0.0449 0.0353,-0.0733 0,-0.0027 -0.0001,-0.0055 -0.0004,-0.0083 0,0 -0.0486,-0.5497 -0.0675,-0.7646 0.1985,0.0843 0.7058,0.3 0.7058,0.3 0.0289,0.0122 0.0622,0.0092 0.0884,-0.0082 0.0262,-0.0173 0.042,-0.0466 0.0421,-0.078 0,0 0.0009,-0.5523 0.0014,-0.768 0.1901,0.1018 0.6763,0.362 0.6763,0.362 0.0277,0.0148 0.0611,0.0148 0.0887,-0.0001 0.0277,-0.0149 0.046,-0.0427 0.0489,-0.0739 0,0 0.0505,-0.5498 0.0701,-0.7648 0.1803,0.1185 0.6414,0.4213 0.6414,0.4213 0.0263,0.0172 0.0595,0.0203 0.0883,0.0078 0.029,-0.0123 0.0497,-0.0384 0.0553,-0.0693 0,0 0.0997,-0.5429 0.1387,-0.7551 0.1688,0.1341 0.6008,0.4774 0.6008,0.4774 0.0247,0.0195 0.0574,0.0254 0.0874,0.0157 0.0299,-0.0097 0.0529,-0.0337 0.0613,-0.064 0,0 0.148,-0.5317 0.2058,-0.7395 0.1563,0.1488 0.556,0.5297 0.556,0.5297 0.0228,0.0216 0.0549,0.0305 0.0856,0.0235 0.0306,-0.007 0.0556,-0.0289 0.0668,-0.0582 0,0 0.1949,-0.5158 0.2711,-0.7176 0.1422,0.1623 0.5062,0.5775 0.5062,0.5775 0.0208,0.0237 0.052,0.0353 0.0832,0.0311 0.0311,-0.0042 0.058,-0.0238 0.0718,-0.052 0,0 0.2402,-0.4962 0.3342,-0.6903 0.1271,0.1743 0.4525,0.6204 0.4525,0.6204 0.0185,0.0253 0.0484,0.0397 0.0796,0.0384z"/>
   <path id="_250597160" class="fil7" d="M57.6224 14.744l-0.7482 0.7482c-0.0159,0.0161 -0.0256,0.0373 -0.0271,0.0598 0,0 -0.0218,0.3095 -0.0259,0.3677 -0.0484,0.0486 -3.2171,3.217 -3.2655,3.2655 -0.0581,0.004 -0.3678,0.0258 -0.3678,0.0258 -0.0224,0.0016 -0.0437,0.0113 -0.0596,0.0272l-0.7482 0.7483c-0.0183,0.0183 -0.0274,0.0423 -0.0274,0.0663 0,0.024 0.0091,0.048 0.0274,0.0663l0.7798 0.7801c0.0177,0.0175 0.0414,0.0275 0.0664,0.0275l0 0c0.0249,0 0.0486,-0.01 0.0663,-0.0275l0.7482 -0.7482c0.016,-0.0161 0.0256,-0.0372 0.0271,-0.0598 0,0 0.022,-0.3096 0.0261,-0.3678 0.0484,-0.0485 3.2168,-3.217 3.2653,-3.2653 0.0583,-0.0042 0.368,-0.026 0.368,-0.026 0.0223,-0.0016 0.0436,-0.0113 0.0596,-0.0272l0.7482 -0.7483c0.0177,-0.0176 0.0274,-0.0414 0.0274,-0.0663l0 0c0,-0.0249 -0.0097,-0.0486 -0.0274,-0.0663l-0.78 -0.78c-0.0367,-0.0366 -0.0961,-0.0366 -0.1327,0zm0.0663 0.1989c0.1008,0.1007 0.5467,0.5468 0.6475,0.6474 -0.1062,0.1062 -0.6152,0.6152 -0.6572,0.6572 -0.0583,0.0041 -0.3679,0.0259 -0.3679,0.0259 -0.0225,0.0017 -0.0438,0.0113 -0.0597,0.0273l-3.3148 3.3148c-0.016,0.016 -0.0257,0.0371 -0.0272,0.0597 0,0 -0.0219,0.3097 -0.026,0.3679 -0.042,0.0421 -0.551,0.551 -0.6571,0.6571 -0.1008,-0.1006 -0.5467,-0.5468 -0.6473,-0.6474 0.1061,-0.1062 0.6149,-0.6151 0.6571,-0.6572 0.0584,-0.004 0.3678,-0.0258 0.3678,-0.0258 0.0224,-0.0016 0.0437,-0.0113 0.0597,-0.0272l3.315 -3.315c0.0159,-0.016 0.0256,-0.0372 0.0272,-0.0597 0,0 0.0217,-0.3095 0.0258,-0.3678 0.042,-0.0421 0.551,-0.5511 0.6571,-0.6572zm-1.1603 -1.2663l-0.7483 0.7482c-0.0159,0.0161 -0.0256,0.0371 -0.0271,0.0598 0,0 -0.0219,0.3095 -0.0261,0.3677 -0.0484,0.0484 -3.2168,3.217 -3.2653,3.2654 -0.0583,0.0041 -0.3679,0.0259 -0.3679,0.0259 -0.0224,0.0016 -0.0438,0.0113 -0.0597,0.0272l-0.7482 0.7483c-0.0177,0.0177 -0.0274,0.0415 -0.0274,0.0663l0 0c0,0.0249 0.0097,0.0488 0.0274,0.0664l0.7801 0.7799c0.0366,0.0365 0.096,0.0365 0.1326,0l0.7483 -0.7483c0.0159,-0.016 0.0256,-0.0372 0.0271,-0.0597 0,0 0.0217,-0.3095 0.0259,-0.3678 0.0484,-0.0485 3.217,-3.217 3.2655,-3.2654 0.0581,-0.0041 0.3677,-0.0258 0.3677,-0.0258 0.0224,-0.0016 0.0438,-0.0113 0.0596,-0.0273l0.7485 -0.7482c0.0175,-0.0176 0.0273,-0.0415 0.0273,-0.0663l0 0c0,-0.0249 -0.0098,-0.0488 -0.0273,-0.0663l-0.7801 -0.78c-0.0366,-0.0367 -0.0961,-0.0367 -0.1326,0zm0.0663 0.1989c0.1007,0.1007 0.5467,0.5467 0.6474,0.6474 -0.1061,0.1062 -0.6151,0.6152 -0.6573,0.6572 -0.0582,0.004 -0.3678,0.0258 -0.3678,0.0258 -0.0224,0.0016 -0.0437,0.0113 -0.0596,0.0272l-3.3151 3.315c-0.0159,0.016 -0.0256,0.0372 -0.0271,0.0597 0,0 -0.0218,0.3095 -0.0258,0.3678 -0.042,0.042 -0.551,0.5511 -0.6572,0.6572 -0.1008,-0.1006 -0.5467,-0.5467 -0.6474,-0.6474 0.1061,-0.1061 0.6149,-0.6151 0.6571,-0.6572 0.0584,-0.0041 0.368,-0.0258 0.368,-0.0258 0.0224,-0.0017 0.0437,-0.0113 0.0596,-0.0273l3.3149 -3.3149c0.0159,-0.0161 0.0256,-0.0371 0.0271,-0.0598 0,0 0.0219,-0.3095 0.026,-0.3677 0.042,-0.0421 0.551,-0.5511 0.6572,-0.6572zm-1.0809 -1.3073c-0.025,0 -0.0487,0.0099 -0.0664,0.0275l-0.7481 0.7483c-0.016,0.0161 -0.0257,0.0371 -0.0272,0.0597 0,0 -0.022,0.3096 -0.026,0.3678 -0.0485,0.0485 -3.2169,3.217 -3.2653,3.2653 -0.0584,0.0041 -0.3678,0.0259 -0.3678,0.0259 -0.0224,0.0017 -0.0437,0.0114 -0.0597,0.0273l-0.7484 0.7482c-0.0176,0.0176 -0.0275,0.0415 -0.0275,0.0664l0 0c0,0.0248 0.0099,0.0487 0.0275,0.0663l0.7801 0.78c0.0366,0.0366 0.096,0.0366 0.1326,0l0.7483 -0.7483c0.0159,-0.016 0.0256,-0.0371 0.0271,-0.0597 0,0 0.0219,-0.3095 0.0261,-0.3678 0.0484,-0.0484 3.2168,-3.2169 3.2653,-3.2654 0.0583,-0.0041 0.3679,-0.0258 0.3679,-0.0258 0.0224,-0.0017 0.0438,-0.0113 0.0597,-0.0273l0.7482 -0.7482c0.0183,-0.0183 0.0274,-0.0423 0.0274,-0.0663 0,-0.024 -0.0091,-0.048 -0.0274,-0.0664l-0.7801 -0.78c-0.0177,-0.0176 -0.0415,-0.0275 -0.0663,-0.0275zm0 0.2264c0.1008,0.1007 0.5469,0.5468 0.6475,0.6475 -0.1062,0.1061 -0.615,0.615 -0.6572,0.6571 -0.0583,0.0041 -0.368,0.0259 -0.368,0.0259 -0.0223,0.0016 -0.0437,0.0113 -0.0596,0.0272l-3.3149 3.3149c-0.0159,0.0161 -0.0256,0.0372 -0.0271,0.0598 0,0 -0.0219,0.3095 -0.0261,0.3677 -0.0419,0.0422 -0.551,0.5512 -0.6571,0.6573 -0.1007,-0.1008 -0.5468,-0.5467 -0.6474,-0.6474 0.1061,-0.1062 0.6154,-0.6152 0.6573,-0.6572 0.0582,-0.0041 0.3678,-0.026 0.3678,-0.026 0.0224,-0.0015 0.0437,-0.0112 0.0596,-0.0272l3.3148 -3.3148c0.016,-0.016 0.0257,-0.0372 0.0272,-0.0598 0,0 0.022,-0.3095 0.026,-0.3677 0.042,-0.0421 0.551,-0.5512 0.6572,-0.6573zm-6.5917 10.6885c-0.0249,0 -0.0487,0.01 -0.0663,0.0275l-0.7483 0.7483c-0.0159,0.0161 -0.0256,0.0373 -0.0273,0.0598 0,0 -0.0217,0.3095 -0.0258,0.3677 -0.0485,0.0485 -3.217,3.217 -3.2654,3.2655 -0.0583,0.004 -0.3678,0.0258 -0.3678,0.0258 -0.0225,0.0016 -0.0437,0.0113 -0.0597,0.0272l-0.7484 0.7484c-0.0175,0.0176 -0.0274,0.0415 -0.0274,0.0663l0 0c0,0.0248 0.0099,0.0488 0.0274,0.0663l0.7801 0.78c0.0177,0.0175 0.0415,0.0275 0.0664,0.0275 0.0248,0 0.0486,-0.01 0.0663,-0.0275l0.7482 -0.7483c0.0159,-0.0161 0.0256,-0.0372 0.0272,-0.0598 0,0 0.0219,-0.3094 0.026,-0.3676 0.0483,-0.0485 3.2168,-3.217 3.2653,-3.2654 0.0582,-0.0042 0.3678,-0.0259 0.3678,-0.0259 0.0225,-0.0016 0.0437,-0.0113 0.0597,-0.0272l0.7483 -0.7484c0.0183,-0.0183 0.0275,-0.0423 0.0275,-0.0663 0,-0.024 -0.0092,-0.048 -0.0275,-0.0663l-0.78 -0.7801c-0.0176,-0.0175 -0.0414,-0.0275 -0.0663,-0.0275l0 0zm0 0.2265c0.1007,0.1006 0.5467,0.5468 0.6474,0.6474 -0.1061,0.1062 -0.6152,0.6152 -0.6573,0.6573 -0.0582,0.0041 -0.3678,0.0258 -0.3678,0.0258 -0.0225,0.0017 -0.0437,0.0113 -0.0597,0.0273l-3.3148 3.3149c-0.016,0.016 -0.0257,0.0371 -0.0273,0.0598 0,0 -0.0218,0.3093 -0.0259,0.3676 -0.042,0.0421 -0.551,0.5512 -0.6571,0.6572 -0.1007,-0.1006 -0.5469,-0.5466 -0.6475,-0.6473 0.106,-0.1062 0.6151,-0.6152 0.6573,-0.6573 0.0582,-0.004 0.3677,-0.0258 0.3677,-0.0258 0.0225,-0.0016 0.0437,-0.0113 0.0598,-0.0272l3.3149 -3.315c0.0159,-0.016 0.0256,-0.0372 0.0273,-0.0597 0,0 0.0217,-0.3095 0.0258,-0.3678 0.042,-0.0421 0.5511,-0.5512 0.6572,-0.6572zm-1.1339 -1.293l-0.7481 0.7482c-0.016,0.016 -0.0257,0.0373 -0.0273,0.0598 0,0 -0.0217,0.3095 -0.0259,0.3677 -0.0484,0.0485 -3.2169,3.217 -3.2653,3.2655 -0.0583,0.004 -0.3679,0.0258 -0.3679,0.0258 -0.0225,0.0016 -0.0436,0.0113 -0.0597,0.0272l-0.7482 0.7483c-0.0183,0.0183 -0.0274,0.0423 -0.0274,0.0663 0,0.024 0.0091,0.0481 0.0274,0.0664l0.78 0.78c0.0176,0.0175 0.0414,0.0274 0.0663,0.0274 0.0249,0 0.0486,-0.0099 0.0663,-0.0274l0.7483 -0.7484c0.0159,-0.016 0.0255,-0.0372 0.0272,-0.0597 0,0 0.0217,-0.3094 0.0258,-0.3677 0.0485,-0.0484 3.2169,-3.2171 3.2654,-3.2655 0.0583,-0.0041 0.3678,-0.0257 0.3678,-0.0257 0.0225,-0.0017 0.0437,-0.0114 0.0598,-0.0273l0.7482 -0.7483c0.0183,-0.0183 0.0275,-0.0423 0.0275,-0.0663 0,-0.024 -0.0092,-0.048 -0.0275,-0.0663l-0.78 -0.78c-0.0366,-0.0367 -0.096,-0.0367 -0.1327,0zm0.0664 0.1989c0.1006,0.1007 0.5466,0.5467 0.6473,0.6474 -0.106,0.1061 -0.615,0.6152 -0.6571,0.6572 -0.0582,0.0042 -0.3678,0.0258 -0.3678,0.0258 -0.0225,0.0016 -0.0437,0.0113 -0.0598,0.0272l-3.3149 3.315c-0.0159,0.0161 -0.0256,0.0373 -0.0272,0.0598 0,0 -0.0217,0.3094 -0.0259,0.3677 -0.042,0.042 -0.551,0.5512 -0.6571,0.6572 -0.1007,-0.1007 -0.5467,-0.5467 -0.6475,-0.6474 0.1062,-0.1061 0.6152,-0.6151 0.6573,-0.6572 0.0582,-0.0041 0.3678,-0.0258 0.3678,-0.0258 0.0225,-0.0016 0.0437,-0.0113 0.0597,-0.0273l3.315 -3.3149c0.0159,-0.0161 0.0256,-0.0373 0.0272,-0.0598 0,0 0.0217,-0.3095 0.0258,-0.3677 0.0421,-0.0421 0.551,-0.5511 0.6572,-0.6572zm-1.0808 -1.3073c-0.0249,0 -0.0487,0.0099 -0.0663,0.0275l-0.7483 0.7483c-0.0159,0.0161 -0.0256,0.0371 -0.0272,0.0598 0,0 -0.0219,0.3095 -0.0259,0.3677 -0.0484,0.0484 -3.2169,3.217 -3.2654,3.2654 -0.0582,0.0041 -0.3677,0.0259 -0.3677,0.0259 -0.0225,0.0016 -0.0438,0.0113 -0.0598,0.0272l-0.7483 0.7483c-0.0175,0.0176 -0.0275,0.0414 -0.0275,0.0663l0 0c0,0.0248 0.01,0.0487 0.0275,0.0663l0.78 0.7801c0.0175,0.0175 0.0414,0.0274 0.0663,0.0274l0 0c0.0249,0 0.0487,-0.0099 0.0663,-0.0274l0.7484 -0.7484c0.0159,-0.016 0.0256,-0.0372 0.0272,-0.0597 0,0 0.0218,-0.3095 0.0258,-0.3678 0.0485,-0.0484 3.217,-3.217 3.2655,-3.2654 0.0582,-0.0041 0.3677,-0.0258 0.3677,-0.0258 0.0225,-0.0016 0.0437,-0.0113 0.0598,-0.0273l0.7482 -0.7482c0.0183,-0.0183 0.0275,-0.0423 0.0275,-0.0663 0,-0.024 -0.0092,-0.048 -0.0275,-0.0663l-0.78 -0.7801c-0.0177,-0.0176 -0.0414,-0.0275 -0.0663,-0.0275zm0 0.2264c0.1006,0.1007 0.5467,0.5468 0.6474,0.6475 -0.1061,0.1062 -0.6151,0.615 -0.6572,0.6572 -0.0583,0.004 -0.3678,0.0258 -0.3678,0.0258 -0.0225,0.0016 -0.0437,0.0113 -0.0597,0.0272l-3.3149 3.315c-0.016,0.016 -0.0257,0.0372 -0.0273,0.0597 0,0 -0.0217,0.3095 -0.0258,0.3678 -0.0421,0.0421 -0.5511,0.5512 -0.6573,0.6572 -0.1006,-0.1006 -0.5467,-0.5468 -0.6473,-0.6474 0.106,-0.1062 0.6151,-0.6151 0.6572,-0.6572 0.0583,-0.0041 0.3678,-0.0258 0.3678,-0.0258 0.0225,-0.0017 0.0437,-0.0113 0.0597,-0.0273l3.3148 -3.3149c0.016,-0.016 0.0257,-0.0371 0.0273,-0.0598 0,0 0.0219,-0.3095 0.0259,-0.3677 0.042,-0.0421 0.551,-0.5511 0.6572,-0.6573zm6.4525 -0.213c-0.025,0 -0.0487,0.0098 -0.0664,0.0274l-0.7798 0.7801c-0.0183,0.0183 -0.0274,0.0423 -0.0274,0.0663 0,0.024 0.0091,0.048 0.0274,0.0664l0.7482 0.7482c0.0159,0.0159 0.0372,0.0256 0.0596,0.0273 0,0 0.3097,0.0218 0.3678,0.0259 0.0484,0.0483 3.2171,3.2168 3.2655,3.2653 0.0041,0.0582 0.0259,0.3678 0.0259,0.3678 0.0015,0.0225 0.0112,0.0436 0.0271,0.0597l0.7482 0.7483c0.0177,0.0176 0.0414,0.0275 0.0663,0.0275l0 0c0.0248,0 0.0487,-0.0099 0.0664,-0.0275l0.78 -0.78c0.0183,-0.0183 0.0274,-0.0423 0.0274,-0.0663 0,-0.024 -0.0091,-0.048 -0.0274,-0.0663l-0.7482 -0.7483c-0.016,-0.016 -0.0373,-0.0256 -0.0596,-0.0273 0,0 -0.3097,-0.0217 -0.368,-0.0258 -0.0485,-0.0485 -3.2169,-3.217 -3.2653,-3.2654 -0.0041,-0.0583 -0.0261,-0.3678 -0.0261,-0.3678 -0.0015,-0.0226 -0.0111,-0.0437 -0.0271,-0.0597l-0.7482 -0.7484c-0.0177,-0.0176 -0.0416,-0.0274 -0.0663,-0.0274zm0 0.2264c0.1061,0.1061 0.6151,0.6151 0.6571,0.6573 0.0041,0.0582 0.026,0.3677 0.026,0.3677 0.0015,0.0226 0.0112,0.0437 0.0272,0.0598l3.3148 3.3149c0.0159,0.0159 0.0372,0.0256 0.0597,0.0272 0,0 0.3096,0.0218 0.3679,0.0259 0.0423,0.0421 0.551,0.5511 0.6572,0.6572 -0.1006,0.1007 -0.5467,0.5467 -0.6475,0.6474 -0.1061,-0.1061 -0.6151,-0.6152 -0.6571,-0.6573 -0.0041,-0.0582 -0.0258,-0.3677 -0.0258,-0.3677 -0.0016,-0.0225 -0.0113,-0.0438 -0.0272,-0.0598l-3.315 -3.3148c-0.016,-0.016 -0.0373,-0.0257 -0.0597,-0.0273 0,0 -0.3096,-0.0218 -0.3678,-0.0259 -0.0419,-0.042 -0.551,-0.551 -0.6571,-0.6572 0.1006,-0.1006 0.5465,-0.5468 0.6473,-0.6474zm-1.1604 0.8686l-0.7801 0.78c-0.0183,0.0183 -0.0274,0.0423 -0.0274,0.0663 0,0.024 0.0091,0.048 0.0274,0.0663l0.7482 0.7483c0.0159,0.0159 0.0373,0.0256 0.0599,0.0273 0,0 0.3094,0.0216 0.3677,0.0257 0.0485,0.0484 3.2169,3.2171 3.2653,3.2655 0.0042,0.0583 0.0261,0.3677 0.0261,0.3677 0.0015,0.0226 0.0112,0.0437 0.0271,0.0597l0.7483 0.7484c0.0176,0.0175 0.0413,0.0274 0.0663,0.0274l0 0c0.0247,0 0.0487,-0.0099 0.0663,-0.0274l0.7801 -0.78c0.0175,-0.0175 0.0273,-0.0415 0.0273,-0.0664l0 0c0,-0.0248 -0.0096,-0.0486 -0.0273,-0.0663l-0.7485 -0.7483c-0.0158,-0.0159 -0.0372,-0.0256 -0.0596,-0.0272 0,0 -0.3096,-0.0218 -0.3677,-0.0258 -0.0485,-0.0485 -3.2171,-3.2169 -3.2655,-3.2655 -0.0042,-0.0582 -0.0259,-0.3677 -0.0259,-0.3677 -0.0015,-0.0225 -0.0112,-0.0438 -0.0271,-0.0598l-0.7483 -0.7482c-0.0366,-0.0367 -0.096,-0.0367 -0.1326,0zm0.0663 0.1989c0.1062,0.1061 0.6152,0.6151 0.6572,0.6572 0.004,0.0582 0.0258,0.3677 0.0258,0.3677 0.0015,0.0225 0.0112,0.0437 0.0271,0.0598l3.3151 3.3149c0.0159,0.016 0.0372,0.0257 0.0596,0.0273 0,0 0.3096,0.0217 0.3678,0.0258 0.0422,0.0421 0.5512,0.5511 0.6573,0.6572 -0.1007,0.1007 -0.5467,0.5467 -0.6474,0.6475 -0.1062,-0.1061 -0.6152,-0.6153 -0.6572,-0.6573 -0.0041,-0.0583 -0.026,-0.3677 -0.026,-0.3677 -0.0015,-0.0226 -0.0112,-0.0437 -0.0271,-0.0598l-3.3149 -3.315c-0.0159,-0.0159 -0.0372,-0.0256 -0.0598,-0.0272 0,0 -0.3094,-0.0216 -0.3678,-0.0258 -0.0422,-0.042 -0.551,-0.5511 -0.6571,-0.6572 0.1005,-0.1007 0.5466,-0.5467 0.6474,-0.6474zm-1.0809 0.8544c-0.0247,0 -0.0487,0.0099 -0.0663,0.0275l-0.7801 0.78c-0.0176,0.0176 -0.0275,0.0414 -0.0275,0.0663l0 0c0,0.0249 0.0099,0.0486 0.0275,0.0663l0.7484 0.7483c0.016,0.016 0.0373,0.0256 0.0597,0.0273 0,0 0.3094,0.0217 0.3678,0.0258 0.0484,0.0485 3.2168,3.217 3.2653,3.2654 0.004,0.0583 0.026,0.3678 0.026,0.3678 0.0015,0.0226 0.0112,0.0437 0.0272,0.0597l0.7481 0.7483c0.0367,0.0366 0.0961,0.0366 0.1327,0l0.7801 -0.78c0.0183,-0.0183 0.0274,-0.0423 0.0274,-0.0663 0,-0.024 -0.0091,-0.048 -0.0274,-0.0664l-0.7482 -0.7483c-0.0159,-0.0159 -0.0373,-0.0257 -0.0597,-0.0272 0,0 -0.3096,-0.0218 -0.3679,-0.0259 -0.0485,-0.0484 -3.2169,-3.2169 -3.2653,-3.2653 -0.0042,-0.0583 -0.0261,-0.3678 -0.0261,-0.3678 -0.0015,-0.0225 -0.0112,-0.0436 -0.0271,-0.0597l-0.7483 -0.7483c-0.0176,-0.0176 -0.0415,-0.0275 -0.0663,-0.0275l0 0zm0 0.2264c0.1061,0.1061 0.6152,0.6152 0.6571,0.6573 0.0042,0.0582 0.0261,0.3677 0.0261,0.3677 0.0015,0.0226 0.0112,0.0438 0.0271,0.0598l3.3149 3.3148c0.0159,0.016 0.0373,0.0257 0.0596,0.0272 0,0 0.3097,0.0218 0.368,0.0259 0.0422,0.0421 0.551,0.5511 0.6572,0.6573 -0.1006,0.1006 -0.5467,0.5466 -0.6475,0.6474 -0.1062,-0.1061 -0.6152,-0.6151 -0.6572,-0.6573 -0.004,-0.0582 -0.026,-0.3677 -0.026,-0.3677 -0.0015,-0.0226 -0.0112,-0.0437 -0.0272,-0.0598l-3.3148 -3.3149c-0.0159,-0.0159 -0.0372,-0.0256 -0.0596,-0.0272 0,0 -0.3096,-0.0218 -0.3678,-0.0259 -0.0422,-0.0421 -0.5512,-0.5511 -0.6573,-0.6572 0.1006,-0.1007 0.5467,-0.5467 0.6474,-0.6474zm-6.5917 -11.1414c-0.0249,0 -0.0487,0.0098 -0.0664,0.0274l-0.7801 0.7801c-0.0175,0.0177 -0.0274,0.0415 -0.0274,0.0663l0 0c0,0.0249 0.0099,0.0487 0.0274,0.0664l0.7484 0.7482c0.016,0.0159 0.0371,0.0256 0.0597,0.0272 0,0 0.3095,0.0219 0.3678,0.026 0.0484,0.0483 3.2169,3.2168 3.2654,3.2652 0.0041,0.0583 0.0258,0.3679 0.0258,0.3679 0.0017,0.0225 0.0114,0.0436 0.0273,0.0597l0.7483 0.7483c0.0176,0.0176 0.0414,0.0275 0.0663,0.0275 0.0249,0 0.0487,-0.0099 0.0663,-0.0275l0.78 -0.78c0.0176,-0.0177 0.0275,-0.0415 0.0275,-0.0664l0 0c0,-0.0248 -0.0099,-0.0486 -0.0275,-0.0663l-0.7483 -0.7482c-0.016,-0.016 -0.0372,-0.0256 -0.0597,-0.0273 0,0 -0.3096,-0.0218 -0.3678,-0.0259 -0.0485,-0.0484 -3.217,-3.2169 -3.2653,-3.2653 -0.0041,-0.0583 -0.026,-0.3678 -0.026,-0.3678 -0.0016,-0.0226 -0.0113,-0.0437 -0.0272,-0.0597l-0.7482 -0.7484c-0.0177,-0.0176 -0.0415,-0.0274 -0.0663,-0.0274l0 0zm0 0.2263c0.1061,0.1062 0.6151,0.6152 0.6571,0.6574 0.0041,0.0581 0.0259,0.3677 0.0259,0.3677 0.0016,0.0226 0.0113,0.0437 0.0273,0.0598l3.3148 3.3148c0.016,0.0159 0.0372,0.0256 0.0597,0.0272 0,0 0.3096,0.0219 0.3678,0.026 0.0421,0.042 0.5512,0.551 0.6573,0.6571 -0.1007,0.1007 -0.5467,0.5468 -0.6474,0.6475 -0.1061,-0.1061 -0.6152,-0.6152 -0.6572,-0.6573 -0.0041,-0.0582 -0.0258,-0.3678 -0.0258,-0.3678 -0.0017,-0.0225 -0.0114,-0.0437 -0.0273,-0.0597l-3.3149 -3.3148c-0.0161,-0.016 -0.0372,-0.0257 -0.0598,-0.0273 0,0 -0.3095,-0.0218 -0.3677,-0.0259 -0.0422,-0.042 -0.5512,-0.551 -0.6573,-0.6572 0.1006,-0.1006 0.5468,-0.5468 0.6475,-0.6475zm-1.1338 0.8954l-0.78 0.78c-0.0183,0.0183 -0.0274,0.0423 -0.0274,0.0663 0,0.024 0.0091,0.048 0.0274,0.0663l0.7482 0.7482c0.0161,0.016 0.0372,0.0257 0.0597,0.0273 0,0 0.3096,0.0217 0.3679,0.0258 0.0484,0.0484 3.2169,3.217 3.2653,3.2654 0.0042,0.0583 0.0259,0.3678 0.0259,0.3678 0.0016,0.0225 0.0113,0.0437 0.0273,0.0597l0.7481 0.7483c0.0367,0.0365 0.0961,0.0365 0.1327,0l0.78 -0.7799c0.0183,-0.0183 0.0275,-0.0423 0.0275,-0.0664 0,-0.024 -0.0092,-0.048 -0.0275,-0.0663l-0.7482 -0.7483c-0.0161,-0.0159 -0.0373,-0.0256 -0.0598,-0.0272 0,0 -0.3095,-0.0218 -0.3678,-0.0259 -0.0484,-0.0484 -3.2169,-3.217 -3.2654,-3.2654 -0.0041,-0.0582 -0.0258,-0.3677 -0.0258,-0.3677 -0.0017,-0.0225 -0.0113,-0.0437 -0.0272,-0.0598l-0.7483 -0.7482c-0.0366,-0.0367 -0.096,-0.0367 -0.1326,0zm0.0663 0.1989c0.1061,0.1061 0.6151,0.6151 0.6571,0.6572 0.0042,0.0582 0.0259,0.3677 0.0259,0.3677 0.0016,0.0225 0.0113,0.0437 0.0272,0.0598l3.3149 3.3149c0.0161,0.016 0.0373,0.0256 0.0598,0.0273 0,0 0.3096,0.0217 0.3678,0.0258 0.0421,0.0421 0.5511,0.5511 0.6571,0.6572 -0.1007,0.1007 -0.5467,0.5467 -0.6473,0.6474 -0.1062,-0.1061 -0.6151,-0.6152 -0.6572,-0.6572 -0.0041,-0.0583 -0.0258,-0.3678 -0.0258,-0.3678 -0.0016,-0.0225 -0.0113,-0.0437 -0.0272,-0.0597l-3.315 -3.315c-0.016,-0.0159 -0.0372,-0.0256 -0.0597,-0.0272 0,0 -0.3096,-0.0218 -0.3678,-0.0258 -0.0421,-0.0422 -0.5511,-0.551 -0.6572,-0.6572 0.1007,-0.1007 0.5467,-0.5467 0.6474,-0.6474zm-1.1472 0.8819l-0.78 0.78c-0.0183,0.0182 -0.0275,0.0423 -0.0275,0.0663 0,0.024 0.0092,0.048 0.0275,0.0663l0.7483 0.7483c0.016,0.0159 0.0373,0.0256 0.0598,0.0273 0,0 0.3095,0.0217 0.3677,0.0258 0.0485,0.0485 3.217,3.217 3.2654,3.2654 0.004,0.0583 0.0259,0.3678 0.0259,0.3678 0.0016,0.0226 0.0113,0.0437 0.0272,0.0597l0.7483 0.7483c0.0366,0.0366 0.0959,0.0366 0.1326,0l0.78 -0.78c0.0183,-0.0184 0.0275,-0.0424 0.0275,-0.0664 0,-0.024 -0.0092,-0.048 -0.0275,-0.0663l-0.7482 -0.7483c-0.0161,-0.0159 -0.0373,-0.0256 -0.0598,-0.0272 0,0 -0.3095,-0.0218 -0.3677,-0.0259 -0.0485,-0.0484 -3.217,-3.2169 -3.2655,-3.2654 -0.004,-0.0582 -0.0258,-0.3677 -0.0258,-0.3677 -0.0016,-0.0225 -0.0113,-0.0438 -0.0272,-0.0598l-0.7484 -0.7482c-0.0366,-0.0367 -0.096,-0.0367 -0.1326,0zm0.0663 0.1988c0.1062,0.1062 0.6152,0.6152 0.6573,0.6573 0.0041,0.0582 0.0258,0.3677 0.0258,0.3677 0.0016,0.0225 0.0113,0.0437 0.0273,0.0598l3.3149 3.3149c0.016,0.016 0.0372,0.0257 0.0597,0.0273 0,0 0.3095,0.0217 0.3678,0.0258 0.0421,0.0421 0.5511,0.5511 0.6572,0.6572 -0.1007,0.1007 -0.5468,0.5467 -0.6474,0.6474 -0.1062,-0.106 -0.6152,-0.615 -0.6572,-0.6572 -0.004,-0.0582 -0.0259,-0.3677 -0.0259,-0.3677 -0.0016,-0.0226 -0.0113,-0.0437 -0.0273,-0.0598l-3.3148 -3.3149c-0.016,-0.0159 -0.0372,-0.0256 -0.0597,-0.0273 0,0 -0.3095,-0.0217 -0.3678,-0.0258 -0.0421,-0.0421 -0.5512,-0.5511 -0.6572,-0.6572 0.1006,-0.1007 0.5467,-0.5467 0.6473,-0.6475zm7.6158 7.4832l-0.7799 0.7801c-0.0367,0.0366 -0.0367,0.096 0,0.1326l0.7799 0.78c0.0366,0.0367 0.0959,0.0367 0.1327,0l0.7799 -0.78c0.0367,-0.0366 0.0367,-0.096 0,-0.1326l-0.7799 -0.7801c-0.0177,-0.0176 -0.0415,-0.0275 -0.0664,-0.0275 -0.0248,0 -0.0487,0.0099 -0.0663,0.0275zm0.0663 0.1989c0.1007,0.1007 0.5468,0.5468 0.6474,0.6475 -0.1006,0.1006 -0.5467,0.5467 -0.6474,0.6474 -0.1006,-0.1007 -0.5467,-0.5468 -0.6474,-0.6474 0.1007,-0.1007 0.5468,-0.5468 0.6474,-0.6475zm-1.1471 -1.2797l-0.7801 0.7801c-0.0175,0.0177 -0.0274,0.0414 -0.0274,0.0663 0,0.0249 0.0099,0.0488 0.0274,0.0663l0.7801 0.78c0.0366,0.0366 0.096,0.0366 0.1327,0l0.78 -0.78c0.0365,-0.0365 0.0365,-0.096 0,-0.1326l-0.78 -0.7801c-0.0177,-0.0175 -0.0415,-0.0275 -0.0663,-0.0275 -0.0249,0 -0.0487,0.01 -0.0664,0.0275zm0.0664 0.199c0.1006,0.1006 0.5466,0.5468 0.6474,0.6474 -0.1008,0.1007 -0.5468,0.5467 -0.6474,0.6475 -0.1007,-0.1008 -0.5469,-0.5468 -0.6475,-0.6475 0.1006,-0.1006 0.5468,-0.5468 0.6475,-0.6474zm-1.1472 -1.2798l-0.7801 0.78c-0.0175,0.0176 -0.0274,0.0414 -0.0274,0.0663 0,0.0249 0.0099,0.0488 0.0274,0.0663l0.7801 0.78c0.0367,0.0366 0.0961,0.0366 0.1327,0l0.78 -0.78c0.0366,-0.0366 0.0366,-0.0959 0,-0.1326l-0.78 -0.78c-0.0366,-0.0366 -0.096,-0.0366 -0.1327,0zm0.0663 0.1989c0.1007,0.1007 0.5467,0.5467 0.6474,0.6474 -0.1007,0.1007 -0.5467,0.5467 -0.6474,0.6475 -0.1006,-0.1008 -0.5468,-0.5468 -0.6474,-0.6475 0.1006,-0.1007 0.5468,-0.5467 0.6474,-0.6474zm1.0145 -1.2798l-0.7801 0.7801c-0.0175,0.0177 -0.0274,0.0414 -0.0274,0.0663 0,0.0249 0.0099,0.0487 0.0274,0.0663l0.7801 0.78c0.0366,0.0366 0.096,0.0366 0.1327,0l0.78 -0.78c0.0365,-0.0365 0.0365,-0.096 0,-0.1326l-0.78 -0.7801c-0.0177,-0.0175 -0.0415,-0.0275 -0.0663,-0.0275 -0.0249,0 -0.0487,0.01 -0.0664,0.0275zm0.0664 0.199c0.1006,0.1006 0.5466,0.5468 0.6474,0.6474 -0.1008,0.1007 -0.5468,0.5467 -0.6474,0.6475 -0.1007,-0.1008 -0.5469,-0.5468 -0.6475,-0.6475 0.1006,-0.1006 0.5468,-0.5468 0.6475,-0.6474zm1.0144 0.8819l-0.7799 0.78c-0.0367,0.0366 -0.0367,0.096 0,0.1326l0.7799 0.78c0.0366,0.0366 0.0959,0.0366 0.1327,0l0.7799 -0.78c0.0367,-0.0366 0.0367,-0.0959 0,-0.1326l-0.7799 -0.78c-0.0366,-0.0366 -0.0961,-0.0366 -0.1327,0zm0.0663 0.1989c0.1007,0.1007 0.5468,0.5467 0.6474,0.6474 -0.1006,0.1007 -0.5467,0.5467 -0.6474,0.6474 -0.1006,-0.1007 -0.5467,-0.5467 -0.6473,-0.6474 0.1006,-0.1007 0.5467,-0.5467 0.6473,-0.6474zm1.0808 0.8544c-0.0247,0 -0.0486,0.01 -0.0663,0.0275l-0.78 0.7801c-0.0365,0.0366 -0.0365,0.0961 0,0.1326l0.78 0.78c0.0366,0.0366 0.0961,0.0366 0.1326,0l0.7802 -0.78c0.0176,-0.0175 0.0273,-0.0414 0.0273,-0.0663 0,-0.0249 -0.0097,-0.0486 -0.0273,-0.0663l-0.7802 -0.7801c-0.0176,-0.0175 -0.0415,-0.0275 -0.0663,-0.0275zm0 0.2265c0.1008,0.1006 0.547,0.5468 0.6475,0.6474 -0.1008,0.1007 -0.5467,0.5467 -0.6475,0.6475 -0.1007,-0.1008 -0.5467,-0.5468 -0.6474,-0.6475 0.1007,-0.1006 0.5467,-0.5468 0.6474,-0.6474zm1.0146 -1.2798l-0.7801 0.78c-0.0177,0.0176 -0.0273,0.0414 -0.0273,0.0663 0,0.0249 0.0096,0.0488 0.0273,0.0663l0.7801 0.78c0.0177,0.0176 0.0416,0.0275 0.0664,0.0275 0.0247,0 0.0486,-0.0099 0.0663,-0.0275l0.7799 -0.78c0.0365,-0.0366 0.0365,-0.096 0,-0.1326l-0.7799 -0.78c-0.0177,-0.0176 -0.0416,-0.0274 -0.0663,-0.0274 -0.0248,0 -0.0487,0.0098 -0.0664,0.0274zm0.0664 0.1989c0.1007,0.1007 0.5467,0.5467 0.6472,0.6474 -0.1005,0.1007 -0.5465,0.5467 -0.6472,0.6474 -0.1008,-0.1007 -0.5468,-0.5467 -0.6475,-0.6474 0.1007,-0.1007 0.5467,-0.5467 0.6475,-0.6474zm-1.081 -1.3073c-0.0247,0 -0.0486,0.01 -0.0663,0.0275l-0.78 0.7801c-0.0365,0.0366 -0.0365,0.0961 0,0.1326l0.78 0.78c0.0366,0.0366 0.0961,0.0366 0.1326,0l0.7802 -0.78c0.0176,-0.0176 0.0273,-0.0414 0.0273,-0.0663 0,-0.0249 -0.0097,-0.0486 -0.0273,-0.0663l-0.7802 -0.7801c-0.0176,-0.0175 -0.0415,-0.0275 -0.0663,-0.0275zm0 0.2265c0.1008,0.1006 0.547,0.5468 0.6475,0.6474 -0.1008,0.1007 -0.5467,0.5467 -0.6475,0.6475 -0.1007,-0.1008 -0.5467,-0.5468 -0.6474,-0.6475 0.1007,-0.1006 0.5467,-0.5468 0.6474,-0.6474zm-1.1471 -1.2798l-0.7799 0.7801c-0.0367,0.0366 -0.0367,0.096 0,0.1327l0.7799 0.7799c0.0366,0.0366 0.0959,0.0366 0.1327,0l0.7799 -0.7799c0.0367,-0.0367 0.0367,-0.0961 0,-0.1327l-0.7799 -0.7801c-0.0177,-0.0175 -0.0415,-0.0274 -0.0664,-0.0274 -0.0248,0 -0.0487,0.0099 -0.0663,0.0274zm0.0663 0.199c0.1007,0.1006 0.5468,0.5468 0.6474,0.6475 -0.1006,0.1006 -0.5467,0.5466 -0.6474,0.6473 -0.1006,-0.1007 -0.5467,-0.5467 -0.6474,-0.6473 0.1007,-0.1007 0.5468,-0.5469 0.6474,-0.6475z"/>
  </g>
 </g>
</svg>