<svg version="1.1" id="Слой_1" xmlns="http://www.w3.org/2000/svg" xmlns:xlink="http://www.w3.org/1999/xlink" x="3317" y="2" width="270" height="270"
	 viewBox="0 0 600 600" style="enable-background:new 0 0 600 600;" xml:space="preserve">

<style type="text/css">
	.st0{fill:#BF1E2E;}
	.st1{fill:#FFFFFF;}
</style>
<g>
	<g>
		<path style="fill:#BF1E2E;" d="M97.4,47.2v506.3h405.2V46.5C502.6,46.5,97.4,48,97.4,47.2z"/>
		<rect x="107.4" y="444.7" style="fill:#FFFFFF;" width="383.9" height="97.9"/>
	</g>
	<polygon style="fill:#FFFFFF;" points="450.5,111.8 353.2,111.8 146.8,379.8 244.9,379.8 308.3,297 447.2,297 447.2,222.1 366.5,222.1 	"/>
	<g>
		<path style="fill:#BF1E2E;" d="M446.1,457.8h-11.8l-26.4,72.8h12.3l6-17.5H454l6.7,17.5h12.1L446.1,457.8z M429.9,502.1l10.4-26.8l9.1,26.8
			H429.9z"/>
		<path style="fill:#BF1E2E;" d="M164.3,457.8h-11.8L126,530.5h12.3l6-17.5h27.9l6.7,17.5h12.1L164.3,457.8z M148,502.1l10.4-26.8l9.1,26.8
			H148z"/>
		<polygon style="fill:#BF1E2E;" points="300,469.6 300,530.5 288.4,530.5 288.4,469.6 268.8,469.6 268.8,457.8 319.3,457.8 319.3,469.6 		"/>
		<path style="fill:#BF1E2E;" d="M247.4,474.2l4.2-9.8c0,0-7.1-6.7-19.7-6.7c-12.7,0-23.5,5.2-23.5,18.9s12.1,18.7,19.3,21.6
			S242,505,242,512.7c0,7.7-10.8,7.7-12.1,7.7s-11.6,0.8-18.5-7.9l-5.4,7.9c0,0,6.4,10.2,23.5,10.2s24.5-7.5,24.5-19.5
			s-8.3-16.4-18.5-21.4c-10.2-5-15.8-6.9-15.8-12.5c0-5.6,5-9.4,13.1-9.4C241,467.8,247.4,474.2,247.4,474.2z"/>
		<path style="fill:#BF1E2E;" d="M376.5,503.1c0,0,15.2-4.2,15.2-22.9s-19.5-22.5-19.5-22.5h-32.4v72.8h12.5v-25.4H364l15.2,25.4h15.4
			L376.5,503.1z M365.3,494.2h-12.7v-24.9c0,0,5.2,0,12.7,0s13.9,3.5,13.9,13.9S365.3,494.2,365.3,494.2z"/>
	</g>
</g>
</svg>