<svg viewBox="0 0 312.28 300.25" x="3000" y="225" width="280" height="280" xmlns="http://www.w3.org/2000/svg">
    <g fill="#848484">
        <path d="m251.98 156.13c-0.563-12.399-2.423-24.913-7.197-36.455-4.51-10.901-11.374-21.29-19.618-29.722-8.449-8.643-17.834-15.792-28.902-20.723-11.152-4.972-23.043-8.229-35.264-8.929-22.998-1.322-46.442 6.375-64.5 20.607-17.188 13.549-29.502 33.063-34.334 54.404-5.254 23.208-1.352 49.007 11.054 69.399 3.116 5.121 6.339 10.19 10.442 14.586 4.047 4.335 8.36 8.542 13.02 12.216 9.294 7.327 19.907 12.869 31.227 16.325 22.448 6.854 46.991 5.2 68.3-4.646 19.686-9.101 36.863-25.545 46.146-45.224 2.955-6.265 5.043-12.938 6.741-19.64 1.865-7.352 2.542-14.637 2.885-22.198"/>
        <path d="m251.74 155.89c0 23.233-8.585 46.131-23.95 63.581-7.752 8.806-17.631 16.915-28.209 22.027-11.043 5.34-22.752 8.889-34.971 10.093-23.866 2.355-48.578-4.977-67.474-19.74-17.132-13.39-30.186-33.365-34.717-54.689-2.506-11.793-3.356-24.914-1.17-36.822 2.149-11.71 6.143-23.656 12.466-33.774 6.227-9.963 13.92-19.254 23.395-26.285 4.764-3.534 9.774-6.808 14.95-9.707 5.317-2.979 11.15-4.84 16.973-6.57 23.094-6.86 49.12-4.695 70.478 6.58 5.162 2.727 10.322 5.724 14.955 9.295 4.652 3.584 8.969 7.977 12.91 12.32 7.904 8.709 13.82 18.538 17.948 29.526 3.522 9.386 6.272 19.846 6.413 29.942 0.018005 1.295 0.020004 2.592-0.003998 3.888-0.013992 0.707-5.258 0.338-6.117 0.338h-89.692c31.941-0.003006 63.875-0.003006 95.816-0.003006"/>
    </g>
    <g stroke-linecap="square" stroke-miterlimit="10" stroke-width=".24">
        <path d="m251.74 155.89c0 23.233-8.585 46.131-23.95 63.581-7.752 8.806-17.631 16.915-28.209 22.027-11.043 5.34-22.752 8.889-34.971 10.093-23.866 2.355-48.578-4.977-67.474-19.74-17.132-13.39-30.186-33.365-34.717-54.689-2.506-11.793-3.356-24.914-1.17-36.822 2.149-11.71 6.143-23.656 12.466-33.774 6.227-9.963 13.92-19.254 23.395-26.285 4.764-3.534 9.774-6.808 14.95-9.707 5.317-2.979 11.15-4.84 16.973-6.57 23.094-6.86 49.12-4.695 70.478 6.58 5.162 2.727 10.322 5.724 14.955 9.295 4.652 3.584 8.969 7.977 12.91 12.32 7.904 8.709 13.82 18.538 17.948 29.526 4.132 10.994 6.416 22.395 6.416 34.165" fill="none" stroke="#010101"/>
        <path d="m227.96 156.13c-0.63901-12.177-3.07-23.744-9.031-34.48-5.496-9.899-13.2-18.513-22.561-24.901-19.507-13.312-45.413-16.558-67.324-7.364-10.78 4.523-21.159 11.629-28.556 20.748-7.316 9.021-12.456 19.986-14.893 31.307-2.599 12.066-1.855 24.141 1.742 35.928 1.744 5.719 4.017 11.264 7.243 16.311 1.52 2.381 3.095 4.752 4.882 6.94 1.808 2.214 3.604 4.765 5.766 6.638 4.499 3.901 9.014 7.753 14.154 10.799 5.167 3.061 10.716 5.486 16.479 7.18 11.707 3.438 24.627 3.867 36.476 0.85899 6.041-1.533 11.701-3.393 17.178-6.415 5.098-2.813 9.568-5.847 13.93-9.714 8.729-7.738 15.65-17.589 19.752-28.529 3.026-8.079 4.309-16.728 4.763-25.307" fill="#fff" stroke="#fff"/>
    </g>
    <path d="m227.71 156.13c-0.77101 11.95-2.854 23.488-8.541 34.152-5.238 9.83-13.354 18.406-22.389 24.883-4.719 3.381-10.012 5.847-15.367 8.043-5.562 2.279-10.985 3.275-16.91 4.092-5.971 0.824-12.074 0.83-18.051 0.040009-5.789-0.765-11.969-2.088-17.337-4.426-10.619-4.623-20.136-11.142-27.6-20.017-7.498-8.914-13.163-19.557-15.629-30.994-4.899-22.721 1.246-47.457 17.118-64.614 15.167-16.396 37.975-25.331 60.248-22.712 5.861 0.689 11.525 1.573 16.998 3.848 5.229 2.173 10.408 4.536 15.203 7.566 9.653 6.098 17.182 15.08 23.01 24.795 6.499 10.824 8.449 22.939 9.247 35.344h-71.789 71.789" fill="#fff"/>
    <path d="m227.71 156.13c-0.77101 11.95-2.854 23.488-8.541 34.152-5.238 9.83-13.354 18.406-22.389 24.883-4.719 3.381-10.012 5.847-15.367 8.043-5.562 2.279-10.985 3.275-16.91 4.092-5.971 0.824-12.074 0.83-18.051 0.040009-5.789-0.765-11.969-2.088-17.337-4.426-10.619-4.623-20.136-11.142-27.6-20.017-7.498-8.914-13.163-19.557-15.629-30.994-4.899-22.721 1.246-47.457 17.118-64.614 15.167-16.396 37.975-25.331 60.248-22.712 5.861 0.689 11.525 1.573 16.998 3.848 5.229 2.173 10.408 4.536 15.203 7.566 9.653 6.098 17.182 15.08 23.01 24.795 6.499 10.824 8.449 22.939 9.247 35.344" fill="none" stroke="#010101" stroke-linecap="square" stroke-miterlimit="10" stroke-width=".24"/>
    <path d="m156.14 154.21c-0.078003-51.395-0.161-102.79-0.24-154.19 4.71 25.91 9.424 51.82 14.133 77.731 2.352 12.926 4.701 25.853 7.053 38.781 0.562 3.091 1.125 6.181 1.686 9.274 0.28299 1.544 0.562 3.091 0.84399 4.635 0.34401 1.885 0.020004 1.949-1.238 3.209-4.527 4.528-9.057 9.057-13.586 13.585-2.963 2.963-5.926 5.928-8.89 8.891 0.07901-0.64101 0.158-1.279 0.23801-1.92" fill="#010101"/>
    <path d="m156.14 154.21c-0.078003-51.395-0.161-102.79-0.24-154.19 4.71 25.91 9.424 51.82 14.133 77.731 2.352 12.926 4.701 25.853 7.053 38.781 0.562 3.091 1.125 6.181 1.686 9.274 0.28299 1.544 0.562 3.091 0.84399 4.635 0.34401 1.885 0.020004 1.949-1.238 3.209-4.527 4.528-9.057 9.057-13.586 13.585-2.963 2.963-5.926 5.928-8.89 8.891" fill="none" stroke="#010101" stroke-linecap="square" stroke-miterlimit="10" stroke-width=".24"/>
    <path d="m156.14 154.21c52.04 0.64101 104.08 1.281 156.12 1.92-25.959 4.664-51.918 9.328-77.879 13.992-12.951 2.326-25.9 4.654-38.854 6.98-3.098 0.556-6.193 1.111-9.291 1.668-1.548 0.27701-3.097 0.558-4.645 0.836-1.891 0.34-1.965 0.01001-3.236-1.248-4.566-4.521-9.135-9.045-13.701-13.564-1.955-1.936-3.908-3.872-5.863-5.809-0.845-0.832-1.881-1.637-2.563-2.609-0.446-0.633-0.173-1.466-0.085007-2.166" fill="#010101"/>
    <path d="m156.14 154.21c52.04 0.64101 104.08 1.281 156.12 1.92-25.959 4.664-51.918 9.328-77.879 13.992-12.951 2.326-25.9 4.654-38.854 6.98-3.098 0.556-6.193 1.111-9.291 1.668-1.548 0.27701-3.097 0.558-4.645 0.836-1.891 0.34-1.965 0.01001-3.236-1.248-4.566-4.521-9.135-9.045-13.701-13.564-2.917-2.891-5.835-5.773-8.751-8.664" fill="none" stroke="#010101" stroke-linecap="square" stroke-miterlimit="10" stroke-width=".24"/>
    <path d="m156.14 154.21c-52.039 0.64101-104.08 1.283-156.12 1.92 25.923-4.722 51.846-9.444 77.769-14.164 12.915-2.354 25.831-4.705 38.746-7.058 3.05-0.55499 6.1-1.111 9.149-1.667 1.525-0.276 3.05-0.55501 4.575-0.832 1.651-0.302 1.675-0.248 2.763 0.84599 4.556 4.556 9.112 9.111 13.668 13.667 3.069 3.069 6.14 6.14 9.209 9.208 0.081009-0.64101 0.16-1.279 0.24-1.92" fill="#010101"/>
    <path d="m156.14 154.21c-52.039 0.64101-104.08 1.283-156.12 1.92 25.923-4.722 51.846-9.444 77.769-14.164 12.915-2.354 25.831-4.705 38.746-7.058 3.05-0.55499 6.1-1.111 9.149-1.667 1.525-0.276 3.05-0.55501 4.575-0.832 1.651-0.302 1.675-0.248 2.763 0.84599 4.556 4.556 9.112 9.111 13.668 13.667 3.069 3.069 6.14 6.14 9.209 9.208" fill="none" stroke="#010101" stroke-linecap="square" stroke-miterlimit="10" stroke-width=".24"/>
    <path d="m156.14 154.21c-4.466 4.73-8.932 9.462-13.398 14.193-2.144 2.271-4.288 4.539-6.431 6.812-1.03 1.091-2.062 2.183-3.092 3.274-1.348 1.428-1.333 1.438-0.94499 3.375 2.571 12.881 5.143 25.762 7.714 38.644 5.15 25.8 10.299 51.599 15.45 77.396 0.15399 0.776 0.30899 1.552 0.463 2.324v-127.86c-0.001007-5.984-0.504-12.218 0.239-18.163" fill="#010101"/>
    <path d="m156.14 154.21c-4.466 4.73-8.932 9.462-13.398 14.193-2.144 2.271-4.288 4.539-6.431 6.812-1.03 1.091-2.062 2.183-3.092 3.274-1.348 1.428-1.333 1.438-0.94499 3.375 2.571 12.881 5.143 25.762 7.714 38.644 5.15 25.8 10.299 51.599 15.45 77.396 0.15399 0.776 0.30899 1.552 0.463 2.324v-144.1" fill="none" stroke="#010101" stroke-linecap="square" stroke-miterlimit="10" stroke-width=".24"/>
    <path d="m179.68 130.91c8.087-7.604 16.173-15.209 24.261-22.812-6.062 2.969-12.123 5.939-18.185 8.908-1.309 0.64101-2.616 1.281-3.924 1.922-1.285 0.629-1.912 0.671-1.912 2.111v11.072c-0.080002-0.40199-0.16-0.79999-0.24-1.201" fill="#fff"/>
    <path d="m179.68 130.91c8.087-7.604 16.173-15.209 24.261-22.812-6.062 2.969-12.123 5.939-18.185 8.908-1.309 0.64101-2.616 1.281-3.924 1.922-1.285 0.629-1.912 0.671-1.912 2.111v11.072" fill="none" stroke="#010101" stroke-linecap="square" stroke-miterlimit="10" stroke-width=".24"/>
    <path d="m179.68 130.91c8.087-7.604 16.173-15.209 24.261-22.812-3.356 6.709-6.712 13.419-10.067 20.126-0.47101 0.94099-1.123 3.253-2.013 3.818-0.75101 0.478-2.687 0.067993-3.509 0.067993h-8.038c-0.675 0-0.543-0.74699-0.634-1.2" fill="#010101"/>
    <path d="m179.68 130.91c8.087-7.604 16.173-15.209 24.261-22.812-3.03 6.059-6.062 12.119-9.092 18.178-0.65399 1.308-1.31 2.617-1.964 3.925-0.649 1.297-0.69701 1.91-2.155 1.91h-10.81" fill="none" stroke="#010101" stroke-linecap="square" stroke-miterlimit="10" stroke-width=".24"/>
    <path d="m131.64 132.11c-7.926-8.004-15.853-16.009-23.779-24.013 2.987 5.972 5.973 11.942 8.96 17.915 0.667 1.335 1.335 2.671 2.003 4.006 0.576 1.152 0.667 2.092 2.03 2.092h10.786" fill="#fff"/>
    <path d="m131.64 132.11c-7.926-8.004-15.853-16.009-23.779-24.013 4.003 8.004 8.006 16.008 12.009 24.013" fill="none" stroke="#010101" stroke-linecap="square" stroke-miterlimit="10" stroke-width=".24"/>
    <path d="m131.64 132.11c-7.926-8.004-15.853-16.009-23.779-24.013 6.061 2.969 12.123 5.939 18.184 8.908 1.308 0.64101 2.617 1.281 3.925 1.922 1.287 0.631 1.915 0.666 1.887 2.111-0.072998 3.691-0.14499 7.382-0.217 11.072" fill="#010101"/>
    <path d="m131.64 132.11c-7.926-8.004-15.853-16.009-23.779-24.013 8.006 3.923 16.012 7.843 24.019 11.766" fill="none" stroke="#010101" stroke-linecap="square" stroke-miterlimit="10" stroke-width=".24"/>
    <path d="m131.64 179.9c-7.926 8.008-15.853 16.012-23.779 24.018 4.255-2.084 8.511-4.17 12.768-6.254 2.127-1.044 4.255-2.085 6.383-3.128 1.158-0.567 5-1.66 4.93-3.179-0.061996-1.355 0.65601-11.336-0.302-11.457" fill="#fff"/>
    <path d="m131.64 179.9c-7.926 8.008-15.853 16.012-23.779 24.018 6.061-2.968 12.123-5.938 18.184-8.906 1.308-0.642 2.617-1.281 3.925-1.923 1.283-0.629 1.91-0.672 1.91-2.11v-11.076" fill="none" stroke="#010101" stroke-linecap="square" stroke-miterlimit="10" stroke-width=".24"/>
    <path d="m131.64 179.9c-7.926 8.008-15.853 16.012-23.779 24.018 2.986-5.972 5.973-11.943 8.96-17.918 0.667-1.336 1.335-2.671 2.003-4.006 0.576-1.152 0.667-2.094 2.03-2.094h10.786" fill="#010101"/>
    <path d="m131.64 179.9c-7.926 8.008-15.853 16.012-23.779 24.018 4.003-8.006 8.006-16.01 12.009-24.018" fill="none" stroke="#010101" stroke-linecap="square" stroke-miterlimit="10" stroke-width=".24"/>
    <path d="m179.68 179.9c8.087 8.008 16.173 16.012 24.261 24.018-3.03-6.061-6.062-12.12-9.092-18.182-0.65399-1.309-1.31-2.616-1.964-3.926-0.64101-1.278-0.688-1.91-2.133-1.91h-11.072" fill="#fff"/>
    <path d="m179.68 179.9c8.087 8.008 16.173 16.012 24.261 24.018-4.005-8.006-8.009-16.01-12.011-24.018" fill="none" stroke="#010101" stroke-linecap="square" stroke-miterlimit="10" stroke-width=".24"/>
    <path d="m179.68 179.9c8.087 8.008 16.173 16.012 24.261 24.018-6.062-2.968-12.123-5.938-18.185-8.906-1.309-0.642-2.616-1.281-3.924-1.923-1.281-0.627-1.906-0.676-1.937-2.11-0.069992-3.694-0.142-7.385-0.215-11.079" fill="#010101"/>
    <path d="m179.68 179.9c8.087 8.008 16.173 16.012 24.261 24.018-8.009-3.923-16.013-7.843-24.021-11.766" fill="none" stroke="#010101" stroke-linecap="square" stroke-miterlimit="10" stroke-width=".24"/>
    <g fill="#fff">
        <path d="m155.9 155.41v144.82c5.117-25.641 10.238-51.283 15.354-76.924 2.562-12.828 5.125-25.656 7.685-38.486 0.29399-1.479 0.59-2.963 0.886-4.442 0.19199-0.96201-1.451-2.048-2.078-2.687-2.326-2.373-4.654-4.748-6.981-7.121-4.587-4.678-9.173-9.357-13.763-14.037-0.36899-0.37299-0.73599-0.74899-1.103-1.122"/>
        <path d="m155.9 155.41c52.121 0.239 104.24 0.478 156.36 0.72-25.9-4.703-51.803-9.401-77.705-14.101-12.938-2.349-25.881-4.697-38.82-7.046-2.984-0.54199-5.968-1.084-8.949-1.624-1.492-0.271-2.982-0.54201-4.478-0.812-1.599-0.291-2.167-0.64101-3.313 0.46399-4.56 4.426-9.121 8.848-13.682 13.272-3.137 3.043-6.271 6.087-9.41 9.127"/>
        <path d="m156.38 155.41c-52.12 0.239-104.24 0.478-156.36 0.72 25.923 4.676 51.846 9.35 77.769 14.021 12.915 2.328 25.831 4.658 38.746 6.986 3.05 0.551 6.1 1.1 9.149 1.651 1.525 0.274 3.05 0.55 4.575 0.823 1.637 0.295 1.658 0.257 2.736-0.821 4.525-4.528 9.054-9.054 13.582-13.58 3.268-3.266 6.536-6.531 9.802-9.8"/>
        <path d="m155.9 155.41v-155.39c-4.71 25.91-9.423 51.82-14.134 77.731-2.35 12.926-4.702 25.853-7.052 38.781-0.562 3.091-1.124 6.181-1.686 9.274-0.28099 1.544-0.562 3.091-0.84399 4.635-0.345 1.901-0.005005 1.957 1.283 3.207 4.606 4.468 9.214 8.935 13.82 13.406 2.872 2.784 5.741 5.569 8.613 8.352"/>
    </g>
    <g font-family="Arial" font-size="24" stroke-width="0" text-anchor="middle">
        <text x="154.640503" y="-14.25" xml:space="preserve">N</text>
        <g stroke-dasharray="null" stroke-linecap="null" stroke-linejoin="null">
            <text x="156.640503" y="328.75" xml:space="preserve">S</text>
   <text x="323.640503" y="164.75" xml:space="preserve">E</text>
   <text x="-18.359497" y="162.75" xml:space="preserve">O</text>
        </g>
    </g>
</svg>