<svg version="1.1"
	 id="svg77" xmlns:cc="http://creativecommons.org/ns#" xmlns:dc="http://purl.org/dc/elements/1.1/" xmlns:rdf="http://www.w3.org/1999/02/22-rdf-syntax-ns#" xmlns:svg="http://www.w3.org/2000/svg"
	 xmlns="http://www.w3.org/2000/svg" xmlns:xlink="http://www.w3.org/1999/xlink" x="3240" y="260" width="300" height="300" viewBox="0 0 612 792"
	 style="enable-background:new 0 0 612 792;" xml:space="preserve">
<style type="text/css">
	.st0{fill:#57585A;stroke:#FFFFFF;stroke-width:0.216;}
	.st1{fill:url(#path17_1_);}
	.st2{fill:url(#path26_1_);}
	.st3{fill:none;stroke:#FFFFFF;stroke-width:0.5669;}
	.st4{fill:none;stroke:#1B1918;stroke-width:0.5669;}
	.st5{fill:url(#path41_1_);}
	.st6{fill:url(#path50_1_);}
	.st7{fill:url(#path59_1_);}
	.st8{fill:url(#path68_1_);}
	.st9{fill:none;stroke:#FFFFFF;stroke-width:1.9998;}
</style>
<path id="path4" class="st0" d="M127.1,482c0,1.2-0.6,1.9-1.7,2.1c-1.5,0.3-3.5,0.6-5.9,0.9c-2.5,0.3-6,0.5-10.6,0.5
	c-2.7,0-5.4-0.3-7.9-0.8c-2.5-0.5-4.7-1.6-6.6-3.2c-1.9-1.6-3.5-3.8-4.6-6.7c-1.2-2.9-1.7-6.6-1.7-11.3v-33.9
	c0-4.6,0.6-8.4,1.7-11.2c1.1-2.9,2.7-5.1,4.6-6.6c1.9-1.6,4.1-2.6,6.7-3.2c2.5-0.5,5.2-0.8,7.9-0.8c2.3,0,4.3,0.1,6,0.2
	c1.7,0.1,3.3,0.2,4.6,0.4c1.3,0.1,2.4,0.3,3.4,0.4c0.9,0.1,1.8,0.3,2.5,0.4c1.1,0.2,1.7,0.9,1.7,2v9.5c0,0.5-0.2,1-0.5,1.4
	c-0.3,0.4-0.7,0.6-1.2,0.6h-17.3c-2,0-3.4,0.5-4.2,1.5c-0.8,1-1.2,2.8-1.2,5.5v9.3h22.1c0.5,0,0.9,0.2,1.2,0.6
	c0.3,0.4,0.5,0.9,0.5,1.4v9.7c0,0.5-0.2,1-0.5,1.4c-0.3,0.4-0.7,0.6-1.2,0.6h-22.1v10.8c0,2.7,0.4,4.5,1.2,5.5
	c0.8,1,2.2,1.5,4.2,1.5h17.3c0.5,0,0.9,0.2,1.2,0.6c0.3,0.4,0.5,0.9,0.5,1.4L127.1,482z M189.1,483.6c0,0.7-0.4,1-1.1,1h-13.6
	c-0.6,0-1-0.1-1.3-0.4c-0.3-0.2-0.6-0.6-0.9-1.2l-11.1-21.5l-10,21c-0.3,0.6-0.6,1.1-0.9,1.5c-0.3,0.4-0.7,0.6-1.2,0.6h-12.6
	c-0.9,0-1.3-0.4-1.3-1.3c0-0.2,0.1-0.4,0.2-0.7l17.9-36.8l-18-35c-0.1-0.3-0.2-0.5-0.2-0.6c0-0.3,0.1-0.6,0.4-0.9
	c0.3-0.3,0.6-0.4,0.9-0.4h13.8c0.5,0,0.9,0.2,1.2,0.6c0.3,0.4,0.7,0.9,0.9,1.3l10.6,20.6l9.6-20.6c0.2-0.5,0.5-0.9,0.9-1.3
	c0.4-0.4,0.8-0.6,1.2-0.6H187c0.3,0,0.6,0.1,0.9,0.4c0.3,0.3,0.4,0.6,0.4,0.9c0,0.1-0.1,0.3-0.2,0.6l-17.6,36l18.4,35.8
	C189,482.9,189.1,483.3,189.1,483.6L189.1,483.6z M244.7,433.4c0,4.8-0.7,8.7-2.2,11.9c-1.5,3.2-3.4,5.7-5.8,7.6
	c-2.4,1.9-5.1,3.2-8.2,4c-3.1,0.8-6.2,1.2-9.4,1.2c-1,0-2.2,0-3.4-0.1c-1.3-0.1-2.4-0.1-3.5-0.2v24.8c0,0.5-0.2,1-0.5,1.4
	c-0.3,0.4-0.7,0.6-1.2,0.6h-11c-0.5,0-0.9-0.2-1.2-0.6c-0.3-0.4-0.5-0.8-0.5-1.4v-68.6c0-1.8,0.3-3,0.9-3.6c0.6-0.6,1.6-1.1,2.9-1.3
	c2.2-0.4,4.8-0.7,8-1c3.2-0.2,6.3-0.4,9.4-0.4c3.2,0,6.4,0.4,9.5,1.1c3.1,0.7,5.8,2.1,8.2,4c2.4,1.9,4.3,4.4,5.8,7.6
	c1.5,3.2,2.2,7.1,2.2,11.9V433.4z M230.1,432.4c0-3.7-0.9-6.3-2.8-7.8c-1.9-1.5-4.6-2.3-8.2-2.3c-0.3,0-0.8,0-1.5,0.1
	c-0.7,0-1.4,0.1-2.1,0.1c-0.7,0-1.4,0.1-2,0.1c-0.7,0-1.1,0.1-1.3,0.1v20.8c0.2,0,0.7,0,1.3,0.1c0.7,0,1.4,0.1,2.1,0.1
	c0.8,0,1.5,0.1,2.1,0.1c0.7,0,1.1,0,1.3,0c3.8,0,6.6-0.9,8.3-2.6c1.7-1.7,2.6-4.3,2.6-7.8V432.4z M302.5,452.7
	c0,5.9-0.7,10.9-2,15.1c-1.3,4.1-3.1,7.5-5.4,10.2c-2.3,2.6-5,4.5-8,5.7c-3.1,1.2-6.4,1.8-9.9,1.8c-3.5,0-6.8-0.6-9.9-1.8
	c-3.1-1.2-5.7-3.1-8-5.7c-2.3-2.6-4.1-6-5.4-10.2c-1.3-4.1-2-9.2-2-15.1v-12.1c0-5.9,0.7-10.9,2-15.1c1.3-4.1,3.1-7.5,5.4-10.2
	c2.3-2.6,5-4.5,8-5.7c3.1-1.2,6.4-1.8,9.9-1.8c3.5,0,6.8,0.6,9.9,1.8c3.1,1.2,5.7,3.1,8,5.7c2.3,2.6,4.1,6,5.4,10.2
	c1.3,4.1,2,9.2,2,15.1V452.7z M287.9,440.6c0-6.2-0.9-10.7-2.6-13.4c-1.7-2.7-4.4-4.1-8-4.1c-3.6,0-6.2,1.4-7.9,4.1
	c-1.7,2.7-2.6,7.2-2.6,13.4v12.2c0,6.2,0.9,10.7,2.6,13.4c1.7,2.7,4.4,4.1,7.9,4.1c3.6,0,6.2-1.4,8-4.1c1.7-2.7,2.6-7.2,2.6-13.4
	V440.6z M378,427.3c0,4.1-0.8,7.7-2.5,10.8c-1.7,3-4.1,5.8-7.3,8.4l-7.3,5.8c-1.8,1.4-3.5,2.8-5,4.1s-2.8,2.7-3.9,4
	c-1.1,1.4-2,2.8-2.6,4.3c-0.6,1.5-0.9,3.1-0.9,4.9v0.4h27c0.5,0,0.9,0.2,1.2,0.6c0.3,0.4,0.5,0.8,0.5,1.4v10.5c0,0.5-0.2,1-0.5,1.4
	c-0.3,0.4-0.7,0.6-1.2,0.6h-38c-0.5,0-0.9-0.2-1.2-0.6c-0.3-0.4-0.5-0.9-0.5-1.4v-10.4c0-5.6,1.1-10.7,3.4-15.1
	c2.2-4.4,5-8,8.2-10.8l7.9-6.6c1.9-1.6,3.4-2.8,4.5-3.8c1.1-1,2-1.9,2.6-2.7c0.6-0.8,1-1.6,1.2-2.3c0.2-0.8,0.3-1.8,0.3-3
	c0-2.2-0.6-3.7-1.9-4.7c-1.3-1-3.7-1.4-7.1-1.4c-2.6,0-5.4,0.1-8.4,0.4c-3,0.3-5.8,0.6-8.4,0.9h-0.2c-0.5,0-0.8-0.2-1.1-0.6
	c-0.3-0.4-0.4-0.9-0.4-1.4v-8c0-0.5,0.2-1,0.5-1.3c0.3-0.3,0.7-0.5,1.2-0.7c2.4-0.9,5.2-1.6,8.5-2.2c3.3-0.6,6.5-0.9,9.7-0.9
	c7.9,0,13.5,1.6,16.8,4.8C376.3,415.9,378,420.8,378,427.3L378,427.3z M434.9,451.1c0,6.1-0.5,11.4-1.6,15.7
	c-1.1,4.4-2.6,7.9-4.5,10.7c-2,2.8-4.4,4.8-7.2,6.1c-2.8,1.3-6.1,1.9-9.7,1.9c-3.6,0-6.9-0.6-9.7-1.9c-2.8-1.3-5.3-3.3-7.2-6.1
	s-3.5-6.3-4.5-10.7c-1-4.4-1.5-9.6-1.5-15.7v-8.8c0-6.1,0.5-11.4,1.5-15.7c1-4.4,2.5-7.9,4.5-10.7s4.4-4.8,7.2-6.1
	c2.8-1.3,6.1-1.9,9.7-1.9c3.6,0,6.9,0.6,9.7,1.9c2.8,1.3,5.3,3.3,7.2,6.1c2,2.8,3.5,6.4,4.5,10.7c1.1,4.4,1.6,9.6,1.6,15.7V451.1z
	 M420.3,442.3c0-4-0.2-7.3-0.6-9.9c-0.4-2.6-1-4.6-1.8-6.1c-0.8-1.5-1.7-2.5-2.7-3.1c-1-0.6-2.1-0.9-3.3-0.9c-1.2,0-2.3,0.3-3.3,0.9
	c-1,0.6-1.9,1.6-2.6,3.1c-0.7,1.5-1.3,3.5-1.8,6.1c-0.4,2.6-0.6,5.9-0.6,9.9v8.8c0,4,0.2,7.3,0.6,9.9c0.4,2.6,1,4.6,1.8,6.1
	c0.7,1.5,1.6,2.5,2.6,3.1c1,0.5,2.1,0.8,3.3,0.8s2.3-0.3,3.3-0.8c1-0.5,1.9-1.6,2.7-3.1c0.8-1.5,1.4-3.5,1.8-6.1
	c0.4-2.6,0.6-5.9,0.6-9.9V442.3z M461.2,470.1v-43.9l-11.1,5.7c-0.5,0.2-0.8,0.3-1,0.3c-0.6,0-0.9-0.4-0.9-1.3v-11.6
	c0-0.7,0.3-1.2,0.9-1.4l15.5-8.7c0.5-0.3,1.2-0.4,2-0.4h7.7c1.1,0,1.6,0.6,1.6,1.9v59.4h11.4c0.5,0,0.9,0.2,1.2,0.6
	c0.3,0.4,0.5,0.8,0.5,1.4v10.5c0,0.5-0.2,1-0.5,1.4c-0.3,0.4-0.7,0.6-1.2,0.6h-37.3c-0.5,0-0.9-0.2-1.2-0.6
	c-0.3-0.4-0.5-0.9-0.5-1.4V472c0-0.5,0.2-1,0.5-1.4c0.3-0.4,0.7-0.6,1.2-0.6H461.2z M542.9,419.6c0,0.7-0.1,1.4-0.4,2.1
	c-0.3,0.7-0.6,1.6-1,2.6l-22.5,58.4c-0.5,1.3-1.2,1.9-2.1,1.9h-11.7c-1,0-1.5-0.4-1.5-1.2c0-0.3,0.1-0.7,0.3-1.1l23.2-58.3
	c0.1-0.1,0.1-0.3,0.1-0.5c0-0.4-0.2-0.6-0.6-0.6H503c-0.5,0-0.9-0.2-1.2-0.6c-0.4-0.4-0.6-0.8-0.6-1.4v-10.2c0-0.5,0.2-1,0.6-1.4
	c0.4-0.4,0.8-0.6,1.2-0.6h37c0.8,0,1.5,0.3,2,1c0.6,0.6,0.9,1.4,0.9,2.4V419.6z"/>
<path id="path6" class="st0" d="M158.6,514c0,0.3-0.1,0.6-0.3,0.9c-0.2,0.2-0.5,0.4-0.8,0.4h-11.3c-1.3,0-2.2,0.3-2.7,0.9
	s-0.8,1.7-0.8,3.3v5.5H157c0.3,0,0.6,0.1,0.8,0.4c0.2,0.2,0.3,0.5,0.3,0.9v5.8c0,0.3-0.1,0.6-0.3,0.9c-0.2,0.2-0.5,0.4-0.8,0.4
	h-14.4v17.9c0,0.3-0.1,0.6-0.3,0.9c-0.2,0.2-0.5,0.4-0.8,0.4h-7.3c-0.3,0-0.6-0.1-0.8-0.4c-0.2-0.2-0.3-0.5-0.3-0.9v-31.7
	c0-2.8,0.4-5,1.1-6.7c0.7-1.7,1.7-3,3-4c1.2-0.9,2.7-1.6,4.3-1.9c1.7-0.3,3.4-0.5,5.1-0.5c1.5,0,2.8,0,3.9,0.1
	c1.1,0.1,2.1,0.1,3,0.2c0.9,0.1,1.6,0.2,2.2,0.2c0.6,0.1,1.2,0.2,1.6,0.2c0.7,0.1,1.1,0.5,1.1,1.2L158.6,514z M191,551.1
	c0,0.3-0.1,0.6-0.3,0.9c-0.2,0.2-0.5,0.4-0.8,0.4h-6.2c-0.3,0-0.6-0.1-0.8-0.4c-0.2-0.3-0.3-0.5-0.3-0.9v-1.5c-1.5,1.2-3,2-4.3,2.5
	c-1.4,0.5-2.9,0.7-4.7,0.7c-2,0-3.6-0.4-4.9-1.1c-1.3-0.7-2.3-1.7-3-3c-0.7-1.3-1.2-2.7-1.5-4.4c-0.3-1.7-0.4-3.5-0.4-5.4v-20.4
	c0-0.3,0.1-0.6,0.4-0.9c0.2-0.3,0.5-0.4,0.8-0.4h6.7c0.3,0,0.6,0.1,0.8,0.4c0.2,0.3,0.3,0.6,0.3,0.9v20.4c0,1.1,0.1,2,0.2,2.7
	c0.1,0.7,0.3,1.3,0.6,1.8c0.3,0.4,0.7,0.8,1.2,1c0.5,0.2,1.2,0.3,2.1,0.3c0.8,0,1.6-0.2,2.5-0.6c0.9-0.4,1.8-0.8,2.7-1.4v-24.1
	c0-0.3,0.1-0.6,0.3-0.9c0.2-0.3,0.5-0.4,0.8-0.4h6.7c0.3,0,0.6,0.1,0.8,0.4c0.2,0.3,0.4,0.6,0.4,0.9V551.1z M215.9,551.2
	c0,0.7-0.4,1.1-1.1,1.2c-0.9,0.2-1.6,0.3-2.2,0.4c-0.6,0.1-1.4,0.1-2.2,0.1c-1.5,0-2.8-0.1-4-0.4c-1.2-0.3-2.1-0.8-2.9-1.6
	c-0.8-0.8-1.4-1.8-1.8-3.2c-0.4-1.4-0.6-3.1-0.6-5.3v-17.8l-4.4-0.8c-0.3-0.1-0.6-0.2-0.8-0.5c-0.2-0.2-0.4-0.5-0.4-0.8v-4
	c0-0.3,0.1-0.6,0.4-0.9c0.2-0.3,0.5-0.4,0.8-0.4h4.4v-5c0-0.3,0.1-0.6,0.3-0.8c0.2-0.2,0.5-0.3,0.8-0.4l6.7-1.3h0.2
	c0.3,0,0.5,0.1,0.7,0.3c0.2,0.2,0.3,0.4,0.3,0.8v6.5h4.6c0.3,0,0.6,0.1,0.8,0.4c0.2,0.2,0.3,0.5,0.3,0.9v5c0,0.3-0.1,0.6-0.3,0.9
	c-0.2,0.2-0.5,0.4-0.8,0.4h-4.6v17.8c0,1.2,0.1,2,0.3,2.4c0.2,0.3,0.7,0.5,1.6,0.5h2.7c0.8,0,1.2,0.3,1.2,1L215.9,551.2z
	 M248.3,551.1c0,0.3-0.1,0.6-0.3,0.9c-0.2,0.2-0.5,0.4-0.8,0.4H241c-0.3,0-0.6-0.1-0.8-0.4c-0.2-0.3-0.3-0.5-0.3-0.9v-1.5
	c-1.5,1.2-3,2-4.3,2.5c-1.4,0.5-2.9,0.7-4.7,0.7c-2,0-3.6-0.4-4.9-1.1c-1.3-0.7-2.3-1.7-3-3c-0.7-1.3-1.2-2.7-1.5-4.4
	c-0.3-1.7-0.4-3.5-0.4-5.4v-20.4c0-0.3,0.1-0.6,0.4-0.9c0.2-0.3,0.5-0.4,0.8-0.4h6.7c0.3,0,0.6,0.1,0.8,0.4c0.2,0.3,0.3,0.6,0.3,0.9
	v20.4c0,1.1,0.1,2,0.2,2.7c0.1,0.7,0.3,1.3,0.6,1.8c0.3,0.4,0.7,0.8,1.2,1c0.5,0.2,1.2,0.3,2.1,0.3c0.8,0,1.6-0.2,2.5-0.6
	c0.9-0.4,1.8-0.8,2.7-1.4v-24.1c0-0.3,0.1-0.6,0.3-0.9c0.2-0.3,0.5-0.4,0.8-0.4h6.7c0.3,0,0.6,0.1,0.8,0.4c0.2,0.3,0.4,0.6,0.4,0.9
	V551.1z M272.4,523.8c0,0.3-0.1,0.6-0.2,0.8c-0.1,0.2-0.4,0.4-0.6,0.4h-0.4c-1.4,0-2.6,0.2-3.8,0.6c-1.2,0.4-2.3,0.9-3.3,1.5V551
	c0,0.3-0.1,0.6-0.3,0.9c-0.2,0.3-0.5,0.4-0.8,0.4h-6.7c-0.3,0-0.6-0.1-0.8-0.4c-0.2-0.3-0.4-0.6-0.4-0.9v-32.6
	c0-0.3,0.1-0.6,0.3-0.9c0.2-0.2,0.5-0.4,0.8-0.4h6.6c0.3,0,0.6,0.1,0.8,0.4c0.2,0.3,0.3,0.5,0.3,0.9v1.2c1-1,2.2-1.7,3.5-2.2
	c1.3-0.5,2.6-0.8,4-0.8c0.3,0,0.6,0.1,0.8,0.4c0.2,0.2,0.3,0.5,0.3,0.9V523.8z M303,536.4c0,1-0.4,1.5-1.2,1.5h-17.7v0.1
	c0,0.8,0.1,1.7,0.3,2.5c0.2,0.8,0.5,1.5,0.9,2.1c0.4,0.6,1,1.1,1.7,1.5c0.7,0.4,1.6,0.6,2.7,0.6c0.9,0,1.8,0,2.8-0.1
	c1,0,2-0.1,3-0.1c1,0,1.9-0.1,2.7-0.2c0.9-0.1,1.6-0.1,2.1-0.2h0.2c0.7,0,1.1,0.3,1.1,1v4.7c0,0.5-0.1,0.9-0.2,1.1
	c-0.1,0.3-0.5,0.4-0.9,0.6c-1.8,0.5-3.5,0.9-5.2,1.1c-1.7,0.2-3.8,0.4-6.2,0.4c-1.7,0-3.3-0.3-5-0.8c-1.7-0.5-3.2-1.4-4.5-2.6
	c-1.3-1.2-2.4-2.9-3.2-4.9c-0.8-2-1.2-4.5-1.2-7.4v-4.3c0-2.5,0.3-4.7,0.9-6.7c0.6-2,1.5-3.7,2.7-5.1c1.2-1.4,2.7-2.5,4.4-3.2
	c1.7-0.8,3.7-1.1,5.9-1.1c2.3,0,4.2,0.4,6,1.2c1.7,0.8,3.2,1.9,4.3,3.4c1.1,1.4,2,3.1,2.6,5.1c0.6,2,0.9,4.1,0.9,6.4L303,536.4z
	 M294.2,531.5c0-2.3-0.4-4-1.3-5.1c-0.9-1.1-2.1-1.7-3.7-1.7c-1.6,0-2.8,0.6-3.7,1.7c-0.9,1.1-1.4,2.8-1.4,5.1v0.2h10.1V531.5z
	 M349.1,550.8c0,0.7-0.4,1.2-1.1,1.3c-1,0.2-2.2,0.3-3.9,0.5c-1.6,0.2-3.9,0.3-6.9,0.3c-1.8,0-3.5-0.2-5.1-0.5
	c-1.6-0.3-3.1-1-4.3-1.9c-1.2-0.9-2.2-2.3-3-4c-0.7-1.7-1.1-4-1.1-6.8v-20.4c0-2.8,0.4-5,1.1-6.7c0.7-1.7,1.7-3,3-4
	c1.2-0.9,2.7-1.6,4.3-1.9c1.7-0.3,3.4-0.5,5.1-0.5c1.5,0,2.8,0,3.9,0.1c1.1,0.1,2.1,0.1,3,0.2c0.9,0.1,1.6,0.2,2.2,0.2
	c0.6,0.1,1.2,0.2,1.6,0.2c0.7,0.1,1.1,0.5,1.1,1.2v5.7c0,0.3-0.1,0.6-0.3,0.9c-0.2,0.2-0.5,0.4-0.8,0.4h-11.3
	c-1.3,0-2.2,0.3-2.7,0.9c-0.5,0.6-0.8,1.7-0.8,3.3v5.6h14.4c0.3,0,0.6,0.1,0.8,0.4c0.2,0.2,0.3,0.5,0.3,0.9v5.8
	c0,0.3-0.1,0.6-0.3,0.9c-0.2,0.2-0.5,0.4-0.8,0.4h-14.4v6.5c0,1.6,0.3,2.7,0.8,3.3c0.5,0.6,1.5,0.9,2.7,0.9h11.3
	c0.3,0,0.6,0.1,0.8,0.4c0.2,0.2,0.3,0.5,0.3,0.9L349.1,550.8z M382.7,551c0,0.3-0.1,0.6-0.4,0.9c-0.2,0.3-0.5,0.4-0.8,0.4h-6.7
	c-0.3,0-0.6-0.1-0.8-0.4c-0.2-0.3-0.3-0.6-0.3-0.9v-20.4c0-1.1-0.1-2-0.2-2.7c-0.1-0.7-0.3-1.3-0.6-1.8c-0.3-0.4-0.7-0.8-1.2-1
	c-0.5-0.2-1.2-0.3-2.1-0.3c-0.8,0-1.6,0.2-2.5,0.6c-0.9,0.4-1.8,0.8-2.7,1.4V551c0,0.3-0.1,0.6-0.3,0.9c-0.2,0.3-0.5,0.4-0.8,0.4
	h-6.7c-0.3,0-0.6-0.1-0.8-0.4c-0.2-0.3-0.4-0.6-0.4-0.9v-32.6c0-0.3,0.1-0.6,0.3-0.9c0.2-0.2,0.5-0.4,0.8-0.4h6.2
	c0.3,0,0.6,0.1,0.8,0.4c0.2,0.3,0.3,0.5,0.3,0.9v1.5c1.5-1.2,3-2,4.3-2.5c1.4-0.5,2.9-0.7,4.7-0.7c2,0,3.6,0.4,4.9,1.1s2.3,1.7,3,3
	c0.7,1.2,1.2,2.7,1.5,4.4c0.3,1.7,0.4,3.5,0.4,5.4L382.7,551z M416.3,536.4c0,1-0.4,1.5-1.2,1.5h-17.7v0.1c0,0.8,0.1,1.7,0.3,2.5
	c0.2,0.8,0.5,1.5,0.9,2.1c0.4,0.6,1,1.1,1.7,1.5c0.7,0.4,1.6,0.6,2.7,0.6c0.9,0,1.8,0,2.8-0.1c1,0,2-0.1,3-0.1c1,0,1.9-0.1,2.7-0.2
	c0.9-0.1,1.6-0.1,2.1-0.2h0.2c0.7,0,1.1,0.3,1.1,1v4.7c0,0.5-0.1,0.9-0.2,1.1c-0.1,0.3-0.5,0.4-0.9,0.6c-1.8,0.5-3.5,0.9-5.2,1.1
	c-1.7,0.2-3.8,0.4-6.2,0.4c-1.7,0-3.3-0.3-5-0.8c-1.7-0.5-3.2-1.4-4.5-2.6c-1.3-1.2-2.4-2.9-3.2-4.9c-0.8-2-1.2-4.5-1.2-7.4v-4.3
	c0-2.5,0.3-4.7,0.9-6.7c0.6-2,1.5-3.7,2.7-5.1c1.2-1.4,2.7-2.5,4.4-3.2c1.7-0.8,3.7-1.1,5.9-1.1c2.3,0,4.2,0.4,6,1.2
	c1.7,0.8,3.2,1.9,4.3,3.4c1.1,1.4,2,3.1,2.6,5.1c0.6,2,0.9,4.1,0.9,6.4L416.3,536.4z M407.6,531.5c0-2.3-0.4-4-1.3-5.1
	c-0.9-1.1-2.1-1.7-3.7-1.7c-1.6,0-2.8,0.6-3.7,1.7c-0.9,1.1-1.4,2.8-1.4,5.1v0.2h10.1V531.5z M439.6,523.8c0,0.3-0.1,0.6-0.2,0.8
	c-0.1,0.2-0.4,0.4-0.6,0.4h-0.4c-1.4,0-2.6,0.2-3.8,0.6c-1.2,0.4-2.3,0.9-3.3,1.5V551c0,0.3-0.1,0.6-0.3,0.9
	c-0.2,0.3-0.5,0.4-0.8,0.4h-6.7c-0.3,0-0.6-0.1-0.8-0.4c-0.2-0.3-0.4-0.6-0.4-0.9v-32.6c0-0.3,0.1-0.6,0.3-0.9s0.5-0.4,0.8-0.4h6.6
	c0.3,0,0.6,0.1,0.8,0.4c0.2,0.3,0.3,0.5,0.3,0.9v1.2c1-1,2.2-1.7,3.5-2.2c1.3-0.5,2.6-0.8,4-0.8c0.3,0,0.6,0.1,0.8,0.4
	c0.2,0.2,0.3,0.5,0.3,0.9L439.6,523.8z M471.9,522.3c0,0.4-0.1,0.8-0.2,0.9c-0.2,0.2-0.4,0.3-0.7,0.4l-1.7,0.6
	c0.3,0.6,0.6,1.3,0.9,2.1c0.2,0.9,0.4,1.7,0.4,2.4v0.5c0,4-1.2,6.9-3.6,8.7c-2.4,1.8-5.8,2.7-10.1,2.7c-1.3,0-2.4-0.1-3.4-0.3
	c-1-0.2-1.8-0.4-2.3-0.6c-0.3,0.2-0.5,0.4-0.6,0.6c-0.1,0.2-0.2,0.5-0.2,0.8c0,0.5,0.1,0.9,0.3,1.1c0.2,0.2,0.7,0.4,1.3,0.6l6.3,1.5
	c2.4,0.6,4.4,1.1,6.1,1.7c1.7,0.6,3,1.2,4,1.9c1,0.7,1.7,1.6,2.2,2.6c0.4,1,0.7,2.2,0.7,3.7v0.5c0,6.7-4.8,10-14.5,10
	c-4.6,0-8.1-0.9-10.5-2.6c-2.4-1.7-3.6-4.2-3.6-7.4v-0.5c0-1.3,0.3-2.5,0.8-3.6c0.5-1.1,1.4-2.2,2.6-3.2c-1-0.6-1.7-1.5-2.2-2.5
	c-0.4-1.1-0.7-2.1-0.7-3.2c0-1.1,0.2-2.1,0.7-3c0.5-0.9,1-1.6,1.7-2.2c-0.9-0.9-1.5-2-1.9-3.4c-0.4-1.4-0.6-2.7-0.6-3.9v-0.5
	c0-3.5,1.1-6.3,3.3-8.4c2.2-2.1,5.7-3.2,10.6-3.2h13.8c0.4,0,0.7,0.2,1,0.5c0.3,0.3,0.4,0.7,0.4,1.1L471.9,522.3z M461.7,528.8
	c0-1.3-0.3-2.3-1-3.2c-0.7-0.8-2-1.3-3.9-1.3c-2,0-3.3,0.4-4,1.3c-0.7,0.8-1.1,1.9-1.1,3.2v0.5c0,0.5,0.1,1.1,0.2,1.6
	c0.1,0.5,0.4,1,0.7,1.4c0.4,0.4,0.9,0.7,1.5,1c0.6,0.2,1.5,0.4,2.6,0.4c2,0,3.3-0.4,3.9-1.2c0.7-0.8,1-1.8,1-3.1V528.8z M462,554.3
	c0-0.3-0.1-0.6-0.2-0.8c-0.1-0.3-0.4-0.5-0.8-0.8c-0.4-0.2-1-0.5-1.7-0.7c-0.7-0.2-1.7-0.5-3-0.9l-4.1-1c-0.3,0.5-0.6,1.1-0.8,1.7
	c-0.2,0.6-0.3,1.4-0.3,2.5v0.5c0,1.1,0.4,1.8,1.2,2.4c0.8,0.5,2.2,0.8,4.4,0.8c1.1,0,2.1-0.1,2.8-0.2c0.7-0.1,1.2-0.4,1.6-0.6
	c0.4-0.3,0.6-0.6,0.8-1c0.1-0.4,0.2-0.8,0.2-1.3V554.3z M504.8,518.3c0,0.1,0,0.1,0,0.2c0,0,0,0.1,0,0.2l-9.3,36.1
	c-0.4,1.7-0.9,3.1-1.5,4.4c-0.6,1.2-1.3,2.3-2.2,3.1c-0.9,0.8-2,1.4-3.4,1.9c-1.4,0.4-3.1,0.6-5.1,0.6c-0.5,0-1.1,0-1.7-0.1
	c-0.6-0.1-1.3-0.1-1.9-0.2c-0.6-0.1-1.2-0.2-1.8-0.3c-0.6-0.1-1-0.2-1.3-0.4c-0.3-0.1-0.6-0.3-0.8-0.4c-0.2-0.1-0.4-0.4-0.4-0.7v-5
	c0-0.3,0.1-0.6,0.3-0.8c0.2-0.2,0.5-0.3,0.8-0.3h0.1c0.4,0,1,0.1,1.6,0.1c0.6,0,1.2,0.1,1.9,0.2c0.6,0.1,1.3,0.1,1.9,0.2
	c0.6,0,1.1,0.1,1.6,0.1c1,0,1.8-0.2,2.3-0.7c0.6-0.4,1-1.3,1.3-2.5l0.5-1.9h-0.8c-0.5,0-1-0.1-1.5-0.2c-0.5-0.1-0.9-0.3-1.4-0.7
	c-0.4-0.4-0.9-0.9-1.2-1.7c-0.4-0.8-0.7-1.8-1.1-3.2l-7.3-27.6c0-0.1-0.1-0.3-0.1-0.4c0-0.7,0.4-1,1.1-1h7.4c0.3,0,0.5,0.1,0.7,0.3
	c0.2,0.2,0.3,0.5,0.4,0.8l5,23c0.1,0.8,0.4,1.2,0.7,1.2h0.1h0.2h0.2l5.2-24.2c0.1-0.3,0.2-0.6,0.4-0.8c0.2-0.2,0.5-0.3,0.7-0.3h7.4
	c0.3,0,0.5,0.1,0.7,0.3C504.7,517.7,504.8,518,504.8,518.3L504.8,518.3z"/>
<path id="path8" class="st0" d="M119.1,610.4c0-0.1,0-0.3-0.1-0.4l-10-36c-0.9-3.4-3.5-4.1-5.5-4.1c-2.1,0-4.6,0.8-5.5,4.2l-10,35.9
	c-0.1,0.1-0.1,0.3-0.1,0.4c0,0.5,0.4,0.9,0.9,0.9h3.2c0.4,0,0.9-0.4,1-0.8l3.5-12.7h14l3.5,12.7c0.1,0.4,0.4,0.8,0.9,0.8h3.2
	C118.8,611.2,119.1,610.9,119.1,610.4z M109.6,593.4h-12l4.9-18.2c0.2-0.6,0.5-1,1.1-1c0.5,0,0.9,0.4,1,1L109.6,593.4z M143.2,603.6
	c0-3.3-1.5-5.6-6-8.3l-5.4-3.3c-2.5-1.5-3.7-2.5-3.7-4.2c0-2.8,2-3.2,5-3.2c3,0,6.5,0.3,8.4,0.4c0.1,0,0.1,0,0.2,0
	c0.5,0,0.9-0.3,0.9-0.9v-1.8c0-0.6-0.3-1-1-1.1c-2.5-0.4-5.4-0.7-8.4-0.7c-5.6,0-9.8,1.6-9.8,7.3c0,3.5,2.2,5.8,5.5,7.9l5.5,3.3
	c3.1,1.9,4.1,2.9,4.1,4.6c0,3-1.8,3.9-5.4,3.9c-1.9,0-5.9-0.3-8.5-0.6c-0.1,0-0.1,0-0.2,0c-0.5,0-1,0.3-1,0.8v1.9
	c0,0.6,0.4,0.9,1.1,1.1c2.7,0.7,6.6,0.8,8.6,0.8C139.2,611.6,143.2,609.3,143.2,603.6L143.2,603.6z M164.7,610.4v-1.9
	c0-0.6-0.4-0.8-1.1-0.8h-3c-2.2,0-2.9-0.4-2.9-3.5V585h5.8c0.6,0,1.1-0.5,1.1-1.1V582c0-0.6-0.5-1.1-1.1-1.1h-5.8v-6
	c0-0.6-0.4-0.9-0.8-0.9c-0.1,0-0.1,0-0.2,0l-2.8,0.4c-0.6,0.1-1,0.6-1,1.1v5.4h-5.3c-0.6,0-1,0.4-1,1v1.5c0,0.6,0.4,0.9,1,1l5.3,0.6
	v19.3c0,6.1,2.4,7.4,7.4,7.4c1,0,2.4-0.1,3.5-0.3C164.5,611.2,164.7,610.9,164.7,610.4z M190.5,610.1v-19.3c0-6.5-3-10.4-10.6-10.4
	c-3.7,0-6.2,0.3-8.4,0.7c-0.8,0.1-1.1,0.4-1.1,1v1.9c0,0.7,0.5,0.9,1,0.9c0.1,0,0.2,0,0.3,0c2.2-0.2,4.8-0.4,8.3-0.4
	c4.2,0,5.8,1.6,5.8,6.2v2.2h-4c-9.6,0-13.1,3-13.1,8.9v0.7c0,6.9,4.2,8.9,8.8,8.9c3,0,5.7-1.2,8.3-2.7v1.2c0,0.6,0.5,1.1,1.1,1.1
	h2.5C190,611.2,190.5,610.8,190.5,610.1z M185.8,605.5c-2.6,1.4-4.8,2.2-7.3,2.2c-3.1,0-5-1-5-5V602c0-3.9,1.7-5.4,8.3-5.4h4V605.5z
	 M220.7,610.1V592c0-7.3-2.9-11.5-9.4-11.5c-3.2,0-5.6,0.8-8.6,2.5v-1c0-0.6-0.4-1.1-1-1.1h-2.7c-0.6,0-1,0.5-1,1.1v28.1
	c0,0.6,0.5,1.1,1,1.1h2.7c0.6,0,1.1-0.6,1.1-1.1v-23.3c2.5-1.3,5-2.2,7.3-2.2c4.1,0,6,1.7,6,7.3v18.2c0,0.6,0.5,1.1,1.1,1.1h2.6
	C220.2,611.2,220.7,610.8,220.7,610.1L220.7,610.1z M248.8,610.1v-19.3c0-6.5-3-10.4-10.6-10.4c-3.7,0-6.2,0.3-8.4,0.7
	c-0.8,0.1-1.1,0.4-1.1,1v1.9c0,0.7,0.5,0.9,1,0.9c0.1,0,0.2,0,0.3,0c2.2-0.2,4.8-0.4,8.3-0.4c4.2,0,5.8,1.6,5.8,6.2v2.2h-4
	c-9.6,0-13.1,3-13.1,8.9v0.7c0,6.9,4.2,8.9,8.8,8.9c3,0,5.7-1.2,8.3-2.7v1.2c0,0.6,0.5,1.1,1.1,1.1h2.5
	C248.3,611.2,248.8,610.8,248.8,610.1z M244,605.5c-2.6,1.4-4.8,2.2-7.3,2.2c-3.1,0-5-1-5-5V602c0-3.9,1.7-5.4,8.3-5.4h4V605.5z
	 M296.4,610.7c0-0.2-0.1-0.5-0.3-0.7l-16.3-19.9l16.3-18.8c0.2-0.2,0.2-0.4,0.2-0.6c0-0.3-0.2-0.6-0.8-0.6h-3.9
	c-0.5,0-0.8,0.2-1.1,0.5L275,589.1v-17.8c0-0.6-0.5-1-1-1h-2.9c-0.6,0-1,0.5-1,1v38.8c0,0.6,0.4,1.1,1,1.1h3c0.6,0,1-0.6,1-1.1
	v-18.4l15.3,18.9c0.3,0.4,0.7,0.6,1.2,0.6h4.2C296.2,611.2,296.4,611,296.4,610.7L296.4,610.7z M323.2,610.1v-19.3
	c0-6.5-3-10.4-10.6-10.4c-3.7,0-6.2,0.3-8.4,0.7c-0.8,0.1-1.1,0.4-1.1,1v1.9c0,0.7,0.5,0.9,1,0.9c0.1,0,0.2,0,0.3,0
	c2.2-0.2,4.8-0.4,8.3-0.4c4.2,0,5.8,1.6,5.8,6.2v2.2h-4c-9.6,0-13.1,3-13.1,8.9v0.7c0,6.9,4.2,8.9,8.8,8.9c3,0,5.7-1.2,8.3-2.7v1.2
	c0,0.6,0.5,1.1,1.1,1.1h2.5C322.7,611.2,323.2,610.8,323.2,610.1L323.2,610.1z M318.4,605.5c-2.6,1.4-4.8,2.2-7.3,2.2
	c-3.1,0-5-1-5-5V602c0-3.9,1.7-5.4,8.3-5.4h4L318.4,605.5z M350.2,610.1v-1.9c0-0.6-0.5-1.1-1.1-1.1h-14.3c-0.4,0-0.4-0.2-0.4-0.4
	c0-0.2,0.1-0.4,0.3-0.6l14.2-18.2c0.9-1,1.2-1.9,1.2-3v-1.3c0-1.7-0.8-2.7-3-2.7h-15.9c-0.6,0-1.1,0.5-1.1,1.1v1.9
	c0,0.6,0.5,1.1,1.1,1.1h13.2c0.4,0,0.5,0.2,0.5,0.4c0,0.2-0.1,0.3-0.2,0.5l-14,17.7c-0.9,1.2-1.2,2-1.2,3.6v1c0,1.5,1,3,3.3,3h16.4
	C349.8,611.2,350.2,610.8,350.2,610.1L350.2,610.1z M377.4,610.1v-19.3c0-6.5-3-10.4-10.6-10.4c-3.7,0-6.2,0.3-8.4,0.7
	c-0.8,0.1-1.1,0.4-1.1,1v1.9c0,0.7,0.5,0.9,1,0.9c0.1,0,0.2,0,0.3,0c2.2-0.2,4.8-0.4,8.3-0.4c4.2,0,5.8,1.6,5.8,6.2v2.2h-4
	c-9.6,0-13.1,3-13.1,8.9v0.7c0,6.9,4.2,8.9,8.8,8.9c3,0,5.7-1.2,8.3-2.7v1.2c0,0.6,0.5,1.1,1.1,1.1h2.5
	C376.9,611.2,377.4,610.8,377.4,610.1L377.4,610.1z M372.6,605.5c-2.6,1.4-4.8,2.2-7.3,2.2c-3.1,0-5-1-5-5V602
	c0-3.9,1.7-5.4,8.3-5.4h4L372.6,605.5z M406,610.5c0-0.2-0.1-0.4-0.2-0.5l-12-14.8l11.9-13.1c0.2-0.2,0.3-0.4,0.3-0.6
	c0-0.3-0.3-0.6-0.8-0.6h-3.8c-0.5,0-0.8,0.1-1.1,0.5l-10.8,12.4v-23c0-0.6-0.5-1.1-1.1-1.1h-2.6c-0.6,0-1.1,0.5-1.1,1.1v39.3
	c0,0.6,0.5,1.1,1.1,1.1h2.6c0.6,0,1.1-0.5,1.1-1.1V597l10.8,13.6c0.4,0.6,0.6,0.7,1.2,0.7h3.9C405.8,611.2,406,610.9,406,610.5
	L406,610.5z M434.4,610.1V592c0-8.1-4-11.5-9.7-11.5c-2.3,0-5.7,0.6-8.3,1.7v-11.4c0-0.6-0.4-1.1-1-1.1h-2.7c-0.6,0-1,0.5-1,1.1
	v39.3c0,0.6,0.5,1.1,1,1.1h2.7c0.6,0,1.1-0.6,1.1-1.1v-23.8c2.4-1.1,5.8-1.5,7.5-1.5c3.5,0,5.8,1.7,5.8,7.2v18.2
	c0,0.6,0.5,1.1,1.1,1.1h2.6C433.9,611.2,434.4,610.8,434.4,610.1L434.4,610.1z M460.6,603.6c0-3.3-1.5-5.6-6-8.3l-5.4-3.3
	c-2.5-1.5-3.7-2.5-3.7-4.2c0-2.8,2-3.2,5-3.2c3,0,6.5,0.3,8.4,0.4c0.1,0,0.1,0,0.2,0c0.5,0,0.9-0.3,0.9-0.9v-1.8c0-0.6-0.3-1-1-1.1
	c-2.5-0.4-5.4-0.7-8.4-0.7c-5.6,0-9.8,1.6-9.8,7.3c0,3.5,2.2,5.8,5.5,7.9l5.5,3.3c3.1,1.9,4.1,2.9,4.1,4.6c0,3-1.8,3.9-5.4,3.9
	c-1.9,0-5.9-0.3-8.5-0.6c-0.1,0-0.1,0-0.2,0c-0.5,0-1,0.3-1,0.8v1.9c0,0.6,0.4,0.9,1.1,1.1c2.7,0.7,6.6,0.8,8.6,0.8
	C456.6,611.6,460.6,609.3,460.6,603.6L460.6,603.6z M482.1,610.4v-1.9c0-0.6-0.4-0.8-1.1-0.8h-3c-2.2,0-2.9-0.4-2.9-3.5V585h5.8
	c0.6,0,1.1-0.5,1.1-1.1V582c0-0.6-0.5-1.1-1.1-1.1H475v-6c0-0.6-0.4-0.9-0.8-0.9c-0.1,0-0.1,0-0.2,0l-2.8,0.4c-0.6,0.1-1,0.6-1,1.1
	v5.4H465c-0.6,0-1,0.4-1,1v1.5c0,0.6,0.4,0.9,1,1l5.3,0.6v19.3c0,6.1,2.4,7.4,7.4,7.4c1,0,2.4-0.1,3.5-0.3
	C481.9,611.2,482.1,610.9,482.1,610.4z M507.9,610.1v-19.3c0-6.5-3-10.4-10.6-10.4c-3.7,0-6.2,0.3-8.4,0.7c-0.8,0.1-1.1,0.4-1.1,1
	v1.9c0,0.7,0.5,0.9,1,0.9c0.1,0,0.2,0,0.3,0c2.2-0.2,4.8-0.4,8.3-0.4c4.2,0,5.8,1.6,5.8,6.2v2.2h-4c-9.6,0-13.1,3-13.1,8.9v0.7
	c0,6.9,4.2,8.9,8.8,8.9c3,0,5.7-1.2,8.3-2.7v1.2c0,0.6,0.5,1.1,1.1,1.1h2.5C507.4,611.2,507.9,610.8,507.9,610.1z M503.1,605.5
	c-2.6,1.4-4.8,2.2-7.3,2.2c-3.1,0-5-1-5-5V602c0-3.9,1.7-5.4,8.3-5.4h4V605.5z M538.1,610.1V592c0-7.3-2.9-11.5-9.4-11.5
	c-3.2,0-5.6,0.8-8.6,2.5v-1c0-0.6-0.4-1.1-1-1.1h-2.7c-0.6,0-1,0.5-1,1.1v28.1c0,0.6,0.5,1.1,1,1.1h2.7c0.6,0,1.1-0.6,1.1-1.1v-23.3
	c2.5-1.3,5-2.2,7.3-2.2c4.1,0,6,1.7,6,7.3v18.2c0,0.6,0.5,1.1,1.1,1.1h2.6C537.6,611.2,538.1,610.8,538.1,610.1L538.1,610.1z"/>
<radialGradient id="path17_1_" cx="-342.0611" cy="1404.2975" r="0.98" gradientTransform="matrix(80.8478 0 0 -90.8743 27964.8359 127785.0234)" gradientUnits="userSpaceOnUse">
	<stop  offset="0" style="stop-color:#FFB604"/>
	<stop  offset="1" style="stop-color:#FFB604"/>
</radialGradient>
<path id="path17" class="st1" d="M362.1,138.2c-6.3,87.2-56.6,115.7-80.8,67.7C281.3,148.1,340.3,193.9,362.1,138.2z"/>
<radialGradient id="path26_1_" cx="-343.7828" cy="1410.8555" r="1" gradientTransform="matrix(99.8795 0 0 -205.4662 34664.6406 290017.75)" gradientUnits="userSpaceOnUse">
	<stop  offset="0" style="stop-color:#FE9007"/>
	<stop  offset="1" style="stop-color:#FE9007"/>
</radialGradient>
<path id="path26" class="st2" d="M313.6,1.1c35.9,40.7,52,86.6,48.7,137.8c-23.3,56.8-81.6,10.6-80.8,67.7
	C245.2,121.5,265.1,56.3,313.6,1.1L313.6,1.1z"/>
<path id="path28" class="st3" d="M359.3,230.6c98,12.8,149.8,60.8,178,126.8c-56.1,8.8-107.4-0.9-154.1-28.6
	c-0.1-0.1-0.2-0.2-0.3-0.3C304.1,280.6,302.1,226.4,359.3,230.6C359.3,230.6,359.3,230.6,359.3,230.6L359.3,230.6z"/>
<path id="path30" class="st4" d="M194.3,249.4c84-38.3,135.5-12.7,103,30.6c-0.1,0-0.2,0.1-0.3,0.1c-61.1,71.4-132.1,88.5-208,77.9
	c19.9-49.1,54.7-85.2,104.2-108.5C193.6,249.5,193.9,249.5,194.3,249.4L194.3,249.4z"/>
<path id="path32" class="st4" d="M359.3,230.6c98,12.8,149.8,60.8,178,126.8c-56.1,8.8-107.4-0.9-154.1-28.6
	c-0.1-0.1-0.2-0.2-0.3-0.3C304.1,280.6,302.1,226.4,359.3,230.6C359.3,230.6,359.3,230.6,359.3,230.6L359.3,230.6z"/>
<radialGradient id="path41_1_" cx="-345.2024" cy="1396.8794" r="0.9" gradientTransform="matrix(114.1276 0 0 -56.5076 39624.3594 79181.9375)" gradientUnits="userSpaceOnUse">
	<stop  offset="0" style="stop-color:#00A7DF"/>
	<stop  offset="1" style="stop-color:#00A7DF"/>
</radialGradient>
<path id="path41" class="st5" d="M193,250c84.8-39.2,136.9-13.6,104.3,30C243.1,309.3,256.2,239.2,193,250z"/>
<radialGradient id="path50_1_" cx="-348.2613" cy="1406.3684" r="0.92" gradientTransform="matrix(208.5161 0 0 -112.3752 72839.5156 158360.7969)" gradientUnits="userSpaceOnUse">
	<stop  offset="0" style="stop-color:#0077CF"/>
	<stop  offset="1" style="stop-color:#0077CF"/>
</radialGradient>
<path id="path50" class="st6" d="M89,358.1c19.9-49.1,54.7-85.2,104.2-108.5c64.9-10.2,51.3,59.5,104.3,30
	C236.3,351.5,165.2,368.7,89,358.1L89,358.1z"/>
<radialGradient id="path59_1_" cx="-339.1029" cy="1405.1072" r="0.92" gradientTransform="matrix(63.7995 0 0 -98.3994 21985.1992 138539.7344)" gradientUnits="userSpaceOnUse">
	<stop  offset="0" style="stop-color:#9BD219"/>
	<stop  offset="1" style="stop-color:#9BD219"/>
</radialGradient>
<path id="path59" class="st7" d="M383.5,328.7c-79.3-47.9-81.5-102.3-24.2-98.2C413.9,259,341.5,283.8,383.5,328.7z"/>
<radialGradient id="path68_1_" cx="-347.5771" cy="1407.7225" r="1" gradientTransform="matrix(178.3461 0 0 -129.9539 62459.4844 183250.8906)" gradientUnits="userSpaceOnUse">
	<stop  offset="0" style="stop-color:#16975A"/>
	<stop  offset="1" style="stop-color:#16975A"/>
</radialGradient>
<path id="path68" class="st8" d="M537.3,357.4c-56.1,8.8-107.4-0.9-154.1-28.6C341,282.1,413.3,258,359,230.6
	C457.2,243.3,509,291.3,537.3,357.4L537.3,357.4z"/>
<g id="Layer1000">
	<path id="path70" class="st9" d="M362,139.7c-6.7,85.8-56.3,113.7-80.5,66.7c0,0.1,0,0.1,0,0.2c-36.3-85-16.4-150.3,32.1-205.5
		c35.9,40.7,52,86.6,48.7,137.8C362.2,139.1,362.1,139.4,362,139.7L362,139.7z"/>
	<path id="path72" class="st9" d="M359.3,230.6c98,12.8,149.8,60.8,178,126.8c-56.1,8.8-107.4-0.9-154.1-28.6
		c-0.1-0.1-0.2-0.2-0.3-0.3C304.1,280.6,302.1,226.4,359.3,230.6C359.3,230.6,359.3,230.6,359.3,230.6L359.3,230.6z"/>
	<path id="path74" class="st9" d="M194.3,249.4c84-38.3,135.5-12.7,103,30.6c-0.1,0-0.2,0.1-0.3,0.1c-61.1,71.4-132.1,88.5-208,77.9
		c19.9-49.1,54.7-85.2,104.2-108.5C193.6,249.5,193.9,249.5,194.3,249.4L194.3,249.4z"/>
</g>
</svg>